{
.appVersion = "1075";
copyright = "Copyright 2011 The Wire One Project Authors (https://github.com/cyrealtype/Wire-One)";
customParameters = (
{
name = licenseURL;
value = "http://scripts.sil.org/OFL";
},
{
name = trademark;
value = "Wire is a trademark of Cyreal type foundry.";
},
{
name = license;
value = "This Font Software is licensed under the SIL Open Font License, Version 1.1. This license is available with a FAQ at: http://scripts.sil.org/OFL";
},
{
name = fsType;
value = (
);
},
{
name = "Use Typo Metrics";
value = 1;
},
{
name = "Disable Last Change";
value = 1;
},
{
name = "Use Line Breaks";
value = 1;
},
{
name = vendorID;
value = CYRE;
}
);
date = "2017-11-21 11:06:17 +0000";
designer = "Alexei Vanyashin, Gayaneh Bagdasaryan";
designerURL = "http://cyreal.org";
disablesAutomaticAlignment = 1;
familyName = Wire;
featurePrefixes = (
{
code = "@_v = [v w];
@_Yacute = [Yacute Y];
@_W = [W V];
@_quotedbl = [quotedbl quotesingle];
@_quoteleft = [quoteleft quotedblleft];
@_quoteright = [quoteright quotedblright];
@_c = [c ccedilla];
@_guillemotleft = [guillemotleft guilsinglleft];
@_guillemotright = [guillemotright guilsinglright];
@_Eth = [Eth D];
@_C = [C Ccedilla];
@_y = [y yacute ydieresis];
@_comma = [comma period quotesinglbase quotedblbase];
@_hyphen = [hyphen uni00AD endash emdash];
@_b = [b h k thorn];
@_h = [h m n ntilde];
@_m = [m n p r ntilde];
@_u = [u ugrave uacute ucircumflex udieresis];
@_Ugrave = [Ugrave Uacute Ucircumflex Udieresis U];
@_q = [q u ugrave uacute ucircumflex udieresis];
@_a = [a aacute acircumflex atilde adieresis agrave aring];
@_i = [i j igrave iacute icircumflex idieresis dotlessi];
@_e = [e ae egrave eacute ecircumflex edieresis oe];
@_AE = [AE Egrave Eacute Ecircumflex Edieresis OE E];
@_a1 = [a aacute acircumflex atilde adieresis ae agrave aring];
@_Ograve = [Ograve Oacute Ocircumflex Otilde Odieresis Oslash O Q];
@_b1 = [b o p eth ograve oacute ocircumflex otilde oslash thorn odieresis];

glyphs = (
{
glyphname = A;
layers = (
{
layerId = UUID0;
paths = (
{
closed = 1;
nodes = (
"512 23 LINE",
"518 15 LINE",
"518 6 LINE",
"518 -5 LINE",
"503 -20 LINE",
"492 -20 LINE",
"481 -20 LINE",
"465 -5 LINE",
"465 6 LINE",
"465 15 LINE",
"471 23 LINE",
"471 983 LINE",
"127 983 LINE",
"127 23 LINE",
"133 15 LINE",
"133 6 LINE",
"133 -5 LINE",
"117 -20 LINE",
"106 -20 LINE",
"95 -20 LINE",
"80 -5 LINE",
"80 6 LINE",
"80 15 LINE",
"86 23 LINE",
"86 1200 LINE",
"86 1244 LINE",
"106 1328 LINE",
"156 1394 LINE",
"239 1434 LINE",
"301 1434 LINE",
"512 1434 LINE"
);
},
{
closed = 1;
nodes = (
"471 1024 LINE",
"471 1393 LINE",
"301 1393 LINE",
"250 1393 LINE",
"183 1359 LINE",
"143 1304 LINE",
"127 1235 LINE",
"127 1200 LINE",
"127 1024 LINE"
);
}
);
width = 598;
}
);
leftKerningGroup = A;
rightKerningGroup = A;
unicode = 0041;
},
{
glyphname = AE;
layers = (
{
layerId = UUID0;
paths = (
{
closed = 1;
nodes = (
"852 41 LINE",
"861 47 LINE",
"870 47 LINE",
"881 47 LINE",
"897 31 LINE",
"897 20 LINE",
"897 9 LINE",
"881 -6 LINE",
"870 -6 LINE",
"861 -6 LINE",
"852 0 LINE",
"471 0 LINE",
"471 983 LINE",
"127 983 LINE",
"127 23 LINE",
"133 15 LINE",
"133 6 LINE",
"133 -5 LINE",
"117 -20 LINE",
"106 -20 LINE",
"95 -20 LINE",
"80 -5 LINE",
"80 6 LINE",
"80 15 LINE",
"86 23 LINE",
"86 1200 LINE",
"86 1244 LINE",
"106 1328 LINE",
"156 1394 LINE",
"239 1434 LINE",
"301 1434 LINE",
"852 1434 LINE",
"861 1440 LINE",
"870 1440 LINE",
"881 1440 LINE",
"897 1424 LINE",
"897 1413 LINE",
"897 1402 LINE",
"881 1386 LINE",
"870 1386 LINE",
"862 1386 LINE",
"852 1393 LINE",
"512 1393 LINE",
"512 1024 LINE",
"793 1024 LINE",
"802 1030 LINE",
"811 1030 LINE",
"822 1030 LINE",
"838 1015 LINE",
"838 1004 LINE",
"838 993 LINE",
"822 977 LINE",
"811 977 LINE",
"802 977 LINE",
"793 983 LINE",
"512 983 LINE",
"512 41 LINE"
);
},
{
closed = 1;
nodes = (
"471 1024 LINE",
"471 1393 LINE",
"301 1393 LINE",
"250 1393 LINE",
"183 1359 LINE",
"143 1304 LINE",
"127 1235 LINE",
"127 1200 LINE",
"127 1024 LINE"
);
}
);
width = 930;
}
);
leftKerningGroup = A;
rightKerningGroup = AE;
unicode = 00C6;
},
{
glyphname = B;
layers = (
{
layerId = UUID0;
paths = (
{
closed = 1;
nodes = (
"514 221 LINE",
"514 116 LINE",
"405 0 LINE",
"299 0 LINE",
"88 0 LINE",
"88 1434 LINE",
"295 1434 LINE",
"353 1434 LINE",
"430 1400 LINE",
"476 1342 LINE",
"496 1264 LINE",
"496 1221 LINE",
"496 1188 LINE",
"486 1122 LINE",
"463 1064 LINE",
"424 1017 LINE",
"395 1004 LINE",
"428 989 LINE",
"473 945 LINE",
"502 890 LINE",
"514 825 LINE",
"514 791 LINE"
);
},
{
closed = 1;
nodes = (
"299 41 LINE",
"386 41 LINE",
"473 138 LINE",
"473 223 LINE",
"473 791 LINE",
"473 827 LINE",
"456 896 LINE",
"415 950 LINE",
"346 983 LINE",
"295 983 LINE",
"129 983 LINE",
"129 41 LINE"
);
},
{
closed = 1;
nodes = (
"295 1024 LINE",
"344 1024 LINE",
"406 1058 LINE",
"442 1114 LINE",
"455 1185 LINE",
"455 1221 LINE",
"455 1256 LINE",
"439 1319 LINE",
"402 1366 LINE",
"340 1393 LINE",
"295 1393 LINE",
"129 1393 LINE",
"129 1024 LINE"
);
}
);
width = 582;
}
);
leftKerningGroup = B;
unicode = 0042;
},
{
glyphname = C;
layers = (
{
layerId = UUID0;
paths = (
{
closed = 1;
nodes = (
"123 207 LINE",
"123 171 LINE",
"140 104 LINE",
"180 51 LINE",
"246 20 LINE",
"295 20 LINE",
"341 20 LINE",
"405 47 LINE",
"446 93 LINE",
"465 154 LINE",
"467 188 LINE",
"464 192 LINE",
"461 202 LINE",
"461 207 LINE",
"461 218 LINE",
"476 233 LINE",
"487 233 LINE",
"498 233 LINE",
"514 218 LINE",
"514 207 LINE",
"514 202 LINE",
"511 192 LINE",
"508 188 LINE",
"506 147 LINE",
"481 71 LINE",
"431 14 LINE",
"352 -20 LINE",
"295 -20 LINE",
"234 -20 LINE",
"152 18 LINE",
"103 81 LINE",
"82 163 LINE",
"82 207 LINE",
"82 1221 LINE",
"82 1264 LINE",
"103 1348 LINE",
"152 1414 LINE",
"234 1454 LINE",
"295 1454 LINE",
"352 1454 LINE",
"431 1418 LINE",
"481 1358 LINE",
"506 1281 LINE",
"508 1239 LINE",
"511 1236 LINE",
"514 1226 LINE",
"514 1221 LINE",
"514 1210 LINE",
"498 1194 LINE",
"487 1194 LINE",
"476 1194 LINE",
"461 1210 LINE",
"461 1221 LINE",
"461 1231 LINE",
"467 1237 LINE",
"465 1270 LINE",
"446 1333 LINE",
"405 1383 LINE",
"341 1413 LINE",
"295 1413 LINE",
"246 1413 LINE",
"180 1379 LINE",
"140 1325 LINE",
"123 1256 LINE",
"123 1221 LINE"
);
}
);
width = 539;
}
);
leftKerningGroup = C;
rightKerningGroup = C;
unicode = 0043;
},
{
glyphname = D;
layers = (
{
layerId = UUID0;
paths = (
{
closed = 1;
nodes = (
"514 233 LINE",
"514 189 LINE",
"493 106 LINE",
"444 40 LINE",
"361 0 LINE",
"299 0 LINE",
"88 0 LINE",
"88 1434 LINE",
"299 1434 LINE",
"361 1434 LINE",
"444 1394 LINE",
"493 1328 LINE",
"514 1244 LINE",
"514 1200 LINE"
);
},
{
closed = 1;
nodes = (
"299 41 LINE",
"350 41 LINE",
"417 75 LINE",
"457 129 LINE",
"473 198 LINE",
"473 233 LINE",
"473 1200 LINE",
"473 1235 LINE",
"457 1304 LINE",
"417 1359 LINE",
"350 1393 LINE",
"299 1393 LINE",
"129 1393 LINE",
"129 41 LINE"
);
}
);
width = 596;
}
);
leftKerningGroup = B;
rightKerningGroup = Eth;
unicode = 0044;
},
{
glyphname = Eth;
layers = (
{
layerId = UUID0;
paths = (
{
closed = 1;
nodes = (
"528 233 LINE",
"528 189 LINE",
"507 106 LINE",
"458 40 LINE",
"375 0 LINE",
"313 0 LINE",
"102 0 LINE",
"102 983 LINE",
"6 983 LINE",
"0 977 LINE",
"-10 977 LINE",
"-21 977 LINE",
"-37 993 LINE",
"-37 1004 LINE",
"-37 1015 LINE",
"-21 1030 LINE",
"-10 1030 LINE",
"0 1030 LINE",
"6 1024 LINE",
"102 1024 LINE",
"102 1434 LINE",
"313 1434 LINE",
"375 1434 LINE",
"458 1394 LINE",
"507 1328 LINE",
"528 1244 LINE",
"528 1200 LINE"
);
},
{
closed = 1;
nodes = (
"313 41 LINE",
"364 41 LINE",
"431 75 LINE",
"471 129 LINE",
"487 198 LINE",
"487 233 LINE",
"487 1200 LINE",
"487 1235 LINE",
"471 1304 LINE",
"431 1359 LINE",
"364 1393 LINE",
"313 1393 LINE",
"143 1393 LINE",
"143 1024 LINE",
"295 1024 LINE",
"304 1030 LINE",
"313 1030 LINE",
"324 1030 LINE",
"340 1015 LINE",
"340 1004 LINE",
"340 993 LINE",
"324 977 LINE",
"313 977 LINE",
"304 977 LINE",
"295 983 LINE",
"143 983 LINE",
"143 41 LINE"
);
}
);
width = 610;
}
);
leftKerningGroup = B;
rightKerningGroup = Eth;
unicode = 00D0;
},
{
glyphname = E;
layers = (
{
layerId = UUID0;
paths = (
{
closed = 1;
nodes = (
"467 41 LINE",
"476 47 LINE",
"485 47 LINE",
"496 47 LINE",
"512 31 LINE",
"512 20 LINE",
"512 9 LINE",
"496 -6 LINE",
"485 -6 LINE",
"476 -6 LINE",
"467 0 LINE",
"86 0 LINE",
"86 1202 LINE",
"86 1246 LINE",
"106 1329 LINE",
"156 1394 LINE",
"239 1434 LINE",
"301 1434 LINE",
"467 1434 LINE",
"476 1440 LINE",
"485 1440 LINE",
"496 1440 LINE",
"512 1424 LINE",
"512 1413 LINE",
"512 1402 LINE",
"496 1386 LINE",
"485 1386 LINE",
"477 1386 LINE",
"467 1393 LINE",
"301 1393 LINE",
"250 1393 LINE",
"183 1360 LINE",
"143 1306 LINE",
"127 1237 LINE",
"127 1202 LINE",
"127 1024 LINE",
"408 1024 LINE",
"417 1030 LINE",
"426 1030 LINE",
"437 1030 LINE",
"453 1015 LINE",
"453 1004 LINE",
"453 993 LINE",
"437 977 LINE",
"426 977 LINE",
"417 977 LINE",
"408 983 LINE",
"127 983 LINE",
"127 41 LINE"
);
}
);
width = 547;
}
);
leftKerningGroup = A;
rightKerningGroup = AE;
unicode = 0045;
},
{
glyphname = F;
layers = (
{
layerId = UUID0;
paths = (
{
closed = 1;
nodes = (
"127 23 LINE",
"133 15 LINE",
"133 6 LINE",
"133 -5 LINE",
"117 -20 LINE",
"106 -20 LINE",
"95 -20 LINE",
"80 -5 LINE",
"80 6 LINE",
"80 15 LINE",
"86 23 LINE",
"86 1202 LINE",
"86 1246 LINE",
"106 1329 LINE",
"156 1394 LINE",
"239 1434 LINE",
"301 1434 LINE",
"467 1434 LINE",
"476 1440 LINE",
"485 1440 LINE",
"496 1440 LINE",
"512 1424 LINE",
"512 1413 LINE",
"512 1402 LINE",
"496 1386 LINE",
"485 1386 LINE",
"477 1386 LINE",
"467 1393 LINE",
"301 1393 LINE",
"250 1393 LINE",
"183 1360 LINE",
"143 1306 LINE",
"127 1237 LINE",
"127 1202 LINE",
"127 1024 LINE",
"408 1024 LINE",
"417 1030 LINE",
"426 1030 LINE",
"437 1030 LINE",
"453 1015 LINE",
"453 1004 LINE",
"453 993 LINE",
"437 977 LINE",
"426 977 LINE",
"417 977 LINE",
"408 983 LINE",
"127 983 LINE"
);
}
);
width = 524;
}
);
leftKerningGroup = A;
unicode = 0046;
},
{
glyphname = G;
layers = (
{
layerId = UUID0;
paths = (
{
closed = 1;
nodes = (
"508 207 LINE",
"508 163 LINE",
"486 81 LINE",
"436 18 LINE",
"354 -20 LINE",
"295 -20 LINE",
"234 -20 LINE",
"152 18 LINE",
"103 81 LINE",
"82 163 LINE",
"82 207 LINE",
"82 1221 LINE",
"82 1264 LINE",
"103 1348 LINE",
"152 1414 LINE",
"234 1454 LINE",
"295 1454 LINE",
"352 1454 LINE",
"431 1418 LINE",
"481 1358 LINE",
"506 1281 LINE",
"508 1239 LINE",
"511 1236 LINE",
"514 1226 LINE",
"514 1221 LINE",
"514 1210 LINE",
"498 1194 LINE",
"487 1194 LINE",
"476 1194 LINE",
"461 1210 LINE",
"461 1221 LINE",
"461 1231 LINE",
"467 1237 LINE",
"465 1270 LINE",
"446 1333 LINE",
"405 1383 LINE",
"341 1413 LINE",
"295 1413 LINE",
"246 1413 LINE",
"180 1379 LINE",
"140 1325 LINE",
"123 1256 LINE",
"123 1221 LINE",
"123 207 LINE",
"123 171 LINE",
"140 104 LINE",
"180 51 LINE",
"246 20 LINE",
"295 20 LINE",
"344 20 LINE",
"410 51 LINE",
"450 104 LINE",
"467 171 LINE",
"467 207 LINE",
"467 571 LINE",
"311 571 LINE",
"305 565 LINE",
"295 565 LINE",
"284 565 LINE",
"268 581 LINE",
"268 592 LINE",
"268 603 LINE",
"284 618 LINE",
"295 618 LINE",
"305 618 LINE",
"311 612 LINE",
"508 612 LINE"
);
}
);
width = 571;
}
);
leftKerningGroup = C;
unicode = 0047;
},
{
glyphname = H;
layers = (
{
layerId = UUID0;
paths = (
{
closed = 1;
nodes = (
"514 23 LINE",
"520 15 LINE",
"520 6 LINE",
"520 -5 LINE",
"505 -20 LINE",
"494 -20 LINE",
"483 -20 LINE",
"467 -5 LINE",
"467 6 LINE",
"467 15 LINE",
"473 23 LINE",
"473 983 LINE",
"129 983 LINE",
"129 23 LINE",
"135 15 LINE",
"135 6 LINE",
"135 -5 LINE",
"120 -20 LINE",
"109 -20 LINE",
"98 -20 LINE",
"82 -5 LINE",
"82 6 LINE",
"82 15 LINE",
"88 23 LINE",
"88 1409 LINE",
"82 1418 LINE",
"82 1427 LINE",
"82 1438 LINE",
"98 1454 LINE",
"109 1454 LINE",
"120 1454 LINE",
"135 1438 LINE",
"135 1427 LINE",
"135 1418 LINE",
"129 1409 LINE",
"129 1024 LINE",
"473 1024 LINE",
"473 1409 LINE",
"467 1418 LINE",
"467 1427 LINE",
"467 1438 LINE",
"483 1454 LINE",
"494 1454 LINE",
"505 1454 LINE",
"520 1438 LINE",
"520 1427 LINE",
"520 1418 LINE",
"514 1409 LINE"
);
}
);
width = 602;
}
);
leftKerningGroup = B;
rightKerningGroup = A;
unicode = 0048;
},
{
glyphname = I;
layers = (
{
layerId = UUID0;
paths = (
{
closed = 1;
nodes = (
"129 23 LINE",
"135 15 LINE",
"135 6 LINE",
"135 -5 LINE",
"120 -20 LINE",
"109 -20 LINE",
"98 -20 LINE",
"82 -5 LINE",
"82 6 LINE",
"82 15 LINE",
"88 23 LINE",
"88 1409 LINE",
"82 1418 LINE",
"82 1427 LINE",
"82 1438 LINE",
"98 1454 LINE",
"109 1454 LINE",
"120 1454 LINE",
"135 1438 LINE",
"135 1427 LINE",
"135 1418 LINE",
"129 1409 LINE"
);
}
);
width = 217;
}
);
leftKerningGroup = B;
rightKerningGroup = A;
unicode = 0049;
},
{
glyphname = J;
layers = (
{
layerId = UUID0;
paths = (
{
closed = 1;
nodes = (
"436 207 LINE",
"436 163 LINE",
"415 81 LINE",
"365 18 LINE",
"284 -20 LINE",
"223 -20 LINE",
"166 -20 LINE",
"87 14 LINE",
"37 71 LINE",
"12 147 LINE",
"10 188 LINE",
"7 192 LINE",
"4 202 LINE",
"4 207 LINE",
"4 218 LINE",
"20 233 LINE",
"31 233 LINE",
"42 233 LINE",
"57 218 LINE",
"57 207 LINE",
"57 202 LINE",
"54 192 LINE",
"51 188 LINE",
"52 154 LINE",
"72 93 LINE",
"113 47 LINE",
"177 20 LINE",
"223 20 LINE",
"272 20 LINE",
"338 51 LINE",
"378 104 LINE",
"395 171 LINE",
"395 207 LINE",
"395 1409 LINE",
"392 1412 LINE",
"389 1422 LINE",
"389 1427 LINE",
"389 1438 LINE",
"406 1454 LINE",
"416 1454 LINE",
"427 1454 LINE",
"442 1438 LINE",
"442 1427 LINE",
"442 1422 LINE",
"439 1412 LINE",
"436 1409 LINE"
);
}
);
width = 522;
}
);
unicode = 004A;
},
{
glyphname = K;
layers = (
{
layerId = UUID0;
paths = (
{
closed = 1;
nodes = (
"514 23 LINE",
"520 15 LINE",
"520 6 LINE",
"520 -5 LINE",
"505 -20 LINE",
"494 -20 LINE",
"483 -20 LINE",
"467 -5 LINE",
"467 6 LINE",
"467 15 LINE",
"473 23 LINE",
"473 793 LINE",
"473 828 LINE",
"456 897 LINE",
"416 951 LINE",
"350 985 LINE",
"301 985 LINE",
"129 985 LINE",
"129 23 LINE",
"135 15 LINE",
"135 6 LINE",
"135 -5 LINE",
"120 -20 LINE",
"109 -20 LINE",
"98 -20 LINE",
"82 -5 LINE",
"82 6 LINE",
"82 15 LINE",
"88 23 LINE",
"88 1409 LINE",
"82 1418 LINE",
"82 1427 LINE",
"82 1438 LINE",
"98 1454 LINE",
"109 1454 LINE",
"120 1454 LINE",
"135 1438 LINE",
"135 1427 LINE",
"135 1418 LINE",
"129 1409 LINE",
"129 1024 LINE",
"457 1425 LINE",
"457 1427 LINE",
"457 1438 LINE",
"472 1454 LINE",
"483 1454 LINE",
"494 1454 LINE",
"510 1438 LINE",
"510 1427 LINE",
"510 1418 LINE",
"497 1403 LINE",
"487 1401 LINE",
"180 1024 LINE",
"301 1024 LINE",
"360 1024 LINE",
"442 984 LINE",
"492 919 LINE",
"514 835 LINE",
"514 791 LINE"
);
}
);
width = 586;
}
);
leftKerningGroup = B;
unicode = 004B;
},
{
glyphname = L;
layers = (
{
layerId = UUID0;
paths = (
{
closed = 1;
nodes = (
"483 41 LINE",
"492 47 LINE",
"502 47 LINE",
"513 47 LINE",
"528 31 LINE",
"528 20 LINE",
"528 9 LINE",
"513 -6 LINE",
"502 -6 LINE",
"492 -6 LINE",
"483 0 LINE",
"88 0 LINE",
"88 1409 LINE",
"82 1418 LINE",
"82 1427 LINE",
"82 1438 LINE",
"98 1454 LINE",
"109 1454 LINE",
"120 1454 LINE",
"135 1438 LINE",
"135 1427 LINE",
"135 1418 LINE",
"129 1409 LINE",
"129 41 LINE"
);
}
);
width = 535;
}
);
leftKerningGroup = B;
unicode = 004C;
},
{
glyphname = M;
layers = (
{
layerId = UUID0;
paths = (
{
closed = 1;
nodes = (
"645 23 LINE",
"651 15 LINE",
"651 6 LINE",
"651 -5 LINE",
"636 -20 LINE",
"625 -20 LINE",
"614 -20 LINE",
"598 -5 LINE",
"598 6 LINE",
"598 15 LINE",
"604 23 LINE",
"604 1350 LINE",
"387 983 LINE",
"344 983 LINE",
"129 1348 LINE",
"129 23 LINE",
"135 15 LINE",
"135 6 LINE",
"135 -5 LINE",
"120 -20 LINE",
"109 -20 LINE",
"98 -20 LINE",
"82 -5 LINE",
"82 6 LINE",
"82 15 LINE",
"88 23 LINE",
"88 1409 LINE",
"82 1418 LINE",
"82 1427 LINE",
"82 1438 LINE",
"98 1454 LINE",
"109 1454 LINE",
"120 1454 LINE",
"135 1438 LINE",
"135 1427 LINE",
"135 1421 LINE",
"133 1419 LINE",
"367 1024 LINE",
"598 1419 LINE",
"598 1427 LINE",
"598 1438 LINE",
"614 1454 LINE",
"625 1454 LINE",
"636 1454 LINE",
"651 1438 LINE",
"651 1427 LINE",
"651 1418 LINE",
"645 1409 LINE"
);
}
);
width = 733;
}
);
leftKerningGroup = B;
rightKerningGroup = A;
unicode = 004D;
},
{
glyphname = N;
layers = (
{
layerId = UUID0;
paths = (
{
closed = 1;
nodes = (
"514 23 LINE",
"520 15 LINE",
"520 6 LINE",
"520 -5 LINE",
"505 -20 LINE",
"494 -20 LINE",
"483 -20 LINE",
"467 -5 LINE",
"467 6 LINE",
"467 15 LINE",
"473 23 LINE",
"473 1376 LINE",
"129 1010 LINE",
"129 23 LINE",
"135 15 LINE",
"135 6 LINE",
"135 -5 LINE",
"120 -20 LINE",
"109 -20 LINE",
"98 -20 LINE",
"82 -5 LINE",
"82 6 LINE",
"82 15 LINE",
"88 23 LINE",
"88 1409 LINE",
"82 1418 LINE",
"82 1427 LINE",
"82 1438 LINE",
"98 1454 LINE",
"109 1454 LINE",
"120 1454 LINE",
"135 1438 LINE",
"135 1427 LINE",
"135 1418 LINE",
"129 1409 LINE",
"129 1067 LINE",
"473 1434 LINE",
"514 1434 LINE"
);
}
);
width = 602;
}
);
leftKerningGroup = B;
rightKerningGroup = A;
unicode = 004E;
},
{
glyphname = O;
layers = (
{
layerId = UUID0;
paths = (
{
closed = 1;
nodes = (
"123 207 LINE",
"123 171 LINE",
"140 104 LINE",
"180 51 LINE",
"246 20 LINE",
"295 20 LINE",
"344 20 LINE",
"410 51 LINE",
"450 104 LINE",
"467 171 LINE",
"467 207 LINE",
"467 1221 LINE",
"467 1256 LINE",
"450 1325 LINE",
"410 1379 LINE",
"344 1413 LINE",
"295 1413 LINE",
"246 1413 LINE",
"180 1379 LINE",
"140 1325 LINE",
"123 1256 LINE",
"123 1221 LINE"
);
},
{
closed = 1;
nodes = (
"508 207 LINE",
"508 163 LINE",
"486 81 LINE",
"436 18 LINE",
"354 -20 LINE",
"295 -20 LINE",
"234 -20 LINE",
"152 18 LINE",
"103 81 LINE",
"82 163 LINE",
"82 207 LINE",
"82 1221 LINE",
"82 1264 LINE",
"103 1348 LINE",
"152 1414 LINE",
"234 1454 LINE",
"295 1454 LINE",
"354 1454 LINE",
"436 1414 LINE",
"486 1348 LINE",
"508 1264 LINE",
"508 1221 LINE"
);
}
);
width = 590;
}
);
leftKerningGroup = C;
rightKerningGroup = Ograve;
unicode = 004F;
},
{
glyphname = Oslash;
layers = (
{
layerId = UUID0;
paths = (
{
closed = 1;
nodes = (
"508 207 LINE",
"508 163 LINE",
"486 81 LINE",
"436 18 LINE",
"354 -20 LINE",
"295 -20 LINE",
"234 -20 LINE",
"152 18 LINE",
"103 81 LINE",
"92 122 LINE",
"91 128 LINE",
"89 133 LINE",
"8 -76 LINE",
"10 -79 LINE",
"12 -85 LINE",
"12 -90 LINE",
"10 -101 LINE",
"-7 -115 LINE",
"-18 -115 LINE",
"-29 -113 LINE",
"-43 -95 LINE",
"-41 -84 LINE",
"-38 -69 LINE",
"-25 -61 LINE",
"82 214 LINE",
"82 1221 LINE",
"82 1264 LINE",
"103 1348 LINE",
"152 1414 LINE",
"234 1454 LINE",
"295 1454 LINE",
"354 1454 LINE",
"436 1414 LINE",
"486 1348 LINE",
"497 1306 LINE",
"499 1299 LINE",
"500 1292 LINE",
"586 1513 LINE",
"582 1522 LINE",
"584 1526 LINE",
"586 1537 LINE",
"603 1550 LINE",
"614 1548 LINE",
"625 1548 LINE",
"639 1531 LINE",
"637 1520 LINE",
"634 1503 LINE",
"621 1497 LINE",
"508 1207 LINE"
);
},
{
closed = 1;
nodes = (
"467 1221 LINE",
"467 1256 LINE",
"450 1325 LINE",
"410 1379 LINE",
"344 1413 LINE",
"295 1413 LINE",
"246 1413 LINE",
"180 1379 LINE",
"140 1325 LINE",
"123 1256 LINE",
"123 1221 LINE",
"123 320 LINE",
"467 1206 LINE"
);
},
{
closed = 1;
nodes = (
"123 207 LINE",
"123 171 LINE",
"140 104 LINE",
"180 51 LINE",
"246 20 LINE",
"295 20 LINE",
"344 20 LINE",
"410 51 LINE",
"450 104 LINE",
"467 171 LINE",
"467 207 LINE",
"467 1102 LINE",
"123 219 LINE"
);
}
);
width = 596;
}
);
leftKerningGroup = C;
rightKerningGroup = Ograve;
unicode = 00D8;
},
{
glyphname = P;
layers = (
{
layerId = UUID0;
paths = (
{
closed = 1;
nodes = (
"129 23 LINE",
"135 15 LINE",
"135 6 LINE",
"135 -5 LINE",
"120 -20 LINE",
"109 -20 LINE",
"98 -20 LINE",
"82 -5 LINE",
"82 6 LINE",
"82 15 LINE",
"88 23 LINE",
"88 1434 LINE",
"307 1434 LINE",
"368 1434 LINE",
"449 1394 LINE",
"499 1328 LINE",
"520 1244 LINE",
"520 1200 LINE",
"520 637 LINE",
"520 593 LINE",
"499 511 LINE",
"449 448 LINE",
"368 410 LINE",
"307 410 LINE",
"129 410 LINE"
);
},
{
closed = 1;
nodes = (
"307 451 LINE",
"356 451 LINE",
"422 482 LINE",
"462 534 LINE",
"479 601 LINE",
"479 637 LINE",
"479 1200 LINE",
"479 1235 LINE",
"462 1304 LINE",
"422 1359 LINE",
"356 1393 LINE",
"307 1393 LINE",
"129 1393 LINE",
"129 451 LINE"
);
}
);
width = 573;
}
);
leftKerningGroup = B;
unicode = 0050;
},
{
glyphname = Thorn;
layers = (
{
layerId = UUID0;
paths = (
{
closed = 1;
nodes = (
"129 23 LINE",
"135 15 LINE",
"135 6 LINE",
"135 -5 LINE",
"120 -20 LINE",
"109 -20 LINE",
"98 -20 LINE",
"82 -5 LINE",
"82 6 LINE",
"82 15 LINE",
"88 23 LINE",
"88 1409 LINE",
"82 1418 LINE",
"82 1427 LINE",
"82 1438 LINE",
"98 1454 LINE",
"109 1454 LINE",
"120 1454 LINE",
"135 1438 LINE",
"135 1427 LINE",
"135 1418 LINE",
"129 1409 LINE",
"129 1239 LINE",
"307 1239 LINE",
"368 1239 LINE",
"449 1199 LINE",
"499 1133 LINE",
"520 1049 LINE",
"520 1006 LINE",
"520 637 LINE",
"520 593 LINE",
"499 511 LINE",
"449 448 LINE",
"368 410 LINE",
"307 410 LINE",
"129 410 LINE"
);
},
{
closed = 1;
nodes = (
"307 451 LINE",
"356 451 LINE",
"422 482 LINE",
"462 534 LINE",
"479 601 LINE",
"479 637 LINE",
"479 1006 LINE",
"479 1041 LINE",
"462 1110 LINE",
"422 1164 LINE",
"356 1198 LINE",
"307 1198 LINE",
"129 1198 LINE",
"129 451 LINE"
);
}
);
width = 561;
}
);
leftKerningGroup = B;
unicode = 00DE;
},
{
glyphname = Q;
layers = (
{
layerId = UUID0;
paths = (
{
closed = 1;
nodes = (
"504 33 LINE",
"515 33 LINE",
"530 17 LINE",
"530 6 LINE",
"530 -5 LINE",
"515 -20 LINE",
"504 -20 LINE",
"493 -20 LINE",
"479 -7 LINE",
"477 2 LINE",
"444 33 LINE",
"420 8 LINE",
"346 -20 LINE",
"295 -20 LINE",
"234 -20 LINE",
"152 18 LINE",
"103 81 LINE",
"82 163 LINE",
"82 207 LINE",
"82 1221 LINE",
"82 1264 LINE",
"103 1348 LINE",
"152 1414 LINE",
"234 1454 LINE",
"295 1454 LINE",
"354 1454 LINE",
"436 1414 LINE",
"486 1348 LINE",
"508 1264 LINE",
"508 1221 LINE",
"508 207 LINE",
"508 169 LINE",
"490 95 LINE",
"471 66 LINE"
);
},
{
closed = 1;
nodes = (
"440 94 LINE",
"454 119 LINE",
"467 176 LINE",
"467 207 LINE",
"467 1221 LINE",
"467 1256 LINE",
"450 1325 LINE",
"410 1379 LINE",
"344 1413 LINE",
"295 1413 LINE",
"246 1413 LINE",
"180 1379 LINE",
"140 1325 LINE",
"123 1256 LINE",
"123 1221 LINE",
"123 207 LINE",
"123 171 LINE",
"140 104 LINE",
"180 51 LINE",
"246 20 LINE",
"295 20 LINE",
"337 20 LINE",
"396 43 LINE",
"416 61 LINE",
"293 186 LINE",
"282 186 LINE",
"268 202 LINE",
"268 213 LINE",
"268 224 LINE",
"284 240 LINE",
"295 240 LINE",
"304 240 LINE",
"320 224 LINE",
"322 215 LINE"
);
}
);
width = 590;
}
);
leftKerningGroup = C;
rightKerningGroup = Ograve;
unicode = 0051;
},
{
glyphname = R;
layers = (
{
layerId = UUID0;
paths = (
{
closed = 1;
nodes = (
"500 31 LINE",
"507 29 LINE",
"514 20 LINE",
"520 11 LINE",
"515 -10 LINE",
"504 -16 LINE",
"496 -23 LINE",
"474 -16 LINE",
"469 -8 LINE",
"466 -3 LINE",
"465 5 LINE",
"465 10 LINE",
"229 410 LINE",
"129 410 LINE",
"129 23 LINE",
"135 15 LINE",
"135 6 LINE",
"135 -5 LINE",
"120 -20 LINE",
"109 -20 LINE",
"98 -20 LINE",
"82 -5 LINE",
"82 6 LINE",
"82 15 LINE",
"88 23 LINE",
"88 1434 LINE",
"307 1434 LINE",
"368 1434 LINE",
"449 1394 LINE",
"499 1328 LINE",
"520 1244 LINE",
"520 1200 LINE",
"520 637 LINE",
"520 593 LINE",
"499 511 LINE",
"449 448 LINE",
"368 410 LINE",
"307 410 LINE",
"276 410 LINE"
);
},
{
closed = 1;
nodes = (
"307 451 LINE",
"356 451 LINE",
"422 482 LINE",
"462 534 LINE",
"479 601 LINE",
"479 637 LINE",
"479 1200 LINE",
"479 1235 LINE",
"462 1304 LINE",
"422 1359 LINE",
"356 1393 LINE",
"307 1393 LINE",
"129 1393 LINE",
"129 451 LINE"
);
}
);
width = 582;
}
);
leftKerningGroup = B;
unicode = 0052;
},
{
glyphname = S;
layers = (
{
layerId = UUID0;
paths = (
{
closed = 1;
nodes = (
"487 207 LINE",
"487 163 LINE",
"465 81 LINE",
"415 18 LINE",
"333 -20 LINE",
"272 -20 LINE",
"215 -20 LINE",
"137 14 LINE",
"86 71 LINE",
"62 147 LINE",
"59 188 LINE",
"56 192 LINE",
"53 202 LINE",
"53 207 LINE",
"53 218 LINE",
"69 233 LINE",
"80 233 LINE",
"91 233 LINE",
"106 218 LINE",
"106 207 LINE",
"106 202 LINE",
"103 192 LINE",
"100 188 LINE",
"101 154 LINE",
"121 93 LINE",
"162 47 LINE",
"226 20 LINE",
"272 20 LINE",
"321 20 LINE",
"388 51 LINE",
"428 104 LINE",
"446 171 LINE",
"446 207 LINE",
"446 463 LINE",
"446 515 LINE",
"405 610 LINE",
"367 645 LINE",
"127 858 LINE",
"102 880 LINE",
"72 927 LINE",
"56 973 LINE",
"51 1020 LINE",
"51 1044 LINE",
"51 1221 LINE",
"51 1264 LINE",
"73 1348 LINE",
"123 1414 LINE",
"205 1454 LINE",
"266 1454 LINE",
"323 1454 LINE",
"402 1418 LINE",
"452 1358 LINE",
"477 1281 LINE",
"479 1239 LINE",
"482 1236 LINE",
"485 1226 LINE",
"485 1221 LINE",
"485 1210 LINE",
"470 1194 LINE",
"459 1194 LINE",
"448 1194 LINE",
"432 1210 LINE",
"432 1221 LINE",
"432 1231 LINE",
"438 1237 LINE",
"436 1270 LINE",
"417 1333 LINE",
"376 1383 LINE",
"312 1413 LINE",
"266 1413 LINE",
"217 1413 LINE",
"150 1379 LINE",
"110 1325 LINE",
"92 1256 LINE",
"92 1221 LINE",
"92 1044 LINE",
"94 993 LINE",
"121 914 LINE",
"156 883 LINE",
"397 670 LINE",
"451 620 LINE",
"487 514 LINE",
"487 463 LINE"
);
}
);
width = 545;
}
);
unicode = 0053;
},
{
glyphname = T;
layers = (
{
layerId = UUID0;
paths = (
{
closed = 1;
nodes = (
"260 23 LINE",
"266 15 LINE",
"266 6 LINE",
"266 -5 LINE",
"251 -20 LINE",
"240 -20 LINE",
"229 -20 LINE",
"213 -5 LINE",
"213 6 LINE",
"213 15 LINE",
"219 23 LINE",
"219 1393 LINE",
"63 1393 LINE",
"56 1386 LINE",
"47 1386 LINE",
"36 1386 LINE",
"20 1402 LINE",
"20 1413 LINE",
"20 1424 LINE",
"36 1440 LINE",
"47 1440 LINE",
"57 1440 LINE",
"63 1434 LINE",
"414 1434 LINE",
"423 1440 LINE",
"432 1440 LINE",
"443 1440 LINE",
"459 1424 LINE",
"459 1413 LINE",
"459 1402 LINE",
"443 1386 LINE",
"432 1386 LINE",
"424 1386 LINE",
"414 1393 LINE",
"260 1393 LINE"
);
}
);
width = 479;
}
);
unicode = 0054;
},
{
glyphname = U;
layers = (
{
layerId = UUID0;
paths = (
{
closed = 1;
nodes = (
"512 213 LINE",
"512 169 LINE",
"490 85 LINE",
"440 20 LINE",
"358 -20 LINE",
"299 -20 LINE",
"238 -20 LINE",
"156 20 LINE",
"107 85 LINE",
"86 169 LINE",
"86 213 LINE",
"86 1409 LINE",
"80 1418 LINE",
"80 1427 LINE",
"80 1438 LINE",
"95 1454 LINE",
"106 1454 LINE",
"117 1454 LINE",
"133 1438 LINE",
"133 1427 LINE",
"133 1418 LINE",
"127 1409 LINE",
"127 213 LINE",
"127 178 LINE",
"144 109 LINE",
"184 54 LINE",
"250 20 LINE",
"299 20 LINE",
"348 20 LINE",
"414 54 LINE",
"454 109 LINE",
"471 178 LINE",
"471 213 LINE",
"471 1409 LINE",
"465 1418 LINE",
"465 1427 LINE",
"465 1438 LINE",
"481 1454 LINE",
"492 1454 LINE",
"503 1454 LINE",
"518 1438 LINE",
"518 1427 LINE",
"518 1418 LINE",
"512 1409 LINE"
);
}
);
width = 598;
}
);
leftKerningGroup = Ugrave;
rightKerningGroup = Ugrave;
unicode = 0055;
},
{
glyphname = V;
layers = (
{
layerId = UUID0;
paths = (
{
closed = 1;
nodes = (
"291 20 LINE",
"295 12 LINE",
"295 6 LINE",
"295 -5 LINE",
"279 -20 LINE",
"268 -20 LINE",
"257 -20 LINE",
"242 -5 LINE",
"242 6 LINE",
"242 9 LINE",
"243 17 LINE",
"246 20 LINE",
"33 1407 LINE",
"25 1415 LINE",
"25 1427 LINE",
"25 1438 LINE",
"40 1454 LINE",
"51 1454 LINE",
"62 1454 LINE",
"78 1438 LINE",
"78 1427 LINE",
"78 1422 LINE",
"76 1416 LINE",
"74 1413 LINE",
"268 145 LINE",
"463 1413 LINE",
"460 1416 LINE",
"459 1422 LINE",
"459 1427 LINE",
"459 1438 LINE",
"474 1454 LINE",
"485 1454 LINE",
"496 1454 LINE",
"512 1438 LINE",
"512 1427 LINE",
"512 1421 LINE",
"507 1412 LINE",
"504 1407 LINE"
);
}
);
width = 537;
}
);
leftKerningGroup = W;
rightKerningGroup = W;
unicode = 0056;
},
{
glyphname = W;
layers = (
{
layerId = UUID0;
paths = (
{
closed = 1;
nodes = (
"725 20 LINE",
"729 12 LINE",
"729 6 LINE",
"729 -5 LINE",
"713 -20 LINE",
"702 -20 LINE",
"691 -20 LINE",
"676 -5 LINE",
"676 6 LINE",
"676 9 LINE",
"677 17 LINE",
"680 20 LINE",
"485 1288 LINE",
"291 20 LINE",
"295 12 LINE",
"295 6 LINE",
"295 -5 LINE",
"279 -20 LINE",
"268 -20 LINE",
"257 -20 LINE",
"242 -5 LINE",
"242 6 LINE",
"242 9 LINE",
"243 17 LINE",
"246 20 LINE",
"33 1407 LINE",
"25 1415 LINE",
"25 1427 LINE",
"25 1438 LINE",
"40 1454 LINE",
"51 1454 LINE",
"62 1454 LINE",
"78 1438 LINE",
"78 1427 LINE",
"78 1422 LINE",
"76 1416 LINE",
"74 1413 LINE",
"268 145 LINE",
"463 1413 LINE",
"460 1416 LINE",
"459 1422 LINE",
"459 1427 LINE",
"459 1438 LINE",
"474 1454 LINE",
"485 1454 LINE",
"496 1454 LINE",
"512 1438 LINE",
"512 1427 LINE",
"512 1422 LINE",
"510 1416 LINE",
"508 1413 LINE",
"702 145 LINE",
"897 1413 LINE",
"894 1416 LINE",
"893 1422 LINE",
"893 1427 LINE",
"893 1438 LINE",
"909 1454 LINE",
"920 1454 LINE",
"931 1454 LINE",
"946 1438 LINE",
"946 1427 LINE",
"946 1421 LINE",
"941 1412 LINE",
"938 1407 LINE"
);
}
);
width = 971;
}
);
leftKerningGroup = W;
rightKerningGroup = W;
unicode = 0057;
},
{
glyphname = X;
layers = (
{
layerId = UUID0;
paths = (
{
closed = 1;
nodes = (
"494 27 LINE",
"500 24 LINE",
"506 12 LINE",
"506 6 LINE",
"506 -5 LINE",
"490 -20 LINE",
"479 -20 LINE",
"468 -20 LINE",
"453 -5 LINE",
"453 6 LINE",
"453 14 LINE",
"256 668 LINE",
"59 14 LINE",
"61 10 LINE",
"61 6 LINE",
"61 -5 LINE",
"46 -20 LINE",
"35 -20 LINE",
"24 -20 LINE",
"8 -5 LINE",
"8 6 LINE",
"8 20 LINE",
"18 27 LINE",
"233 741 LINE",
"35 1405 LINE",
"25 1415 LINE",
"25 1427 LINE",
"25 1438 LINE",
"40 1454 LINE",
"51 1454 LINE",
"62 1454 LINE",
"78 1438 LINE",
"78 1427 LINE",
"78 1424 LINE",
"76 1419 LINE",
"76 1417 LINE",
"256 815 LINE",
"438 1417 LINE",
"436 1419 LINE",
"436 1427 LINE",
"436 1438 LINE",
"452 1454 LINE",
"463 1454 LINE",
"474 1454 LINE",
"489 1438 LINE",
"489 1427 LINE",
"489 1415 LINE",
"479 1405 LINE",
"279 741 LINE"
);
}
);
width = 512;
}
);
unicode = 0058;
},
{
glyphname = Y;
layers = (
{
layerId = UUID0;
paths = (
{
closed = 1;
nodes = (
"272 23 LINE",
"279 14 LINE",
"279 6 LINE",
"279 -5 LINE",
"263 -20 LINE",
"252 -20 LINE",
"241 -20 LINE",
"225 -5 LINE",
"225 6 LINE",
"225 15 LINE",
"231 23 LINE",
"231 1024 LINE",
"25 1403 LINE",
"8 1409 LINE",
"8 1427 LINE",
"8 1438 LINE",
"24 1454 LINE",
"35 1454 LINE",
"46 1454 LINE",
"61 1438 LINE",
"61 1427 LINE",
"61 1421 LINE",
"59 1417 LINE",
"248 1073 LINE",
"254 1073 LINE",
"442 1417 LINE",
"442 1427 LINE",
"442 1438 LINE",
"458 1454 LINE",
"469 1454 LINE",
"480 1454 LINE",
"496 1438 LINE",
"496 1427 LINE",
"496 1418 LINE",
"485 1406 LINE",
"479 1403 LINE",
"272 1024 LINE"
);
}
);
width = 502;
}
);
leftKerningGroup = Yacute;
rightKerningGroup = Yacute;
unicode = 0059;
},
{
glyphname = Z;
layers = (
{
layerId = UUID0;
paths = (
{
closed = 1;
nodes = (
"416 41 LINE",
"425 47 LINE",
"434 47 LINE",
"445 47 LINE",
"461 31 LINE",
"461 20 LINE",
"461 9 LINE",
"445 -6 LINE",
"434 -6 LINE",
"425 -6 LINE",
"416 0 LINE",
"27 0 LINE",
"27 41 LINE",
"418 1393 LINE",
"70 1393 LINE",
"63 1386 LINE",
"53 1386 LINE",
"42 1386 LINE",
"27 1402 LINE",
"27 1413 LINE",
"27 1424 LINE",
"42 1440 LINE",
"53 1440 LINE",
"64 1440 LINE",
"70 1434 LINE",
"461 1434 LINE",
"461 1393 LINE",
"70 41 LINE"
);
}
);
width = 489;
}
);
unicode = 005A;
},
{
glyphname = a;
layers = (
{
layerId = UUID0;
paths = (
{
closed = 1;
nodes = (
"485 23 LINE",
"492 14 LINE",
"492 6 LINE",
"492 -5 LINE",
"476 -20 LINE",
"465 -20 LINE",
"454 -20 LINE",
"438 -5 LINE",
"438 6 LINE",
"438 15 LINE",
"444 23 LINE",
"444 66 LINE",
"417 27 LINE",
"336 -20 LINE",
"274 -20 LINE",
"214 -20 LINE",
"133 21 LINE",
"84 87 LINE",
"63 171 LINE",
"63 215 LINE",
"63 381 LINE",
"63 425 LINE",
"82 509 LINE",
"137 575 LINE",
"240 616 LINE",
"324 616 LINE",
"444 616 LINE",
"444 809 LINE",
"444 844 LINE",
"427 914 LINE",
"388 969 LINE",
"322 1004 LINE",
"274 1004 LINE",
"228 1004 LINE",
"164 973 LINE",
"123 924 LINE",
"103 860 LINE",
"102 827 LINE",
"109 820 LINE",
"109 811 LINE",
"109 802 LINE",
"93 786 LINE",
"82 786 LINE",
"71 786 LINE",
"55 802 LINE",
"55 811 LINE",
"55 816 LINE",
"58 826 LINE",
"61 829 LINE",
"64 871 LINE",
"88 948 LINE",
"139 1008 LINE",
"217 1044 LINE",
"274 1044 LINE",
"334 1044 LINE",
"415 1003 LINE",
"464 937 LINE",
"485 853 LINE",
"485 809 LINE"
);
},
{
closed = 1;
nodes = (
"104 215 LINE",
"104 180 LINE",
"120 110 LINE",
"159 54 LINE",
"224 20 LINE",
"274 20 LINE",
"322 20 LINE",
"386 51 LINE",
"425 102 LINE",
"442 167 LINE",
"444 201 LINE",
"444 575 LINE",
"324 575 LINE",
"252 575 LINE",
"165 541 LINE",
"118 486 LINE",
"104 416 LINE",
"104 381 LINE"
);
}
);
width = 563;
}
);
leftKerningGroup = a;
rightKerningGroup = a;
unicode = 0061;
},
{
glyphname = ae;
layers = (
{
layerId = UUID0;
paths = (
{
closed = 1;
nodes = (
"866 575 LINE",
"485 575 LINE",
"485 215 LINE",
"485 179 LINE",
"502 109 LINE",
"541 54 LINE",
"607 20 LINE",
"655 20 LINE",
"702 20 LINE",
"766 50 LINE",
"805 99 LINE",
"823 163 LINE",
"825 197 LINE",
"822 200 LINE",
"819 210 LINE",
"819 213 LINE",
"819 224 LINE",
"835 240 LINE",
"846 240 LINE",
"857 240 LINE",
"872 224 LINE",
"872 213 LINE",
"872 210 LINE",
"869 200 LINE",
"866 197 LINE",
"864 155 LINE",
"841 77 LINE",
"792 17 LINE",
"713 -20 LINE",
"655 -20 LINE",
"615 -20 LINE",
"554 -2 LINE",
"507 30 LINE",
"475 73 LINE",
"465 98 LINE",
"442 49 LINE",
"348 -20 LINE",
"274 -20 LINE",
"214 -20 LINE",
"133 21 LINE",
"84 87 LINE",
"63 171 LINE",
"63 215 LINE",
"63 381 LINE",
"63 425 LINE",
"82 509 LINE",
"137 575 LINE",
"240 616 LINE",
"324 616 LINE",
"444 616 LINE",
"444 809 LINE",
"444 844 LINE",
"427 914 LINE",
"388 969 LINE",
"322 1004 LINE",
"274 1004 LINE",
"228 1004 LINE",
"164 973 LINE",
"123 924 LINE",
"103 860 LINE",
"102 827 LINE",
"109 820 LINE",
"109 811 LINE",
"109 802 LINE",
"93 786 LINE",
"82 786 LINE",
"71 786 LINE",
"55 802 LINE",
"55 811 LINE",
"55 816 LINE",
"58 826 LINE",
"61 829 LINE",
"64 871 LINE",
"88 948 LINE",
"139 1008 LINE",
"217 1044 LINE",
"274 1044 LINE",
"353 1044 LINE",
"443 976 LINE",
"465 924 LINE",
"475 950 LINE",
"507 994 LINE",
"554 1026 LINE",
"615 1044 LINE",
"655 1044 LINE",
"715 1044 LINE",
"796 1003 LINE",
"845 937 LINE",
"866 853 LINE",
"866 809 LINE"
);
},
{
closed = 1;
nodes = (
"104 215 LINE",
"104 180 LINE",
"120 110 LINE",
"159 54 LINE",
"224 20 LINE",
"274 20 LINE",
"322 20 LINE",
"386 51 LINE",
"425 102 LINE",
"442 167 LINE",
"444 201 LINE",
"444 575 LINE",
"324 575 LINE",
"252 575 LINE",
"165 541 LINE",
"118 486 LINE",
"104 416 LINE",
"104 381 LINE"
);
},
{
closed = 1;
nodes = (
"825 616 LINE",
"825 809 LINE",
"825 844 LINE",
"809 914 LINE",
"770 969 LINE",
"704 1004 LINE",
"655 1004 LINE",
"609 1004 LINE",
"545 973 LINE",
"505 922 LINE",
"486 857 LINE",
"485 823 LINE",
"485 616 LINE"
);
}
);
width = 928;
}
);
leftKerningGroup = a;
rightKerningGroup = e;
unicode = 00E6;
},
{
glyphname = b;
layers = (
{
layerId = UUID0;
paths = (
{
closed = 1;
nodes = (
"504 215 LINE",
"504 171 LINE",
"484 87 LINE",
"435 21 LINE",
"354 -20 LINE",
"293 -20 LINE",
"231 -20 LINE",
"151 27 LINE",
"123 66 LINE",
"123 23 LINE",
"129 15 LINE",
"129 6 LINE",
"129 -5 LINE",
"113 -20 LINE",
"102 -20 LINE",
"91 -20 LINE",
"76 -5 LINE",
"76 6 LINE",
"76 15 LINE",
"82 23 LINE",
"82 1409 LINE",
"76 1418 LINE",
"76 1427 LINE",
"76 1438 LINE",
"91 1454 LINE",
"102 1454 LINE",
"113 1454 LINE",
"129 1438 LINE",
"129 1427 LINE",
"129 1418 LINE",
"123 1409 LINE",
"123 949 LINE",
"151 997 LINE",
"231 1044 LINE",
"293 1044 LINE",
"354 1044 LINE",
"435 1003 LINE",
"484 937 LINE",
"504 853 LINE",
"504 809 LINE"
);
},
{
closed = 1;
nodes = (
"123 215 LINE",
"123 181 LINE",
"140 112 LINE",
"180 56 LINE",
"245 20 LINE",
"293 20 LINE",
"343 20 LINE",
"408 54 LINE",
"447 110 LINE",
"463 180 LINE",
"463 215 LINE",
"463 809 LINE",
"463 844 LINE",
"447 914 LINE",
"408 969 LINE",
"343 1004 LINE",
"293 1004 LINE",
"250 1004 LINE",
"186 969 LINE",
"144 914 LINE",
"123 844 LINE",
"123 809 LINE"
);
}
);
width = 573;
}
);
leftKerningGroup = b;
rightKerningGroup = b;
unicode = 0062;
},
{
glyphname = c;
layers = (
{
layerId = UUID0;
paths = (
{
closed = 1;
nodes = (
"113 215 LINE",
"113 179 LINE",
"130 109 LINE",
"169 54 LINE",
"235 20 LINE",
"283 20 LINE",
"329 20 LINE",
"393 49 LINE",
"434 98 LINE",
"453 161 LINE",
"455 195 LINE",
"452 198 LINE",
"449 208 LINE",
"449 213 LINE",
"449 222 LINE",
"464 238 LINE",
"475 238 LINE",
"486 238 LINE",
"502 223 LINE",
"502 213 LINE",
"502 208 LINE",
"499 198 LINE",
"496 195 LINE",
"493 153 LINE",
"469 76 LINE",
"418 16 LINE",
"340 -20 LINE",
"283 -20 LINE",
"223 -20 LINE",
"142 21 LINE",
"93 87 LINE",
"72 171 LINE",
"72 215 LINE",
"72 809 LINE",
"72 853 LINE",
"93 937 LINE",
"142 1003 LINE",
"223 1044 LINE",
"283 1044 LINE",
"340 1044 LINE",
"418 1008 LINE",
"469 948 LINE",
"493 871 LINE",
"496 829 LINE",
"499 826 LINE",
"502 816 LINE",
"502 811 LINE",
"502 800 LINE",
"486 786 LINE",
"475 786 LINE",
"464 786 LINE",
"449 800 LINE",
"449 811 LINE",
"449 821 LINE",
"455 827 LINE",
"453 860 LINE",
"434 924 LINE",
"393 973 LINE",
"329 1004 LINE",
"283 1004 LINE",
"235 1004 LINE",
"169 969 LINE",
"130 914 LINE",
"113 844 LINE",
"113 809 LINE"
);
}
);
width = 539;
}
);
leftKerningGroup = c;
rightKerningGroup = c;
unicode = 0063;
},
{
glyphname = eth;
layers = (
{
layerId = UUID0;
paths = (
{
closed = 1;
nodes = (
"494 215 LINE",
"494 171 LINE",
"473 87 LINE",
"423 21 LINE",
"343 -20 LINE",
"283 -20 LINE",
"223 -20 LINE",
"142 21 LINE",
"93 87 LINE",
"72 171 LINE",
"72 215 LINE",
"72 809 LINE",
"72 853 LINE",
"93 937 LINE",
"142 1003 LINE",
"223 1044 LINE",
"283 1044 LINE",
"320 1044 LINE",
"376 1028 LINE",
"399 1014 LINE",
"338 1202 LINE",
"248 1171 LINE",
"241 1161 LINE",
"227 1161 LINE",
"216 1161 LINE",
"201 1177 LINE",
"201 1188 LINE",
"201 1199 LINE",
"216 1214 LINE",
"227 1214 LINE",
"229 1214 LINE",
"234 1212 LINE",
"238 1212 LINE",
"324 1241 LINE",
"270 1405 LINE",
"258 1411 LINE",
"258 1427 LINE",
"258 1438 LINE",
"274 1454 LINE",
"285 1454 LINE",
"296 1454 LINE",
"311 1438 LINE",
"311 1427 LINE",
"311 1419 LINE",
"309 1415 LINE",
"362 1255 LINE",
"449 1284 LINE",
"458 1296 LINE",
"471 1296 LINE",
"482 1296 LINE",
"498 1281 LINE",
"498 1270 LINE",
"498 1259 LINE",
"482 1243 LINE",
"471 1243 LINE",
"463 1243 LINE",
"459 1245 LINE",
"375 1217 LINE",
"475 920 LINE",
"494 865 LINE",
"494 809 LINE"
);
},
{
closed = 1;
nodes = (
"113 215 LINE",
"113 179 LINE",
"130 109 LINE",
"169 54 LINE",
"235 20 LINE",
"283 20 LINE",
"332 20 LINE",
"398 54 LINE",
"437 109 LINE",
"453 179 LINE",
"453 215 LINE",
"453 809 LINE",
"453 844 LINE",
"437 914 LINE",
"398 969 LINE",
"332 1004 LINE",
"283 1004 LINE",
"235 1004 LINE",
"169 969 LINE",
"130 914 LINE",
"113 844 LINE",
"113 809 LINE"
);
}
);
width = 565;
}
);
leftKerningGroup = c;
rightKerningGroup = b;
unicode = 00F0;
},
{
glyphname = e;
layers = (
{
layerId = UUID0;
paths = (
{
closed = 1;
nodes = (
"494 575 LINE",
"113 575 LINE",
"113 215 LINE",
"113 179 LINE",
"130 109 LINE",
"169 54 LINE",
"235 20 LINE",
"283 20 LINE",
"330 20 LINE",
"394 50 LINE",
"433 99 LINE",
"451 163 LINE",
"453 197 LINE",
"450 200 LINE",
"446 210 LINE",
"446 213 LINE",
"446 224 LINE",
"462 240 LINE",
"473 240 LINE",
"484 240 LINE",
"500 224 LINE",
"500 213 LINE",
"500 210 LINE",
"497 200 LINE",
"494 197 LINE",
"491 155 LINE",
"468 77 LINE",
"420 17 LINE",
"341 -20 LINE",
"283 -20 LINE",
"223 -20 LINE",
"142 21 LINE",
"93 87 LINE",
"72 171 LINE",
"72 215 LINE",
"72 809 LINE",
"72 853 LINE",
"93 937 LINE",
"142 1003 LINE",
"223 1044 LINE",
"283 1044 LINE",
"343 1044 LINE",
"423 1003 LINE",
"473 937 LINE",
"494 853 LINE",
"494 809 LINE"
);
},
{
closed = 1;
nodes = (
"453 616 LINE",
"453 809 LINE",
"453 844 LINE",
"437 914 LINE",
"398 969 LINE",
"332 1004 LINE",
"283 1004 LINE",
"235 1004 LINE",
"169 969 LINE",
"130 914 LINE",
"113 844 LINE",
"113 809 LINE",
"113 616 LINE"
);
}
);
width = 555;
}
);
leftKerningGroup = c;
rightKerningGroup = e;
unicode = 0065;
},
{
glyphname = f;
layers = (
{
layerId = UUID0;
paths = (
{
closed = 1;
nodes = (
"182 23 LINE",
"188 15 LINE",
"188 6 LINE",
"188 -5 LINE",
"173 -20 LINE",
"162 -20 LINE",
"151 -20 LINE",
"135 -5 LINE",
"135 6 LINE",
"135 15 LINE",
"141 23 LINE",
"141 983 LINE",
"49 983 LINE",
"43 977 LINE",
"33 977 LINE",
"22 977 LINE",
"6 993 LINE",
"6 1004 LINE",
"6 1015 LINE",
"22 1030 LINE",
"33 1030 LINE",
"43 1030 LINE",
"49 1024 LINE",
"141 1024 LINE",
"141 1198 LINE",
"141 1240 LINE",
"161 1323 LINE",
"208 1389 LINE",
"285 1431 LINE",
"342 1434 LINE",
"351 1440 LINE",
"360 1440 LINE",
"371 1440 LINE",
"387 1424 LINE",
"387 1413 LINE",
"387 1402 LINE",
"371 1386 LINE",
"360 1386 LINE",
"352 1386 LINE",
"342 1393 LINE",
"297 1390 LINE",
"236 1355 LINE",
"199 1300 LINE",
"183 1232 LINE",
"182 1198 LINE",
"182 1024 LINE",
"342 1024 LINE",
"351 1030 LINE",
"360 1030 LINE",
"371 1030 LINE",
"387 1015 LINE",
"387 1004 LINE",
"387 993 LINE",
"371 977 LINE",
"360 977 LINE",
"351 977 LINE",
"342 983 LINE",
"182 983 LINE"
);
}
);
width = 399;
}
);
unicode = 0066;
},
{
glyphname = g;
layers = (
{
layerId = UUID0;
paths = (
{
closed = 1;
nodes = (
"494 -195 LINE",
"494 -239 LINE",
"473 -323 LINE",
"423 -389 LINE",
"343 -430 LINE",
"283 -430 LINE",
"226 -430 LINE",
"147 -394 LINE",
"97 -334 LINE",
"72 -257 LINE",
"70 -215 LINE",
"63 -208 LINE",
"63 -197 LINE",
"63 -187 LINE",
"79 -172 LINE",
"90 -172 LINE",
"101 -172 LINE",
"117 -187 LINE",
"117 -197 LINE",
"117 -202 LINE",
"114 -212 LINE",
"111 -215 LINE",
"112 -249 LINE",
"132 -312 LINE",
"173 -360 LINE",
"237 -389 LINE",
"283 -389 LINE",
"331 -389 LINE",
"397 -355 LINE",
"436 -301 LINE",
"453 -231 LINE",
"453 -195 LINE",
"453 66 LINE",
"425 27 LINE",
"345 -20 LINE",
"283 -20 LINE",
"222 -20 LINE",
"141 21 LINE",
"92 87 LINE",
"72 171 LINE",
"72 215 LINE",
"72 809 LINE",
"72 853 LINE",
"92 937 LINE",
"141 1003 LINE",
"222 1044 LINE",
"283 1044 LINE",
"345 1044 LINE",
"425 997 LINE",
"453 958 LINE",
"453 1001 LINE",
"446 1013 LINE",
"446 1020 LINE",
"446 1031 LINE",
"462 1047 LINE",
"473 1047 LINE",
"484 1047 LINE",
"500 1031 LINE",
"500 1020 LINE",
"500 1011 LINE",
"494 1001 LINE"
);
},
{
closed = 1;
nodes = (
"113 215 LINE",
"113 180 LINE",
"129 110 LINE",
"168 54 LINE",
"233 20 LINE",
"283 20 LINE",
"331 20 LINE",
"395 51 LINE",
"434 102 LINE",
"451 167 LINE",
"453 201 LINE",
"453 809 LINE",
"453 844 LINE",
"432 914 LINE",
"390 969 LINE",
"326 1004 LINE",
"283 1004 LINE",
"233 1004 LINE",
"168 969 LINE",
"129 914 LINE",
"113 844 LINE",
"113 809 LINE"
);
}
);
width = 573;
}
);
leftKerningGroup = c;
unicode = 0067;
},
{
glyphname = h;
layers = (
{
layerId = UUID0;
paths = (
{
closed = 1;
nodes = (
"504 23 LINE",
"510 15 LINE",
"510 6 LINE",
"510 -5 LINE",
"494 -20 LINE",
"483 -20 LINE",
"472 -20 LINE",
"457 -5 LINE",
"457 6 LINE",
"457 15 LINE",
"463 23 LINE",
"463 809 LINE",
"463 844 LINE",
"447 914 LINE",
"408 969 LINE",
"343 1004 LINE",
"293 1004 LINE",
"250 1004 LINE",
"186 969 LINE",
"144 914 LINE",
"123 844 LINE",
"123 809 LINE",
"123 23 LINE",
"129 15 LINE",
"129 6 LINE",
"129 -5 LINE",
"113 -20 LINE",
"102 -20 LINE",
"91 -20 LINE",
"76 -5 LINE",
"76 6 LINE",
"76 15 LINE",
"82 23 LINE",
"82 1409 LINE",
"76 1418 LINE",
"76 1427 LINE",
"76 1438 LINE",
"91 1454 LINE",
"102 1454 LINE",
"113 1454 LINE",
"129 1438 LINE",
"129 1427 LINE",
"129 1418 LINE",
"123 1409 LINE",
"123 949 LINE",
"151 997 LINE",
"238 1044 LINE",
"293 1044 LINE",
"354 1044 LINE",
"435 1003 LINE",
"484 937 LINE",
"504 853 LINE",
"504 809 LINE"
);
}
);
width = 582;
}
);
leftKerningGroup = b;
rightKerningGroup = h;
unicode = 0068;
},
{
glyphname = i;
layers = (
{
layerId = UUID0;
paths = (
{
closed = 1;
nodes = (
"129 23 LINE",
"135 15 LINE",
"135 6 LINE",
"135 -5 LINE",
"120 -20 LINE",
"109 -20 LINE",
"98 -20 LINE",
"82 -5 LINE",
"82 6 LINE",
"82 15 LINE",
"88 23 LINE",
"88 999 LINE",
"82 1009 LINE",
"82 1018 LINE",
"82 1029 LINE",
"98 1044 LINE",
"109 1044 LINE",
"120 1044 LINE",
"135 1029 LINE",
"135 1018 LINE",
"135 1009 LINE",
"129 999 LINE"
);
},
{
closed = 1;
nodes = (
"129 1270 LINE",
"135 1264 LINE",
"135 1254 LINE",
"135 1243 LINE",
"120 1227 LINE",
"109 1227 LINE",
"98 1227 LINE",
"82 1243 LINE",
"82 1254 LINE",
"82 1264 LINE",
"88 1270 LINE",
"88 1329 LINE",
"82 1339 LINE",
"82 1348 LINE",
"82 1359 LINE",
"98 1374 LINE",
"109 1374 LINE",
"120 1374 LINE",
"135 1359 LINE",
"135 1348 LINE",
"135 1339 LINE",
"129 1329 LINE"
);
}
);
width = 215;
}
);
leftKerningGroup = i;
rightKerningGroup = i;
unicode = 0069;
},
{
glyphname = idotless;
layers = (
{
layerId = UUID0;
paths = (
{
closed = 1;
nodes = (
"129 23 LINE",
"135 15 LINE",
"135 6 LINE",
"135 -5 LINE",
"120 -20 LINE",
"109 -20 LINE",
"98 -20 LINE",
"82 -5 LINE",
"82 6 LINE",
"82 15 LINE",
"88 23 LINE",
"88 999 LINE",
"82 1009 LINE",
"82 1018 LINE",
"82 1029 LINE",
"98 1044 LINE",
"109 1044 LINE",
"120 1044 LINE",
"135 1029 LINE",
"135 1018 LINE",
"135 1009 LINE",
"129 999 LINE"
);
}
);
width = 215;
}
);
leftKerningGroup = i;
rightKerningGroup = i;
unicode = 0131;
},
{
glyphname = j;
layers = (
{
layerId = UUID0;
paths = (
{
closed = 1;
nodes = (
"127 -188 LINE",
"127 -230 LINE",
"106 -313 LINE",
"59 -379 LINE",
"-18 -422 LINE",
"-74 -424 LINE",
"-83 -430 LINE",
"-92 -430 LINE",
"-103 -430 LINE",
"-119 -414 LINE",
"-119 -403 LINE",
"-119 -392 LINE",
"-103 -377 LINE",
"-92 -377 LINE",
"-83 -377 LINE",
"-74 -383 LINE",
"-29 -381 LINE",
"32 -345 LINE",
"69 -291 LINE",
"85 -223 LINE",
"86 -188 LINE",
"86 999 LINE",
"80 1009 LINE",
"80 1018 LINE",
"80 1029 LINE",
"95 1044 LINE",
"106 1044 LINE",
"117 1044 LINE",
"133 1029 LINE",
"133 1018 LINE",
"133 1009 LINE",
"127 999 LINE"
);
},
{
closed = 1;
nodes = (
"127 1270 LINE",
"133 1264 LINE",
"133 1254 LINE",
"133 1243 LINE",
"118 1227 LINE",
"107 1227 LINE",
"96 1227 LINE",
"80 1243 LINE",
"80 1254 LINE",
"80 1264 LINE",
"86 1270 LINE",
"86 1329 LINE",
"80 1339 LINE",
"80 1348 LINE",
"80 1359 LINE",
"96 1374 LINE",
"107 1374 LINE",
"118 1374 LINE",
"133 1359 LINE",
"133 1348 LINE",
"133 1339 LINE",
"127 1329 LINE"
);
}
);
width = 213;
}
);
leftKerningGroup = i;
rightKerningGroup = i;
unicode = 006A;
},
{
glyphname = k;
layers = (
{
layerId = UUID0;
paths = (
{
closed = 1;
nodes = (
"496 29 LINE",
"510 22 LINE",
"510 6 LINE",
"510 -5 LINE",
"494 -20 LINE",
"483 -20 LINE",
"472 -20 LINE",
"457 -5 LINE",
"457 6 LINE",
"457 14 LINE",
"215 545 LINE",
"123 391 LINE",
"123 23 LINE",
"129 15 LINE",
"129 6 LINE",
"129 -5 LINE",
"113 -20 LINE",
"102 -20 LINE",
"91 -20 LINE",
"76 -5 LINE",
"76 6 LINE",
"76 15 LINE",
"82 23 LINE",
"82 1409 LINE",
"76 1418 LINE",
"76 1427 LINE",
"76 1438 LINE",
"91 1454 LINE",
"102 1454 LINE",
"113 1454 LINE",
"129 1438 LINE",
"129 1427 LINE",
"129 1418 LINE",
"123 1409 LINE",
"123 471 LINE",
"451 1014 LINE",
"451 1018 LINE",
"451 1029 LINE",
"466 1044 LINE",
"477 1044 LINE",
"488 1044 LINE",
"504 1029 LINE",
"504 1018 LINE",
"504 998 LINE",
"485 991 LINE",
"242 588 LINE"
);
}
);
width = 512;
}
);
leftKerningGroup = b;
unicode = 006B;
},
{
glyphname = l;
layers = (
{
layerId = UUID0;
paths = (
{
closed = 1;
nodes = (
"129 23 LINE",
"135 15 LINE",
"135 6 LINE",
"135 -5 LINE",
"120 -20 LINE",
"109 -20 LINE",
"98 -20 LINE",
"82 -5 LINE",
"82 6 LINE",
"82 15 LINE",
"88 23 LINE",
"88 1409 LINE",
"82 1418 LINE",
"82 1427 LINE",
"82 1438 LINE",
"98 1454 LINE",
"109 1454 LINE",
"120 1454 LINE",
"135 1438 LINE",
"135 1427 LINE",
"135 1418 LINE",
"129 1409 LINE"
);
}
);
width = 215;
}
);
unicode = 006C;
},
{
glyphname = m;
layers = (
{
layerId = UUID0;
paths = (
{
closed = 1;
nodes = (
"795 23 LINE",
"801 15 LINE",
"801 6 LINE",
"801 -5 LINE",
"785 -20 LINE",
"774 -20 LINE",
"763 -20 LINE",
"748 -5 LINE",
"748 6 LINE",
"748 15 LINE",
"754 23 LINE",
"754 836 LINE",
"754 866 LINE",
"740 926 LINE",
"706 974 LINE",
"649 1004 LINE",
"606 1004 LINE",
"565 1004 LINE",
"510 977 LINE",
"476 933 LINE",
"460 877 LINE",
"459 848 LINE",
"459 23 LINE",
"465 15 LINE",
"465 6 LINE",
"465 -5 LINE",
"449 -20 LINE",
"438 -20 LINE",
"427 -20 LINE",
"412 -5 LINE",
"412 6 LINE",
"412 15 LINE",
"418 23 LINE",
"418 836 LINE",
"418 866 LINE",
"404 926 LINE",
"370 974 LINE",
"313 1004 LINE",
"270 1004 LINE",
"229 1004 LINE",
"172 977 LINE",
"138 933 LINE",
"123 877 LINE",
"123 848 LINE",
"123 23 LINE",
"129 15 LINE",
"129 6 LINE",
"129 -5 LINE",
"113 -20 LINE",
"102 -20 LINE",
"91 -20 LINE",
"76 -5 LINE",
"76 6 LINE",
"76 15 LINE",
"82 23 LINE",
"82 999 LINE",
"76 1009 LINE",
"76 1018 LINE",
"76 1029 LINE",
"91 1044 LINE",
"102 1044 LINE",
"113 1044 LINE",
"129 1029 LINE",
"129 1018 LINE",
"129 1009 LINE",
"123 999 LINE",
"123 965 LINE",
"148 1003 LINE",
"218 1044 LINE",
"272 1044 LINE",
"344 1044 LINE",
"423 984 LINE",
"440 938 LINE",
"463 993 LINE",
"556 1044 LINE",
"608 1044 LINE",
"662 1044 LINE",
"734 1008 LINE",
"777 950 LINE",
"795 876 LINE",
"795 838 LINE"
);
}
);
width = 872;
}
);
leftKerningGroup = m;
rightKerningGroup = h;
unicode = 006D;
},
{
glyphname = n;
layers = (
{
layerId = UUID0;
paths = (
{
closed = 1;
nodes = (
"504 23 LINE",
"510 15 LINE",
"510 6 LINE",
"510 -5 LINE",
"494 -20 LINE",
"483 -20 LINE",
"472 -20 LINE",
"457 -5 LINE",
"457 6 LINE",
"457 15 LINE",
"463 23 LINE",
"463 809 LINE",
"463 844 LINE",
"447 914 LINE",
"408 969 LINE",
"343 1004 LINE",
"293 1004 LINE",
"250 1004 LINE",
"186 969 LINE",
"144 914 LINE",
"123 844 LINE",
"123 809 LINE",
"123 23 LINE",
"129 15 LINE",
"129 6 LINE",
"129 -5 LINE",
"113 -20 LINE",
"102 -20 LINE",
"91 -20 LINE",
"76 -5 LINE",
"76 6 LINE",
"76 15 LINE",
"82 23 LINE",
"82 999 LINE",
"76 1009 LINE",
"76 1018 LINE",
"76 1029 LINE",
"91 1044 LINE",
"102 1044 LINE",
"113 1044 LINE",
"129 1029 LINE",
"129 1018 LINE",
"129 1009 LINE",
"123 999 LINE",
"123 948 LINE",
"151 997 LINE",
"231 1044 LINE",
"293 1044 LINE",
"354 1044 LINE",
"435 1003 LINE",
"484 937 LINE",
"504 853 LINE",
"504 809 LINE"
);
}
);
width = 582;
}
);
leftKerningGroup = m;
rightKerningGroup = h;
unicode = 006E;
},
{
glyphname = o;
layers = (
{
layerId = UUID0;
paths = (
{
closed = 1;
nodes = (
"113 215 LINE",
"113 179 LINE",
"130 109 LINE",
"169 54 LINE",
"235 20 LINE",
"283 20 LINE",
"332 20 LINE",
"398 54 LINE",
"437 109 LINE",
"453 179 LINE",
"453 215 LINE",
"453 809 LINE",
"453 844 LINE",
"437 914 LINE",
"398 969 LINE",
"332 1004 LINE",
"283 1004 LINE",
"235 1004 LINE",
"169 969 LINE",
"130 914 LINE",
"113 844 LINE",
"113 809 LINE"
);
},
{
closed = 1;
nodes = (
"494 215 LINE",
"494 171 LINE",
"473 87 LINE",
"423 21 LINE",
"343 -20 LINE",
"283 -20 LINE",
"223 -20 LINE",
"142 21 LINE",
"93 87 LINE",
"72 171 LINE",
"72 215 LINE",
"72 809 LINE",
"72 853 LINE",
"93 937 LINE",
"142 1003 LINE",
"223 1044 LINE",
"283 1044 LINE",
"343 1044 LINE",
"423 1003 LINE",
"473 937 LINE",
"494 853 LINE",
"494 809 LINE"
);
}
);
width = 565;
}
);
leftKerningGroup = c;
rightKerningGroup = b;
unicode = 006F;
},
{
glyphname = oslash;
layers = (
{
layerId = UUID0;
paths = (
{
closed = 1;
nodes = (
"509 215 LINE",
"509 171 LINE",
"488 87 LINE",
"438 21 LINE",
"358 -20 LINE",
"298 -20 LINE",
"238 -20 LINE",
"157 21 LINE",
"132 54 LINE",
"110 84 LINE",
"99 122 LINE",
"8 -39 LINE",
"10 -41 LINE",
"10 -47 LINE",
"10 -58 LINE",
"-5 -74 LINE",
"-16 -74 LINE",
"-27 -74 LINE",
"-43 -58 LINE",
"-43 -47 LINE",
"-43 -38 LINE",
"-33 -24 LINE",
"-25 -20 LINE",
"88 181 LINE",
"87 198 LINE",
"87 215 LINE",
"87 809 LINE",
"87 853 LINE",
"108 937 LINE",
"157 1003 LINE",
"238 1044 LINE",
"298 1044 LINE",
"358 1044 LINE",
"438 1003 LINE",
"463 970 LINE",
"484 941 LINE",
"495 906 LINE",
"584 1063 LINE",
"584 1071 LINE",
"584 1082 LINE",
"599 1098 LINE",
"610 1098 LINE",
"621 1098 LINE",
"637 1082 LINE",
"637 1071 LINE",
"637 1062 LINE",
"626 1048 LINE",
"618 1044 LINE",
"507 847 LINE",
"509 828 LINE",
"509 809 LINE"
);
},
{
closed = 1;
nodes = (
"136 144 LINE",
"145 109 LINE",
"184 54 LINE",
"250 20 LINE",
"298 20 LINE",
"347 20 LINE",
"413 54 LINE",
"452 109 LINE",
"468 179 LINE",
"468 215 LINE",
"468 777 LINE",
"130 177 LINE",
"132 160 LINE"
);
},
{
closed = 1;
nodes = (
"460 879 LINE",
"452 914 LINE",
"413 969 LINE",
"347 1004 LINE",
"298 1004 LINE",
"250 1004 LINE",
"184 969 LINE",
"145 914 LINE",
"128 844 LINE",
"128 809 LINE",
"128 252 LINE",
"465 851 LINE",
"463 865 LINE"
);
}
);
width = 596;
}
);
leftKerningGroup = c;
rightKerningGroup = b;
unicode = 00F8;
},
{
glyphname = thorn;
layers = (
{
layerId = UUID0;
paths = (
{
closed = 1;
nodes = (
"123 -385 LINE",
"129 -394 LINE",
"129 -403 LINE",
"129 -414 LINE",
"113 -430 LINE",
"102 -430 LINE",
"91 -430 LINE",
"76 -414 LINE",
"76 -403 LINE",
"76 -394 LINE",
"82 -385 LINE",
"82 1409 LINE",
"76 1418 LINE",
"76 1427 LINE",
"76 1438 LINE",
"91 1454 LINE",
"102 1454 LINE",
"113 1454 LINE",
"129 1438 LINE",
"129 1427 LINE",
"129 1418 LINE",
"123 1409 LINE",
"123 958 LINE",
"151 997 LINE",
"231 1044 LINE",
"293 1044 LINE",
"354 1044 LINE",
"435 1003 LINE",
"484 937 LINE",
"504 853 LINE",
"504 809 LINE",
"504 215 LINE",
"504 171 LINE",
"484 87 LINE",
"435 21 LINE",
"354 -20 LINE",
"293 -20 LINE",
"231 -20 LINE",
"151 27 LINE",
"123 66 LINE"
);
},
{
closed = 1;
nodes = (
"123 215 LINE",
"123 181 LINE",
"140 112 LINE",
"180 56 LINE",
"245 20 LINE",
"293 20 LINE",
"343 20 LINE",
"408 54 LINE",
"447 110 LINE",
"463 180 LINE",
"463 215 LINE",
"463 809 LINE",
"463 844 LINE",
"447 914 LINE",
"408 969 LINE",
"343 1004 LINE",
"293 1004 LINE",
"250 1004 LINE",
"186 969 LINE",
"144 914 LINE",
"123 844 LINE",
"123 809 LINE"
);
}
);
width = 573;
}
);
leftKerningGroup = b;
rightKerningGroup = b;
unicode = 00FE;
},
{
glyphname = r;
layers = (
{
layerId = UUID0;
paths = (
{
closed = 1;
nodes = (
"123 23 LINE",
"129 15 LINE",
"129 6 LINE",
"129 -5 LINE",
"113 -20 LINE",
"102 -20 LINE",
"91 -20 LINE",
"76 -5 LINE",
"76 6 LINE",
"76 15 LINE",
"82 23 LINE",
"82 999 LINE",
"76 1009 LINE",
"76 1018 LINE",
"76 1029 LINE",
"91 1044 LINE",
"102 1044 LINE",
"113 1044 LINE",
"129 1029 LINE",
"129 1018 LINE",
"129 1009 LINE",
"123 999 LINE",
"123 928 LINE",
"151 976 LINE",
"231 1024 LINE",
"293 1024 LINE",
"328 1024 LINE",
"337 1030 LINE",
"346 1030 LINE",
"357 1030 LINE",
"373 1015 LINE",
"373 1004 LINE",
"373 993 LINE",
"357 977 LINE",
"346 977 LINE",
"337 977 LINE",
"328 983 LINE",
"293 983 LINE",
"250 983 LINE",
"186 949 LINE",
"144 893 LINE",
"123 824 LINE",
"123 788 LINE"
);
}
);
width = 385;
}
);
leftKerningGroup = m;
unicode = 0072;
},
{
glyphname = s;
layers = (
{
layerId = UUID0;
paths = (
{
closed = 1;
nodes = (
"403 434 LINE",
"429 410 LINE",
"463 360 LINE",
"482 308 LINE",
"489 256 LINE",
"489 231 LINE",
"489 179 LINE",
"468 87 LINE",
"417 19 LINE",
"331 -20 LINE",
"266 -20 LINE",
"204 -20 LINE",
"120 18 LINE",
"67 81 LINE",
"41 163 LINE",
"39 207 LINE",
"36 210 LINE",
"33 220 LINE",
"33 225 LINE",
"33 236 LINE",
"48 252 LINE",
"59 252 LINE",
"70 252 LINE",
"86 236 LINE",
"86 225 LINE",
"86 221 LINE",
"82 213 LINE",
"83 177 LINE",
"104 107 LINE",
"147 52 LINE",
"216 18 LINE",
"266 18 LINE",
"324 18 LINE",
"396 55 LINE",
"436 116 LINE",
"449 192 LINE",
"449 231 LINE",
"449 282 LINE",
"412 371 LINE",
"375 406 LINE",
"143 614 LINE",
"119 636 LINE",
"90 679 LINE",
"74 726 LINE",
"68 776 LINE",
"68 805 LINE",
"68 852 LINE",
"90 938 LINE",
"141 1004 LINE",
"223 1044 LINE",
"283 1044 LINE",
"337 1044 LINE",
"413 1008 LINE",
"461 948 LINE",
"485 871 LINE",
"487 829 LINE",
"494 823 LINE",
"494 813 LINE",
"494 802 LINE",
"478 786 LINE",
"467 786 LINE",
"458 786 LINE",
"442 802 LINE",
"442 813 LINE",
"442 821 LINE",
"449 827 LINE",
"447 860 LINE",
"427 924 LINE",
"387 973 LINE",
"326 1004 LINE",
"283 1004 LINE",
"235 1004 LINE",
"168 970 LINE",
"127 915 LINE",
"109 843 LINE",
"109 805 LINE",
"110 746 LINE",
"136 672 LINE",
"170 643 LINE"
);
}
);
width = 541;
}
);
unicode = 0073;
},
{
glyphname = germandbls;
layers = (
{
layerId = UUID0;
paths = (
{
closed = 1;
nodes = (
"508 221 LINE",
"508 116 LINE",
"399 0 LINE",
"293 0 LINE",
"252 0 LINE",
"246 -6 LINE",
"236 -6 LINE",
"225 -6 LINE",
"209 9 LINE",
"209 20 LINE",
"209 31 LINE",
"225 47 LINE",
"236 47 LINE",
"246 47 LINE",
"252 41 LINE",
"293 41 LINE",
"380 41 LINE",
"467 138 LINE",
"467 223 LINE",
"467 791 LINE",
"467 827 LINE",
"450 896 LINE",
"409 950 LINE",
"340 983 LINE",
"289 983 LINE",
"252 983 LINE",
"246 977 LINE",
"236 977 LINE",
"225 977 LINE",
"209 993 LINE",
"209 1004 LINE",
"209 1015 LINE",
"225 1030 LINE",
"236 1030 LINE",
"246 1030 LINE",
"252 1024 LINE",
"307 1024 LINE",
"356 1024 LINE",
"418 1058 LINE",
"454 1114 LINE",
"467 1185 LINE",
"467 1221 LINE",
"467 1256 LINE",
"450 1325 LINE",
"410 1379 LINE",
"344 1413 LINE",
"295 1413 LINE",
"246 1413 LINE",
"180 1379 LINE",
"140 1325 LINE",
"123 1256 LINE",
"123 1221 LINE",
"123 23 LINE",
"129 15 LINE",
"129 6 LINE",
"129 -5 LINE",
"113 -20 LINE",
"102 -20 LINE",
"91 -20 LINE",
"76 -5 LINE",
"76 6 LINE",
"76 15 LINE",
"82 23 LINE",
"82 1221 LINE",
"82 1264 LINE",
"103 1348 LINE",
"152 1414 LINE",
"234 1454 LINE",
"295 1454 LINE",
"354 1454 LINE",
"436 1414 LINE",
"486 1348 LINE",
"508 1264 LINE",
"508 1221 LINE",
"508 1188 LINE",
"497 1121 LINE",
"469 1063 LINE",
"423 1017 LINE",
"389 1004 LINE",
"422 989 LINE",
"467 945 LINE",
"496 890 LINE",
"508 825 LINE",
"508 791 LINE"
);
}
);
width = 578;
}
);
unicode = 00DF;
},
{
glyphname = t;
layers = (
{
layerId = UUID0;
paths = (
{
closed = 1;
nodes = (
"186 221 LINE",
"186 184 LINE",
"202 116 LINE",
"239 62 LINE",
"301 28 LINE",
"346 27 LINE",
"355 33 LINE",
"365 33 LINE",
"376 33 LINE",
"391 17 LINE",
"391 6 LINE",
"391 -5 LINE",
"376 -20 LINE",
"365 -20 LINE",
"355 -20 LINE",
"346 -14 LINE",
"289 -12 LINE",
"212 30 LINE",
"165 95 LINE",
"145 178 LINE",
"145 221 LINE",
"145 983 LINE",
"53 983 LINE",
"47 977 LINE",
"37 977 LINE",
"26 977 LINE",
"10 993 LINE",
"10 1004 LINE",
"10 1015 LINE",
"26 1030 LINE",
"37 1030 LINE",
"47 1030 LINE",
"53 1024 LINE",
"145 1024 LINE",
"145 1329 LINE",
"139 1339 LINE",
"139 1348 LINE",
"139 1359 LINE",
"155 1374 LINE",
"166 1374 LINE",
"177 1374 LINE",
"193 1359 LINE",
"193 1348 LINE",
"193 1341 LINE",
"186 1329 LINE",
"186 1024 LINE",
"346 1024 LINE",
"355 1030 LINE",
"365 1030 LINE",
"376 1030 LINE",
"391 1015 LINE",
"391 1004 LINE",
"391 993 LINE",
"376 977 LINE",
"365 977 LINE",
"355 977 LINE",
"346 983 LINE",
"186 983 LINE"
);
}
);
width = 391;
}
);
unicode = 0074;
},
{
glyphname = u;
layers = (
{
layerId = UUID0;
paths = (
{
closed = 1;
nodes = (
"500 23 LINE",
"506 15 LINE",
"506 6 LINE",
"506 -5 LINE",
"490 -20 LINE",
"479 -20 LINE",
"468 -20 LINE",
"453 -5 LINE",
"453 6 LINE",
"453 15 LINE",
"459 23 LINE",
"459 76 LINE",
"431 27 LINE",
"351 -20 LINE",
"289 -20 LINE",
"228 -20 LINE",
"147 21 LINE",
"98 87 LINE",
"78 171 LINE",
"78 215 LINE",
"78 999 LINE",
"72 1009 LINE",
"72 1018 LINE",
"72 1029 LINE",
"87 1044 LINE",
"98 1044 LINE",
"109 1044 LINE",
"125 1029 LINE",
"125 1018 LINE",
"125 1009 LINE",
"119 999 LINE",
"119 215 LINE",
"119 180 LINE",
"135 110 LINE",
"174 54 LINE",
"239 20 LINE",
"289 20 LINE",
"334 20 LINE",
"399 51 LINE",
"440 103 LINE",
"459 170 LINE",
"459 205 LINE",
"459 999 LINE",
"453 1009 LINE",
"453 1018 LINE",
"453 1029 LINE",
"468 1044 LINE",
"479 1044 LINE",
"490 1044 LINE",
"506 1029 LINE",
"506 1018 LINE",
"506 1009 LINE",
"500 999 LINE"
);
}
);
width = 582;
}
);
leftKerningGroup = u;
rightKerningGroup = q;
unicode = 0075;
},
{
glyphname = v;
layers = (
{
layerId = UUID0;
paths = (
{
closed = 1;
nodes = (
"281 18 LINE",
"285 10 LINE",
"285 6 LINE",
"285 -5 LINE",
"269 -20 LINE",
"258 -20 LINE",
"247 -20 LINE",
"231 -5 LINE",
"231 6 LINE",
"231 14 LINE",
"233 18 LINE",
"23 997 LINE",
"18 1000 LINE",
"14 1012 LINE",
"14 1018 LINE",
"14 1029 LINE",
"30 1044 LINE",
"41 1044 LINE",
"52 1044 LINE",
"68 1029 LINE",
"68 1018 LINE",
"68 1011 LINE",
"63 1004 LINE",
"258 106 LINE",
"451 1004 LINE",
"449 1007 LINE",
"449 1011 LINE",
"449 1018 LINE",
"449 1029 LINE",
"464 1044 LINE",
"475 1044 LINE",
"486 1044 LINE",
"502 1029 LINE",
"502 1018 LINE",
"502 1004 LINE",
"492 997 LINE"
);
}
);
width = 516;
}
);
leftKerningGroup = v;
rightKerningGroup = v;
unicode = 0076;
},
{
glyphname = w;
layers = (
{
layerId = UUID0;
paths = (
{
closed = 1;
nodes = (
"715 18 LINE",
"719 10 LINE",
"719 6 LINE",
"719 -5 LINE",
"703 -20 LINE",
"692 -20 LINE",
"681 -20 LINE",
"666 -5 LINE",
"666 6 LINE",
"666 14 LINE",
"668 18 LINE",
"475 915 LINE",
"281 18 LINE",
"285 10 LINE",
"285 6 LINE",
"285 -5 LINE",
"269 -20 LINE",
"258 -20 LINE",
"247 -20 LINE",
"231 -5 LINE",
"231 6 LINE",
"231 14 LINE",
"233 18 LINE",
"23 997 LINE",
"18 1000 LINE",
"14 1012 LINE",
"14 1018 LINE",
"14 1029 LINE",
"30 1044 LINE",
"41 1044 LINE",
"52 1044 LINE",
"68 1029 LINE",
"68 1018 LINE",
"68 1011 LINE",
"63 1004 LINE",
"258 106 LINE",
"451 1004 LINE",
"449 1007 LINE",
"449 1011 LINE",
"449 1018 LINE",
"449 1029 LINE",
"464 1044 LINE",
"475 1044 LINE",
"486 1044 LINE",
"502 1029 LINE",
"502 1018 LINE",
"502 1012 LINE",
"498 1004 LINE",
"692 106 LINE",
"885 1004 LINE",
"883 1007 LINE",
"883 1011 LINE",
"883 1018 LINE",
"883 1029 LINE",
"898 1044 LINE",
"909 1044 LINE",
"920 1044 LINE",
"936 1029 LINE",
"936 1018 LINE",
"936 1004 LINE",
"926 997 LINE"
);
}
);
width = 952;
}
);
leftKerningGroup = v;
rightKerningGroup = v;
unicode = 0077;
},
{
glyphname = x;
layers = (
{
layerId = UUID0;
paths = (
{
closed = 1;
nodes = (
"492 29 LINE",
"497 24 LINE",
"504 12 LINE",
"504 6 LINE",
"504 -5 LINE",
"488 -20 LINE",
"477 -20 LINE",
"466 -20 LINE",
"451 -5 LINE",
"451 6 LINE",
"451 14 LINE",
"260 477 LINE",
"57 14 LINE",
"59 10 LINE",
"59 6 LINE",
"59 -5 LINE",
"44 -20 LINE",
"33 -20 LINE",
"22 -20 LINE",
"6 -5 LINE",
"6 6 LINE",
"6 20 LINE",
"18 29 LINE",
"238 530 LINE",
"45 995 LINE",
"33 1001 LINE",
"33 1018 LINE",
"33 1029 LINE",
"48 1044 LINE",
"59 1044 LINE",
"70 1044 LINE",
"86 1029 LINE",
"86 1018 LINE",
"86 1012 LINE",
"84 1010 LINE",
"260 586 LINE",
"444 1010 LINE",
"444 1018 LINE",
"444 1029 LINE",
"460 1044 LINE",
"471 1044 LINE",
"482 1044 LINE",
"498 1029 LINE",
"498 1018 LINE",
"498 1002 LINE",
"485 995 LINE",
"283 530 LINE"
);
}
);
width = 520;
}
);
unicode = 0078;
},
{
glyphname = y;
layers = (
{
layerId = UUID0;
paths = (
{
closed = 1;
nodes = (
"238 -188 LINE",
"229 -229 LINE",
"206 -309 LINE",
"164 -375 LINE",
"98 -418 LINE",
"45 -422 LINE",
"40 -425 LINE",
"32 -430 LINE",
"27 -430 LINE",
"16 -430 LINE",
"0 -414 LINE",
"0 -403 LINE",
"0 -392 LINE",
"16 -377 LINE",
"27 -377 LINE",
"35 -377 LINE",
"43 -381 LINE",
"86 -378 LINE",
"139 -342 LINE",
"171 -287 LINE",
"189 -221 LINE",
"197 -188 LINE",
"238 8 LINE",
"25 997 LINE",
"20 1000 LINE",
"16 1012 LINE",
"16 1018 LINE",
"16 1029 LINE",
"32 1044 LINE",
"43 1044 LINE",
"54 1044 LINE",
"70 1029 LINE",
"70 1018 LINE",
"70 1012 LINE",
"66 1004 LINE",
"260 106 LINE",
"453 1004 LINE",
"451 1007 LINE",
"451 1011 LINE",
"451 1018 LINE",
"451 1029 LINE",
"466 1044 LINE",
"477 1044 LINE",
"488 1044 LINE",
"504 1029 LINE",
"504 1018 LINE",
"504 1004 LINE",
"494 997 LINE",
"281 12 LINE"
);
}
);
width = 516;
}
);
leftKerningGroup = y;
rightKerningGroup = y;
unicode = 0079;
},
{
glyphname = z;
layers = (
{
layerId = UUID0;
paths = (
{
closed = 1;
nodes = (
"426 41 LINE",
"435 47 LINE",
"444 47 LINE",
"455 47 LINE",
"471 31 LINE",
"471 20 LINE",
"471 9 LINE",
"455 -6 LINE",
"444 -6 LINE",
"435 -6 LINE",
"426 0 LINE",
"74 0 LINE",
"68 -6 LINE",
"57 -6 LINE",
"46 -6 LINE",
"31 9 LINE",
"31 20 LINE",
"31 38 LINE",
"45 45 LINE",
"408 983 LINE",
"74 983 LINE",
"68 977 LINE",
"57 977 LINE",
"46 977 LINE",
"31 993 LINE",
"31 1004 LINE",
"31 1015 LINE",
"46 1030 LINE",
"57 1030 LINE",
"68 1030 LINE",
"74 1024 LINE",
"426 1024 LINE",
"435 1030 LINE",
"444 1030 LINE",
"455 1030 LINE",
"471 1015 LINE",
"471 1004 LINE",
"471 994 LINE",
"461 980 LINE",
"453 977 LINE",
"90 41 LINE"
);
}
);
width = 502;
}
);
unicode = 007A;
},
{
glyphname = ordfeminine;
layers = (
{
layerId = UUID0;
paths = (
{
closed = 1;
nodes = (
"336 864 LINE",
"342 858 LINE",
"342 848 LINE",
"342 837 LINE",
"326 821 LINE",
"315 821 LINE",
"304 821 LINE",
"289 837 LINE",
"289 848 LINE",
"289 858 LINE",
"295 864 LINE",
"295 887 LINE",
"283 859 LINE",
"239 821 LINE",
"197 821 LINE",
"134 821 LINE",
"72 904 LINE",
"72 967 LINE",
"72 1071 LINE",
"72 1098 LINE",
"83 1150 LINE",
"118 1192 LINE",
"181 1217 LINE",
"233 1217 LINE",
"295 1217 LINE",
"295 1309 LINE",
"295 1328 LINE",
"286 1365 LINE",
"265 1395 LINE",
"230 1413 LINE",
"205 1413 LINE",
"160 1413 LINE",
"116 1366 LINE",
"113 1329 LINE",
"119 1323 LINE",
"119 1313 LINE",
"119 1303 LINE",
"103 1288 LINE",
"92 1288 LINE",
"81 1288 LINE",
"66 1303 LINE",
"66 1313 LINE",
"66 1318 LINE",
"69 1328 LINE",
"72 1331 LINE",
"73 1353 LINE",
"91 1397 LINE",
"124 1432 LINE",
"173 1454 LINE",
"205 1454 LINE",
"242 1454 LINE",
"293 1429 LINE",
"323 1388 LINE",
"336 1336 LINE",
"336 1309 LINE"
);
},
{
closed = 1;
nodes = (
"113 967 LINE",
"113 947 LINE",
"120 910 LINE",
"139 880 LINE",
"173 862 LINE",
"199 862 LINE",
"220 862 LINE",
"255 879 LINE",
"279 908 LINE",
"293 944 LINE",
"295 963 LINE",
"295 1176 LINE",
"233 1176 LINE",
"194 1176 LINE",
"147 1158 LINE",
"121 1128 LINE",
"113 1090 LINE",
"113 1071 LINE"
);
}
);
width = 420;
}
);
unicode = 00AA;
},
{
glyphname = ordmasculine;
layers = (
{
layerId = UUID0;
paths = (
{
closed = 1;
nodes = (
"117 969 LINE",
"117 951 LINE",
"125 914 LINE",
"146 884 LINE",
"181 866 LINE",
"207 866 LINE",
"233 866 LINE",
"268 884 LINE",
"290 914 LINE",
"299 951 LINE",
"299 969 LINE",
"299 1311 LINE",
"299 1329 LINE",
"290 1366 LINE",
"268 1395 LINE",
"233 1413 LINE",
"207 1413 LINE",
"181 1413 LINE",
"146 1395 LINE",
"125 1366 LINE",
"117 1329 LINE",
"117 1311 LINE"
);
},
{
closed = 1;
nodes = (
"340 969 LINE",
"340 943 LINE",
"326 891 LINE",
"294 850 LINE",
"244 825 LINE",
"207 825 LINE",
"170 825 LINE",
"120 850 LINE",
"89 891 LINE",
"76 943 LINE",
"76 969 LINE",
"76 1311 LINE",
"76 1337 LINE",
"89 1388 LINE",
"120 1429 LINE",
"170 1454 LINE",
"207 1454 LINE",
"244 1454 LINE",
"294 1429 LINE",
"326 1388 LINE",
"340 1337 LINE",
"340 1311 LINE"
);
}
);
width = 416;
}
);
unicode = 00BA;
},
{
glyphname = zero;
layers = (
{
layerId = UUID0;
paths = (
{
closed = 1;
nodes = (
"133 207 LINE",
"133 171 LINE",
"150 104 LINE",
"190 51 LINE",
"256 20 LINE",
"305 20 LINE",
"354 20 LINE",
"420 51 LINE",
"460 104 LINE",
"477 171 LINE",
"477 207 LINE",
"477 1221 LINE",
"477 1256 LINE",
"460 1325 LINE",
"420 1379 LINE",
"354 1413 LINE",
"305 1413 LINE",
"256 1413 LINE",
"190 1379 LINE",
"150 1325 LINE",
"133 1256 LINE",
"133 1221 LINE"
);
},
{
closed = 1;
nodes = (
"518 207 LINE",
"518 163 LINE",
"496 81 LINE",
"446 18 LINE",
"364 -20 LINE",
"305 -20 LINE",
"244 -20 LINE",
"162 18 LINE",
"113 81 LINE",
"92 163 LINE",
"92 207 LINE",
"92 1221 LINE",
"92 1264 LINE",
"113 1348 LINE",
"162 1414 LINE",
"244 1454 LINE",
"305 1454 LINE",
"364 1454 LINE",
"446 1414 LINE",
"496 1348 LINE",
"518 1264 LINE",
"518 1221 LINE"
);
}
);
width = 610;
}
);
unicode = 0030;
},
{
glyphname = one;
layers = (
{
layerId = UUID0;
paths = (
{
closed = 1;
nodes = (
"424 23 LINE",
"430 15 LINE",
"430 6 LINE",
"430 -5 LINE",
"414 -20 LINE",
"403 -20 LINE",
"392 -20 LINE",
"377 -5 LINE",
"377 6 LINE",
"377 15 LINE",
"383 23 LINE",
"383 1380 LINE",
"51 1051 LINE",
"51 1040 LINE",
"36 1024 LINE",
"25 1024 LINE",
"14 1024 LINE",
"-2 1040 LINE",
"-2 1051 LINE",
"-2 1060 LINE",
"12 1075 LINE",
"23 1077 LINE",
"377 1430 LINE",
"377 1439 LINE",
"392 1454 LINE",
"403 1454 LINE",
"414 1454 LINE",
"430 1438 LINE",
"430 1427 LINE",
"430 1418 LINE",
"424 1409 LINE"
);
}
);
width = 522;
}
);
unicode = 0031;
},
{
glyphname = two;
layers = (
{
layerId = UUID0;
paths = (
{
closed = 1;
nodes = (
"469 41 LINE",
"478 47 LINE",
"487 47 LINE",
"498 47 LINE",
"514 31 LINE",
"514 20 LINE",
"514 9 LINE",
"498 -6 LINE",
"487 -6 LINE",
"478 -6 LINE",
"469 0 LINE",
"68 0 LINE",
"68 395 LINE",
"68 419 LINE",
"73 467 LINE",
"88 513 LINE",
"117 559 LINE",
"141 582 LINE",
"381 795 LINE",
"419 830 LINE",
"459 924 LINE",
"459 977 LINE",
"459 1227 LINE",
"459 1263 LINE",
"442 1330 LINE",
"402 1382 LINE",
"336 1413 LINE",
"287 1413 LINE",
"241 1413 LINE",
"177 1386 LINE",
"136 1340 LINE",
"116 1279 LINE",
"115 1245 LINE",
"118 1242 LINE",
"121 1232 LINE",
"121 1227 LINE",
"121 1216 LINE",
"105 1200 LINE",
"94 1200 LINE",
"83 1200 LINE",
"68 1216 LINE",
"68 1227 LINE",
"68 1232 LINE",
"71 1242 LINE",
"74 1245 LINE",
"76 1287 LINE",
"101 1362 LINE",
"151 1420 LINE",
"230 1454 LINE",
"287 1454 LINE",
"348 1454 LINE",
"429 1416 LINE",
"479 1352 LINE",
"500 1270 LINE",
"500 1227 LINE",
"500 977 LINE",
"500 926 LINE",
"465 819 LINE",
"412 770 LINE",
"170 557 LINE",
"135 526 LINE",
"111 446 LINE",
"109 395 LINE",
"109 41 LINE"
);
}
);
width = 567;
}
);
unicode = 0032;
},
{
glyphname = three;
layers = (
{
layerId = UUID0;
paths = (
{
closed = 1;
nodes = (
"475 207 LINE",
"475 163 LINE",
"454 81 LINE",
"404 18 LINE",
"323 -20 LINE",
"262 -20 LINE",
"205 -20 LINE",
"126 14 LINE",
"76 71 LINE",
"51 147 LINE",
"49 188 LINE",
"46 192 LINE",
"43 202 LINE",
"43 207 LINE",
"43 218 LINE",
"59 233 LINE",
"70 233 LINE",
"81 233 LINE",
"96 218 LINE",
"96 207 LINE",
"96 202 LINE",
"93 192 LINE",
"90 188 LINE",
"91 154 LINE",
"111 93 LINE",
"152 47 LINE",
"216 20 LINE",
"262 20 LINE",
"311 20 LINE",
"377 51 LINE",
"417 104 LINE",
"434 171 LINE",
"434 207 LINE",
"434 791 LINE",
"434 827 LINE",
"417 896 LINE",
"376 950 LINE",
"307 983 LINE",
"256 983 LINE",
"219 983 LINE",
"219 1024 LINE",
"274 1024 LINE",
"323 1024 LINE",
"386 1058 LINE",
"421 1114 LINE",
"434 1185 LINE",
"434 1221 LINE",
"434 1256 LINE",
"417 1325 LINE",
"377 1379 LINE",
"311 1413 LINE",
"262 1413 LINE",
"216 1413 LINE",
"152 1386 LINE",
"111 1340 LINE",
"91 1279 LINE",
"90 1245 LINE",
"93 1242 LINE",
"96 1232 LINE",
"96 1227 LINE",
"96 1216 LINE",
"79 1200 LINE",
"70 1200 LINE",
"59 1200 LINE",
"43 1216 LINE",
"43 1227 LINE",
"43 1232 LINE",
"46 1242 LINE",
"49 1245 LINE",
"51 1287 LINE",
"76 1362 LINE",
"126 1420 LINE",
"205 1454 LINE",
"262 1454 LINE",
"321 1454 LINE",
"403 1414 LINE",
"453 1348 LINE",
"475 1264 LINE",
"475 1221 LINE",
"475 1188 LINE",
"464 1121 LINE",
"437 1063 LINE",
"391 1017 LINE",
"356 1004 LINE",
"389 989 LINE",
"434 945 LINE",
"463 890 LINE",
"475 825 LINE",
"475 791 LINE"
);
}
);
width = 561;
}
);
unicode = 0033;
},
{
glyphname = four;
layers = (
{
layerId = UUID0;
paths = (
{
closed = 1;
nodes = (
"395 23 LINE",
"401 15 LINE",
"401 6 LINE",
"401 -5 LINE",
"386 -20 LINE",
"375 -20 LINE",
"364 -20 LINE",
"348 -5 LINE",
"348 6 LINE",
"348 15 LINE",
"354 23 LINE",
"354 983 LINE",
"2 983 LINE",
"2 1024 LINE",
"348 1427 LINE",
"348 1438 LINE",
"364 1454 LINE",
"375 1454 LINE",
"386 1454 LINE",
"401 1438 LINE",
"401 1427 LINE",
"401 1418 LINE",
"395 1409 LINE",
"395 1024 LINE",
"453 1024 LINE",
"462 1030 LINE",
"471 1030 LINE",
"482 1030 LINE",
"498 1015 LINE",
"498 1004 LINE",
"498 993 LINE",
"482 977 LINE",
"471 977 LINE",
"462 977 LINE",
"453 983 LINE",
"395 983 LINE"
);
},
{
closed = 1;
nodes = (
"354 1024 LINE",
"354 1374 LINE",
"51 1024 LINE"
);
}
);
width = 522;
}
);
unicode = 0034;
},
{
glyphname = five;
layers = (
{
layerId = UUID0;
paths = (
{
closed = 1;
nodes = (
"471 207 LINE",
"471 163 LINE",
"449 81 LINE",
"399 18 LINE",
"317 -20 LINE",
"258 -20 LINE",
"201 -20 LINE",
"122 13 LINE",
"73 68 LINE",
"48 141 LINE",
"45 182 LINE",
"39 188 LINE",
"39 201 LINE",
"39 212 LINE",
"55 227 LINE",
"66 227 LINE",
"77 227 LINE",
"92 212 LINE",
"92 201 LINE",
"92 190 LINE",
"86 184 LINE",
"88 151 LINE",
"109 91 LINE",
"149 46 LINE",
"213 20 LINE",
"258 20 LINE",
"307 20 LINE",
"373 51 LINE",
"413 104 LINE",
"430 171 LINE",
"430 207 LINE",
"430 797 LINE",
"430 833 LINE",
"413 900 LINE",
"373 952 LINE",
"307 983 LINE",
"258 983 LINE",
"86 983 LINE",
"86 1434 LINE",
"436 1434 LINE",
"445 1440 LINE",
"455 1440 LINE",
"466 1440 LINE",
"481 1424 LINE",
"481 1413 LINE",
"481 1402 LINE",
"466 1386 LINE",
"455 1386 LINE",
"446 1386 LINE",
"436 1393 LINE",
"127 1393 LINE",
"127 1024 LINE",
"258 1024 LINE",
"317 1024 LINE",
"399 986 LINE",
"449 922 LINE",
"471 840 LINE",
"471 797 LINE"
);
}
);
width = 555;
}
);
unicode = 0035;
},
{
glyphname = six;
layers = (
{
layerId = UUID0;
paths = (
{
closed = 1;
nodes = (
"518 207 LINE",
"518 163 LINE",
"496 81 LINE",
"446 18 LINE",
"364 -20 LINE",
"305 -20 LINE",
"244 -20 LINE",
"162 18 LINE",
"113 81 LINE",
"92 163 LINE",
"92 207 LINE",
"92 1221 LINE",
"92 1264 LINE",
"113 1348 LINE",
"162 1414 LINE",
"244 1454 LINE",
"305 1454 LINE",
"362 1454 LINE",
"441 1418 LINE",
"491 1358 LINE",
"516 1281 LINE",
"518 1239 LINE",
"521 1236 LINE",
"524 1226 LINE",
"524 1221 LINE",
"524 1210 LINE",
"509 1194 LINE",
"498 1194 LINE",
"487 1194 LINE",
"471 1210 LINE",
"471 1221 LINE",
"471 1231 LINE",
"477 1237 LINE",
"475 1270 LINE",
"456 1333 LINE",
"415 1383 LINE",
"351 1413 LINE",
"305 1413 LINE",
"256 1413 LINE",
"190 1379 LINE",
"150 1325 LINE",
"133 1256 LINE",
"133 1221 LINE",
"133 930 LINE",
"158 973 LINE",
"243 1024 LINE",
"305 1024 LINE",
"364 1024 LINE",
"446 984 LINE",
"496 918 LINE",
"518 834 LINE",
"518 791 LINE"
);
},
{
closed = 1;
nodes = (
"133 209 LINE",
"133 173 LINE",
"150 105 LINE",
"190 52 LINE",
"256 20 LINE",
"305 20 LINE",
"354 20 LINE",
"420 52 LINE",
"460 105 LINE",
"477 173 LINE",
"477 209 LINE",
"477 788 LINE",
"477 824 LINE",
"460 893 LINE",
"420 949 LINE",
"354 983 LINE",
"305 983 LINE",
"256 983 LINE",
"190 949 LINE",
"150 893 LINE",
"133 824 LINE",
"133 788 LINE"
);
}
);
width = 602;
}
);
unicode = 0036;
},
{
glyphname = seven;
layers = (
{
layerId = UUID0;
paths = (
{
closed = 1;
nodes = (
"158 23 LINE",
"164 15 LINE",
"164 6 LINE",
"164 -5 LINE",
"148 -20 LINE",
"137 -20 LINE",
"126 -20 LINE",
"111 -5 LINE",
"111 6 LINE",
"111 15 LINE",
"117 23 LINE",
"117 711 LINE",
"117 762 LINE",
"151 868 LINE",
"205 918 LINE",
"375 1067 LINE",
"410 1098 LINE",
"434 1178 LINE",
"436 1229 LINE",
"436 1393 LINE",
"74 1393 LINE",
"67 1386 LINE",
"57 1386 LINE",
"46 1386 LINE",
"31 1402 LINE",
"31 1413 LINE",
"31 1424 LINE",
"46 1440 LINE",
"57 1440 LINE",
"68 1440 LINE",
"74 1434 LINE",
"477 1434 LINE",
"477 1229 LINE",
"477 1205 LINE",
"472 1157 LINE",
"457 1111 LINE",
"428 1064 LINE",
"403 1042 LINE",
"236 893 LINE",
"197 858 LINE",
"158 763 LINE",
"158 711 LINE"
);
}
);
width = 502;
}
);
unicode = 0037;
},
{
glyphname = eight;
layers = (
{
layerId = UUID0;
paths = (
{
closed = 1;
nodes = (
"512 207 LINE",
"512 163 LINE",
"490 81 LINE",
"440 18 LINE",
"358 -20 LINE",
"299 -20 LINE",
"238 -20 LINE",
"156 18 LINE",
"107 81 LINE",
"86 163 LINE",
"86 207 LINE",
"86 811 LINE",
"86 843 LINE",
"98 907 LINE",
"124 963 LINE",
"166 1009 LINE",
"197 1024 LINE",
"166 1037 LINE",
"124 1080 LINE",
"98 1134 LINE",
"86 1197 LINE",
"86 1229 LINE",
"86 1271 LINE",
"107 1352 LINE",
"156 1415 LINE",
"238 1454 LINE",
"299 1454 LINE",
"360 1454 LINE",
"441 1417 LINE",
"491 1355 LINE",
"512 1274 LINE",
"512 1229 LINE",
"512 1197 LINE",
"500 1134 LINE",
"474 1080 LINE",
"430 1037 LINE",
"399 1024 LINE",
"429 1009 LINE",
"472 963 LINE",
"499 907 LINE",
"512 843 LINE",
"512 811 LINE"
);
},
{
closed = 1;
nodes = (
"127 207 LINE",
"127 171 LINE",
"144 104 LINE",
"184 51 LINE",
"250 20 LINE",
"299 20 LINE",
"348 20 LINE",
"414 51 LINE",
"454 104 LINE",
"471 171 LINE",
"471 207 LINE",
"471 811 LINE",
"471 846 LINE",
"454 915 LINE",
"414 970 LINE",
"348 1004 LINE",
"299 1004 LINE",
"250 1004 LINE",
"184 970 LINE",
"144 915 LINE",
"127 846 LINE",
"127 811 LINE"
);
},
{
closed = 1;
nodes = (
"307 1044 LINE",
"353 1046 LINE",
"416 1078 LINE",
"454 1129 LINE",
"471 1194 LINE",
"471 1229 LINE",
"471 1263 LINE",
"454 1329 LINE",
"413 1381 LINE",
"347 1413 LINE",
"299 1413 LINE",
"251 1413 LINE",
"185 1381 LINE",
"144 1329 LINE",
"127 1263 LINE",
"127 1229 LINE",
"127 1196 LINE",
"144 1131 LINE",
"182 1079 LINE",
"244 1046 LINE",
"289 1044 LINE"
);
}
);
width = 600;
}
);
unicode = 0038;
},
{
glyphname = nine;
layers = (
{
layerId = UUID0;
paths = (
{
closed = 1;
nodes = (
"510 213 LINE",
"510 169 LINE",
"489 85 LINE",
"439 20 LINE",
"358 -20 LINE",
"297 -20 LINE",
"240 -20 LINE",
"161 16 LINE",
"111 76 LINE",
"86 153 LINE",
"84 195 LINE",
"81 198 LINE",
"78 208 LINE",
"78 213 LINE",
"78 224 LINE",
"93 240 LINE",
"104 240 LINE",
"115 240 LINE",
"131 224 LINE",
"131 213 LINE",
"131 203 LINE",
"125 197 LINE",
"126 164 LINE",
"146 100 LINE",
"187 51 LINE",
"251 20 LINE",
"297 20 LINE",
"346 20 LINE",
"412 54 LINE",
"452 109 LINE",
"469 178 LINE",
"469 213 LINE",
"469 502 LINE",
"443 458 LINE",
"357 410 LINE",
"297 410 LINE",
"238 410 LINE",
"156 450 LINE",
"106 515 LINE",
"84 599 LINE",
"84 643 LINE",
"84 1227 LINE",
"84 1270 LINE",
"106 1352 LINE",
"156 1416 LINE",
"238 1454 LINE",
"297 1454 LINE",
"358 1454 LINE",
"439 1416 LINE",
"489 1352 LINE",
"510 1270 LINE",
"510 1227 LINE"
);
},
{
closed = 1;
nodes = (
"125 645 LINE",
"125 610 LINE",
"142 540 LINE",
"182 485 LINE",
"248 451 LINE",
"297 451 LINE",
"344 451 LINE",
"408 482 LINE",
"449 533 LINE",
"467 597 LINE",
"469 631 LINE",
"469 1225 LINE",
"469 1261 LINE",
"452 1329 LINE",
"412 1381 LINE",
"346 1413 LINE",
"297 1413 LINE",
"248 1413 LINE",
"182 1381 LINE",
"142 1329 LINE",
"125 1261 LINE",
"125 1225 LINE"
);
}
);
width = 602;
}
);
unicode = 0039;
},
{
glyphname = onesuperior;
layers = (
{
layerId = UUID0;
paths = (
{
closed = 1;
nodes = (
"233 858 LINE",
"240 852 LINE",
"240 842 LINE",
"240 831 LINE",
"224 815 LINE",
"213 815 LINE",
"202 815 LINE",
"186 831 LINE",
"186 842 LINE",
"186 852 LINE",
"193 858 LINE",
"193 1399 LINE",
"74 1278 LINE",
"74 1267 LINE",
"58 1251 LINE",
"47 1251 LINE",
"36 1251 LINE",
"20 1267 LINE",
"20 1278 LINE",
"20 1287 LINE",
"34 1303 LINE",
"45 1305 LINE",
"193 1454 LINE",
"233 1454 LINE"
);
}
);
width = 322;
}
);
unicode = 00B9;
},
{
glyphname = twosuperior;
layers = (
{
layerId = UUID0;
paths = (
{
closed = 1;
nodes = (
"250 877 LINE",
"259 883 LINE",
"268 883 LINE",
"279 883 LINE",
"295 867 LINE",
"295 856 LINE",
"295 845 LINE",
"279 829 LINE",
"268 829 LINE",
"258 829 LINE",
"250 836 LINE",
"80 836 LINE",
"80 1006 LINE",
"80 1030 LINE",
"102 1074 LINE",
"121 1090 LINE",
"223 1182 LINE",
"237 1194 LINE",
"256 1231 LINE",
"256 1257 LINE",
"256 1319 LINE",
"256 1361 LINE",
"225 1413 LINE",
"186 1413 LINE",
"165 1413 LINE",
"137 1399 LINE",
"120 1375 LINE",
"112 1345 LINE",
"111 1329 LINE",
"117 1323 LINE",
"117 1313 LINE",
"117 1303 LINE",
"99 1288 LINE",
"90 1288 LINE",
"79 1288 LINE",
"63 1303 LINE",
"63 1313 LINE",
"63 1324 LINE",
"70 1331 LINE",
"71 1349 LINE",
"84 1391 LINE",
"111 1429 LINE",
"154 1454 LINE",
"186 1454 LINE",
"217 1454 LINE",
"259 1433 LINE",
"285 1397 LINE",
"297 1347 LINE",
"297 1319 LINE",
"297 1247 LINE",
"297 1190 LINE",
"250 1149 LINE",
"145 1057 LINE",
"130 1044 LINE",
"119 1010 LINE",
"119 985 LINE",
"119 877 LINE"
);
}
);
width = 369;
}
);
unicode = 00B2;
},
{
glyphname = threesuperior;
layers = (
{
layerId = UUID0;
paths = (
{
closed = 1;
nodes = (
"330 969 LINE",
"330 943 LINE",
"316 891 LINE",
"284 850 LINE",
"234 825 LINE",
"197 825 LINE",
"161 825 LINE",
"112 849 LINE",
"83 885 LINE",
"69 928 LINE",
"68 948 LINE",
"64 951 LINE",
"61 962 LINE",
"61 967 LINE",
"61 976 LINE",
"77 991 LINE",
"88 991 LINE",
"97 991 LINE",
"115 978 LINE",
"115 967 LINE",
"115 956 LINE",
"109 950 LINE",
"110 918 LINE",
"152 866 LINE",
"197 866 LINE",
"223 866 LINE",
"258 884 LINE",
"280 914 LINE",
"289 951 LINE",
"289 969 LINE",
"289 1165 LINE",
"289 1185 LINE",
"262 1221 LINE",
"227 1221 LINE",
"199 1221 LINE",
"196 1216 LINE",
"185 1212 LINE",
"180 1212 LINE",
"169 1212 LINE",
"154 1228 LINE",
"154 1239 LINE",
"154 1250 LINE",
"169 1266 LINE",
"180 1266 LINE",
"185 1266 LINE",
"196 1261 LINE",
"199 1257 LINE",
"227 1257 LINE",
"245 1257 LINE",
"268 1271 LINE",
"283 1293 LINE",
"289 1321 LINE",
"289 1335 LINE",
"289 1348 LINE",
"279 1376 LINE",
"257 1398 LINE",
"224 1413 LINE",
"201 1413 LINE",
"163 1413 LINE",
"106 1369 LINE",
"106 1329 LINE",
"113 1323 LINE",
"113 1313 LINE",
"113 1303 LINE",
"95 1288 LINE",
"86 1288 LINE",
"75 1288 LINE",
"59 1303 LINE",
"59 1313 LINE",
"59 1318 LINE",
"62 1328 LINE",
"66 1331 LINE",
"66 1384 LINE",
"139 1454 LINE",
"201 1454 LINE",
"258 1454 LINE",
"330 1389 LINE",
"330 1335 LINE",
"330 1298 LINE",
"307 1255 LINE",
"287 1241 LINE",
"315 1230 LINE",
"330 1190 LINE",
"330 1165 LINE"
);
}
);
width = 406;
}
);
unicode = 00B3;
},
{
glyphname = foursuperior;
layers = (
{
layerId = UUID0;
paths = (
{
closed = 1;
nodes = (
"238 844 LINE",
"244 838 LINE",
"244 827 LINE",
"244 816 LINE",
"228 801 LINE",
"217 801 LINE",
"206 801 LINE",
"190 816 LINE",
"190 827 LINE",
"190 837 LINE",
"197 844 LINE",
"197 1192 LINE",
"25 1192 LINE",
"25 1233 LINE",
"190 1425 LINE",
"190 1427 LINE",
"190 1438 LINE",
"206 1454 LINE",
"217 1454 LINE",
"228 1454 LINE",
"244 1438 LINE",
"244 1427 LINE",
"244 1418 LINE",
"238 1409 LINE",
"238 1233 LINE",
"254 1233 LINE",
"263 1239 LINE",
"272 1239 LINE",
"283 1239 LINE",
"299 1223 LINE",
"299 1212 LINE",
"299 1201 LINE",
"283 1186 LINE",
"272 1186 LINE",
"263 1186 LINE",
"254 1192 LINE",
"238 1192 LINE"
);
},
{
closed = 1;
nodes = (
"197 1233 LINE",
"197 1374 LINE",
"74 1233 LINE"
);
}
);
width = 342;
}
);
unicode = 2074;
},
{
glyphname = fraction;
layers = (
{
layerId = UUID0;
paths = (
{
closed = 1;
nodes = (
"47 18 LINE",
"51 10 LINE",
"51 6 LINE",
"51 -5 LINE",
"36 -20 LINE",
"25 -20 LINE",
"14 -20 LINE",
"-2 -5 LINE",
"-2 6 LINE",
"-2 20 LINE",
"10 29 LINE",
"375 1415 LINE",
"373 1419 LINE",
"373 1427 LINE",
"373 1438 LINE",
"388 1454 LINE",
"399 1454 LINE",
"410 1454 LINE",
"426 1438 LINE",
"426 1427 LINE",
"426 1419 LINE",
"418 1406 LINE",
"410 1403 LINE"
);
}
);
width = 473;
}
);
unicode = 2044;
},
{
glyphname = asterisk;
layers = (
{
layerId = UUID0;
paths = (
{
closed = 1;
nodes = (
"492 993 LINE",
"501 991 LINE",
"514 976 LINE",
"514 967 LINE",
"514 956 LINE",
"498 940 LINE",
"487 940 LINE",
"476 940 LINE",
"461 956 LINE",
"461 967 LINE",
"332 1141 LINE",
"207 971 LINE",
"207 967 LINE",
"207 956 LINE",
"191 940 LINE",
"180 940 LINE",
"169 940 LINE",
"154 956 LINE",
"154 967 LINE",
"154 976 LINE",
"164 989 LINE",
"172 991 LINE",
"299 1165 LINE",
"96 1235 LINE",
"93 1233 LINE",
"90 1233 LINE",
"86 1233 LINE",
"75 1233 LINE",
"59 1249 LINE",
"59 1260 LINE",
"59 1271 LINE",
"75 1286 LINE",
"86 1286 LINE",
"92 1286 LINE",
"104 1279 LINE",
"109 1274 LINE",
"313 1206 LINE",
"313 1421 LINE",
"307 1430 LINE",
"307 1440 LINE",
"307 1451 LINE",
"323 1466 LINE",
"334 1466 LINE",
"345 1466 LINE",
"360 1451 LINE",
"360 1440 LINE",
"360 1430 LINE",
"354 1421 LINE",
"354 1206 LINE",
"559 1272 LINE",
"569 1286 LINE",
"584 1286 LINE",
"595 1286 LINE",
"610 1271 LINE",
"610 1260 LINE",
"610 1249 LINE",
"595 1233 LINE",
"584 1233 LINE",
"575 1233 LINE",
"369 1165 LINE"
);
}
);
width = 670;
}
);
unicode = 002A;
},
{
glyphname = colon;
layers = (
{
layerId = UUID0;
paths = (
{
closed = 1;
nodes = (
"131 -7 LINE",
"119 -20 LINE",
"96 -20 LINE",
"74 -20 LINE",
"51 6 LINE",
"51 25 LINE",
"51 45 LINE",
"74 72 LINE",
"96 72 LINE",
"119 72 LINE",
"143 45 LINE",
"143 25 LINE",
"143 6 LINE"
);
},
{
closed = 1;
nodes = (
"131 781 LINE",
"119 768 LINE",
"96 768 LINE",
"74 768 LINE",
"51 794 LINE",
"51 813 LINE",
"51 833 LINE",
"74 860 LINE",
"96 860 LINE",
"119 860 LINE",
"143 833 LINE",
"143 813 LINE",
"143 794 LINE"
);
}
);
width = 195;
}
);
unicode = 003A;
},
{
glyphname = comma;
layers = (
{
layerId = UUID0;
paths = (
{
closed = 1;
nodes = (
"65 -125 LINE",
"65 -136 LINE",
"50 -152 LINE",
"39 -152 LINE",
"28 -152 LINE",
"12 -136 LINE",
"12 -125 LINE",
"12 -105 LINE",
"31 -98 LINE",
"86 0 LINE",
"80 9 LINE",
"80 25 LINE",
"80 45 LINE",
"103 72 LINE",
"125 72 LINE",
"148 72 LINE",
"172 45 LINE",
"172 25 LINE",
"172 6 LINE",
"148 -20 LINE",
"125 -20 LINE",
"121 -20 LINE",
"65 -121 LINE"
);
}
);
width = 223;
}
);
leftKerningGroup = comma;
rightKerningGroup = comma;
unicode = 002C;
},
{
glyphname = exclam;
layers = (
{
layerId = UUID0;
paths = (
{
closed = 1;
nodes = (
"152 309 LINE",
"158 303 LINE",
"158 293 LINE",
"158 282 LINE",
"142 266 LINE",
"131 266 LINE",
"120 266 LINE",
"104 282 LINE",
"104 293 LINE",
"104 303 LINE",
"111 309 LINE",
"111 1409 LINE",
"104 1417 LINE",
"104 1427 LINE",
"104 1438 LINE",
"120 1454 LINE",
"131 1454 LINE",
"142 1454 LINE",
"158 1438 LINE",
"158 1427 LINE",
"158 1418 LINE",
"152 1409 LINE"
);
},
{
closed = 1;
nodes = (
"166 -7 LINE",
"154 -20 LINE",
"131 -20 LINE",
"109 -20 LINE",
"86 6 LINE",
"86 25 LINE",
"86 45 LINE",
"109 72 LINE",
"131 72 LINE",
"154 72 LINE",
"178 45 LINE",
"178 25 LINE",
"178 6 LINE"
);
}
);
width = 258;
}
);
unicode = 0021;
},
{
glyphname = exclamdown;
layers = (
{
layerId = UUID0;
paths = (
{
closed = 1;
nodes = (
"148 23 LINE",
"154 15 LINE",
"154 6 LINE",
"154 -5 LINE",
"138 -20 LINE",
"127 -20 LINE",
"116 -20 LINE",
"100 -5 LINE",
"100 6 LINE",
"100 16 LINE",
"107 23 LINE",
"107 1122 LINE",
"100 1130 LINE",
"100 1141 LINE",
"100 1152 LINE",
"116 1167 LINE",
"127 1167 LINE",
"138 1167 LINE",
"154 1152 LINE",
"154 1141 LINE",
"154 1131 LINE",
"148 1122 LINE"
);
},
{
closed = 1;
nodes = (
"162 1375 LINE",
"150 1362 LINE",
"127 1362 LINE",
"105 1362 LINE",
"82 1389 LINE",
"82 1409 LINE",
"82 1428 LINE",
"105 1454 LINE",
"127 1454 LINE",
"150 1454 LINE",
"174 1428 LINE",
"174 1409 LINE",
"174 1389 LINE"
);
}
);
width = 256;
}
);
unicode = 00A1;
},
{
glyphname = period;
layers = (
{
layerId = UUID0;
paths = (
{
closed = 1;
nodes = (
"131 -7 LINE",
"119 -20 LINE",
"96 -20 LINE",
"74 -20 LINE",
"51 6 LINE",
"51 25 LINE",
"51 45 LINE",
"74 72 LINE",
"96 72 LINE",
"119 72 LINE",
"143 45 LINE",
"143 25 LINE",
"143 6 LINE"
);
}
);
width = 195;
}
);
leftKerningGroup = comma;
rightKerningGroup = comma;
unicode = 002E;
},
{
glyphname = question;
layers = (
{
layerId = UUID0;
paths = (
{
closed = 1;
nodes = (
"291 309 LINE",
"297 303 LINE",
"297 293 LINE",
"297 282 LINE",
"281 266 LINE",
"270 266 LINE",
"259 266 LINE",
"244 282 LINE",
"244 293 LINE",
"244 303 LINE",
"250 309 LINE",
"250 674 LINE",
"250 725 LINE",
"284 831 LINE",
"338 881 LINE",
"381 918 LINE",
"416 948 LINE",
"440 1028 LINE",
"442 1079 LINE",
"442 1221 LINE",
"442 1256 LINE",
"425 1325 LINE",
"385 1379 LINE",
"319 1413 LINE",
"270 1413 LINE",
"224 1413 LINE",
"160 1383 LINE",
"119 1333 LINE",
"99 1270 LINE",
"98 1237 LINE",
"104 1231 LINE",
"104 1221 LINE",
"104 1210 LINE",
"89 1194 LINE",
"78 1194 LINE",
"67 1194 LINE",
"51 1210 LINE",
"51 1221 LINE",
"51 1226 LINE",
"54 1236 LINE",
"57 1239 LINE",
"59 1281 LINE",
"84 1358 LINE",
"134 1418 LINE",
"213 1454 LINE",
"270 1454 LINE",
"331 1454 LINE",
"412 1414 LINE",
"462 1348 LINE",
"483 1264 LINE",
"483 1221 LINE",
"483 1079 LINE",
"483 1055 LINE",
"478 1008 LINE",
"463 961 LINE",
"434 915 LINE",
"410 893 LINE",
"369 856 LINE",
"330 821 LINE",
"291 726 LINE",
"291 674 LINE"
);
},
{
closed = 1;
nodes = (
"306 -7 LINE",
"294 -20 LINE",
"271 -20 LINE",
"249 -20 LINE",
"226 6 LINE",
"226 25 LINE",
"226 45 LINE",
"249 72 LINE",
"271 72 LINE",
"294 72 LINE",
"318 45 LINE",
"318 25 LINE",
"318 6 LINE"
);
}
);
width = 555;
}
);
unicode = 003F;
},
{
glyphname = quotesingle;
layers = (
{
layerId = UUID0;
paths = (
{
closed = 1;
nodes = (
"131 1202 LINE",
"137 1196 LINE",
"137 1186 LINE",
"137 1175 LINE",
"122 1159 LINE",
"111 1159 LINE",
"100 1159 LINE",
"84 1175 LINE",
"84 1186 LINE",
"84 1196 LINE",
"90 1202 LINE",
"90 1366 LINE",
"78 1371 LINE",
"66 1393 LINE",
"66 1407 LINE",
"66 1427 LINE",
"89 1454 LINE",
"111 1454 LINE",
"134 1454 LINE",
"158 1427 LINE",
"158 1407 LINE",
"158 1393 LINE",
"143 1370 LINE",
"131 1364 LINE"
);
}
);
width = 219;
}
);
leftKerningGroup = quotedbl;
unicode = 0027;
},
{
glyphname = semicolon;
layers = (
{
layerId = UUID0;
paths = (
{
closed = 1;
nodes = (
"65 -125 LINE",
"65 -136 LINE",
"50 -152 LINE",
"39 -152 LINE",
"28 -152 LINE",
"12 -136 LINE",
"12 -125 LINE",
"12 -105 LINE",
"31 -98 LINE",
"88 -2 LINE",
"80 6 LINE",
"80 25 LINE",
"80 45 LINE",
"103 72 LINE",
"125 72 LINE",
"148 72 LINE",
"172 45 LINE",
"172 25 LINE",
"172 6 LINE",
"148 -20 LINE",
"125 -20 LINE",
"123 -20 LINE"
);
},
{
closed = 1;
nodes = (
"160 781 LINE",
"148 768 LINE",
"125 768 LINE",
"103 768 LINE",
"80 794 LINE",
"80 813 LINE",
"80 833 LINE",
"103 860 LINE",
"125 860 LINE",
"148 860 LINE",
"172 833 LINE",
"172 813 LINE",
"172 794 LINE"
);
}
);
width = 223;
}
);
unicode = 003B;
},
{
glyphname = slash;
layers = (
{
layerId = UUID0;
paths = (
{
closed = 1;
nodes = (
"96 -182 LINE",
"100 -190 LINE",
"100 -195 LINE",
"100 -206 LINE",
"85 -221 LINE",
"74 -221 LINE",
"63 -221 LINE",
"47 -206 LINE",
"47 -195 LINE",
"47 -177 LINE",
"61 -170 LINE",
"475 1415 LINE",
"473 1419 LINE",
"473 1427 LINE",
"473 1438 LINE",
"489 1454 LINE",
"500 1454 LINE",
"511 1454 LINE",
"526 1438 LINE",
"526 1427 LINE",
"526 1419 LINE",
"518 1406 LINE",
"510 1403 LINE"
);
}
);
width = 575;
}
);
unicode = 002F;
},
{
glyphname = braceleft;
layers = (
{
layerId = UUID0;
paths = (
{
closed = 1;
nodes = (
"231 80 LINE",
"231 45 LINE",
"247 -25 LINE",
"283 -82 LINE",
"342 -120 LINE",
"385 -123 LINE",
"391 -117 LINE",
"403 -117 LINE",
"414 -117 LINE",
"430 -132 LINE",
"430 -143 LINE",
"430 -154 LINE",
"414 -170 LINE",
"403 -170 LINE",
"393 -170 LINE",
"385 -162 LINE",
"331 -159 LINE",
"256 -115 LINE",
"210 -47 LINE",
"190 37 LINE",
"190 80 LINE",
"190 504 LINE",
"190 539 LINE",
"172 608 LINE",
"129 662 LINE",
"56 696 LINE",
"2 696 LINE",
"2 737 LINE",
"56 737 LINE",
"129 771 LINE",
"172 826 LINE",
"190 895 LINE",
"190 930 LINE",
"190 1354 LINE",
"190 1397 LINE",
"210 1480 LINE",
"256 1548 LINE",
"331 1592 LINE",
"385 1595 LINE",
"388 1598 LINE",
"397 1604 LINE",
"403 1604 LINE",
"414 1604 LINE",
"430 1588 LINE",
"430 1577 LINE",
"430 1566 LINE",
"414 1550 LINE",
"403 1550 LINE",
"391 1550 LINE",
"385 1556 LINE",
"342 1553 LINE",
"283 1516 LINE",
"247 1459 LINE",
"231 1389 LINE",
"231 1354 LINE",
"231 930 LINE",
"231 896 LINE",
"219 832 LINE",
"191 776 LINE",
"146 731 LINE",
"113 717 LINE",
"146 703 LINE",
"191 658 LINE",
"219 602 LINE",
"231 538 LINE",
"231 504 LINE"
);
}
);
width = 451;
}
);
unicode = 007B;
},
{
glyphname = bracketleft;
layers = (
{
layerId = UUID0;
paths = (
{
closed = 1;
nodes = (
"303 -123 LINE",
"312 -117 LINE",
"322 -117 LINE",
"333 -117 LINE",
"348 -132 LINE",
"348 -143 LINE",
"348 -154 LINE",
"333 -170 LINE",
"322 -170 LINE",
"312 -170 LINE",
"303 -164 LINE",
"102 -164 LINE",
"102 1597 LINE",
"303 1597 LINE",
"311 1604 LINE",
"322 1604 LINE",
"333 1604 LINE",
"348 1588 LINE",
"348 1577 LINE",
"348 1566 LINE",
"333 1550 LINE",
"322 1550 LINE",
"312 1550 LINE",
"303 1556 LINE",
"145 1556 LINE",
"145 -123 LINE"
);
}
);
width = 371;
}
);
unicode = 005B;
},
{
glyphname = parenleft;
layers = (
{
layerId = UUID0;
paths = (
{
closed = 1;
nodes = (
"135 63 LINE",
"135 28 LINE",
"150 -37 LINE",
"187 -88 LINE",
"248 -121 LINE",
"293 -123 LINE",
"296 -121 LINE",
"302 -119 LINE",
"307 -119 LINE",
"318 -119 LINE",
"334 -134 LINE",
"334 -145 LINE",
"334 -156 LINE",
"318 -172 LINE",
"307 -172 LINE",
"294 -172 LINE",
"287 -162 LINE",
"232 -159 LINE",
"158 -119 LINE",
"113 -57 LINE",
"94 22 LINE",
"94 63 LINE",
"94 1364 LINE",
"94 1406 LINE",
"113 1487 LINE",
"159 1551 LINE",
"233 1592 LINE",
"289 1595 LINE",
"292 1598 LINE",
"301 1604 LINE",
"307 1604 LINE",
"318 1604 LINE",
"334 1588 LINE",
"334 1577 LINE",
"334 1566 LINE",
"318 1550 LINE",
"307 1550 LINE",
"299 1550 LINE",
"291 1554 LINE",
"246 1551 LINE",
"186 1516 LINE",
"150 1463 LINE",
"135 1398 LINE",
"135 1364 LINE"
);
}
);
width = 354;
}
);
unicode = 0028;
},
{
glyphname = emdash;
layers = (
{
layerId = UUID0;
paths = (
{
closed = 1;
nodes = (
"752 616 LINE",
"760 623 LINE",
"770 623 LINE",
"781 623 LINE",
"797 607 LINE",
"797 596 LINE",
"797 585 LINE",
"781 569 LINE",
"770 569 LINE",
"761 569 LINE",
"752 575 LINE",
"88 575 LINE",
"82 569 LINE",
"72 569 LINE",
"61 569 LINE",
"45 585 LINE",
"45 596 LINE",
"45 607 LINE",
"61 623 LINE",
"72 623 LINE",
"82 623 LINE",
"88 616 LINE"
);
}
);
width = 844;
}
);
leftKerningGroup = hyphen;
rightKerningGroup = hyphen;
unicode = 2014;
},
{
glyphname = endash;
layers = (
{
layerId = UUID0;
paths = (
{
closed = 1;
nodes = (
"586 616 LINE",
"594 623 LINE",
"604 623 LINE",
"615 623 LINE",
"631 607 LINE",
"631 596 LINE",
"631 585 LINE",
"615 569 LINE",
"604 569 LINE",
"595 569 LINE",
"586 575 LINE",
"88 575 LINE",
"82 569 LINE",
"72 569 LINE",
"61 569 LINE",
"45 585 LINE",
"45 596 LINE",
"45 607 LINE",
"61 623 LINE",
"72 623 LINE",
"82 623 LINE",
"88 616 LINE"
);
}
);
width = 678;
}
);
leftKerningGroup = hyphen;
rightKerningGroup = hyphen;
unicode = 2013;
},
{
glyphname = hyphen;
layers = (
{
layerId = UUID0;
paths = (
{
closed = 1;
nodes = (
"520 616 LINE",
"528 623 LINE",
"539 623 LINE",
"550 623 LINE",
"565 607 LINE",
"565 596 LINE",
"565 585 LINE",
"550 569 LINE",
"539 569 LINE",
"529 569 LINE",
"520 575 LINE",
"94 575 LINE",
"88 569 LINE",
"78 569 LINE",
"67 569 LINE",
"51 585 LINE",
"51 596 LINE",
"51 607 LINE",
"67 623 LINE",
"78 623 LINE",
"88 623 LINE",
"94 616 LINE"
);
}
);
width = 618;
}
);
leftKerningGroup = hyphen;
rightKerningGroup = hyphen;
unicode = 002D;
},
{
glyphname = softhyphen;
layers = (
{
layerId = UUID0;
paths = (
{
closed = 1;
nodes = (
"520 616 LINE",
"528 623 LINE",
"539 623 LINE",
"550 623 LINE",
"565 607 LINE",
"565 596 LINE",
"565 585 LINE",
"550 569 LINE",
"539 569 LINE",
"529 569 LINE",
"520 575 LINE",
"94 575 LINE",
"88 569 LINE",
"78 569 LINE",
"67 569 LINE",
"51 585 LINE",
"51 596 LINE",
"51 607 LINE",
"67 623 LINE",
"78 623 LINE",
"88 623 LINE",
"94 616 LINE"
);
}
);
width = 618;
}
);
leftKerningGroup = hyphen;
rightKerningGroup = hyphen;
unicode = 00AD;
},
{
glyphname = guilsinglleft;
layers = (
{
layerId = UUID0;
paths = (
{
closed = 1;
nodes = (
"438 166 LINE",
"448 164 LINE",
"463 149 LINE",
"463 139 LINE",
"463 128 LINE",
"447 113 LINE",
"436 113 LINE",
"425 113 LINE",
"410 128 LINE",
"410 139 LINE",
"72 475 LINE",
"61 475 LINE",
"45 491 LINE",
"45 502 LINE",
"45 511 LINE",
"59 526 LINE",
"70 528 LINE",
"410 866 LINE",
"410 876 LINE",
"425 891 LINE",
"436 891 LINE",
"447 891 LINE",
"463 875 LINE",
"463 864 LINE",
"463 853 LINE",
"447 838 LINE",
"436 838 LINE",
"98 502 LINE"
);
}
);
width = 545;
}
);
leftKerningGroup = guillemotleft;
rightKerningGroup = guillemotleft;
unicode = 2039;
},
{
glyphname = .notdef;
layers = (
{
layerId = UUID0;
paths = (
{
closed = 1;
nodes = (
"508 233 LINE",
"508 189 LINE",
"487 106 LINE",
"438 40 LINE",
"355 0 LINE",
"293 0 LINE",
"82 0 LINE",
"82 791 LINE",
"82 834 LINE",
"102 918 LINE",
"152 984 LINE",
"235 1024 LINE",
"297 1024 LINE",
"508 1024 LINE"
);
},
{
closed = 1;
nodes = (
"293 41 LINE",
"344 41 LINE",
"411 75 LINE",
"451 129 LINE",
"467 198 LINE",
"467 233 LINE",
"467 983 LINE",
"297 983 LINE",
"246 983 LINE",
"179 949 LINE",
"139 895 LINE",
"123 826 LINE",
"123 791 LINE",
"123 41 LINE"
);
}
);
width = 590;
}
);
},
{
glyphname = cent;
layers = (
{
layerId = UUID0;
paths = (
{
closed = 1;
nodes = (
"127 215 LINE",
"127 179 LINE",
"144 109 LINE",
"183 54 LINE",
"249 20 LINE",
"297 20 LINE",
"343 20 LINE",
"407 49 LINE",
"448 98 LINE",
"467 161 LINE",
"469 195 LINE",
"466 198 LINE",
"463 208 LINE",
"463 213 LINE",
"463 222 LINE",
"478 238 LINE",
"489 238 LINE",
"500 238 LINE",
"516 223 LINE",
"516 213 LINE",
"516 208 LINE",
"513 198 LINE",
"510 195 LINE",
"507 153 LINE",
"483 76 LINE",
"432 16 LINE",
"393 -2 LINE",
"362 -16 LINE",
"319 -19 LINE",
"319 -127 LINE",
"326 -135 LINE",
"326 -145 LINE",
"326 -156 LINE",
"310 -172 LINE",
"299 -172 LINE",
"288 -172 LINE",
"272 -156 LINE",
"272 -145 LINE",
"272 -135 LINE",
"279 -127 LINE",
"279 -19 LINE",
"231 -17 LINE",
"196 0 LINE",
"156 21 LINE",
"107 87 LINE",
"86 171 LINE",
"86 215 LINE",
"86 809 LINE",
"86 853 LINE",
"107 937 LINE",
"156 1003 LINE",
"196 1023 LINE",
"231 1041 LINE",
"279 1043 LINE",
"279 1149 LINE",
"272 1157 LINE",
"272 1167 LINE",
"272 1178 LINE",
"288 1194 LINE",
"299 1194 LINE",
"310 1194 LINE",
"326 1178 LINE",
"326 1167 LINE",
"326 1157 LINE",
"319 1149 LINE",
"319 1043 LINE",
"362 1040 LINE",
"393 1026 LINE",
"432 1008 LINE",
"483 948 LINE",
"507 871 LINE",
"510 829 LINE",
"513 826 LINE",
"516 816 LINE",
"516 811 LINE",
"516 800 LINE",
"500 786 LINE",
"489 786 LINE",
"478 786 LINE",
"463 800 LINE",
"463 811 LINE",
"463 821 LINE",
"469 827 LINE",
"467 860 LINE",
"448 924 LINE",
"407 973 LINE",
"343 1004 LINE",
"297 1004 LINE",
"249 1004 LINE",
"183 969 LINE",
"144 914 LINE",
"127 844 LINE",
"127 809 LINE"
);
}
);
width = 582;
}
);
unicode = 00A2;
},
{
glyphname = currency;
layers = (
{
layerId = UUID0;
paths = (
{
closed = 1;
nodes = (
"606 498 LINE",
"617 498 LINE",
"633 482 LINE",
"633 471 LINE",
"633 460 LINE",
"617 444 LINE",
"606 444 LINE",
"595 444 LINE",
"580 458 LINE",
"580 469 LINE",
"483 563 LINE",
"481 538 LINE",
"466 490 LINE",
"435 453 LINE",
"386 430 LINE",
"352 430 LINE",
"317 430 LINE",
"267 453 LINE",
"235 490 LINE",
"220 538 LINE",
"219 563 LINE",
"123 469 LINE",
"121 458 LINE",
"106 444 LINE",
"96 444 LINE",
"85 444 LINE",
"70 460 LINE",
"70 471 LINE",
"70 482 LINE",
"85 498 LINE",
"96 498 LINE",
"219 618 LINE",
"219 870 LINE",
"96 991 LINE",
"85 991 LINE",
"70 1007 LINE",
"70 1018 LINE",
"70 1029 LINE",
"85 1044 LINE",
"96 1044 LINE",
"106 1044 LINE",
"121 1029 LINE",
"123 1020 LINE",
"219 926 LINE",
"220 950 LINE",
"235 998 LINE",
"267 1036 LINE",
"317 1059 LINE",
"352 1059 LINE",
"386 1059 LINE",
"435 1036 LINE",
"466 998 LINE",
"481 950 LINE",
"483 926 LINE",
"580 1020 LINE",
"580 1029 LINE",
"595 1044 LINE",
"606 1044 LINE",
"617 1044 LINE",
"633 1029 LINE",
"633 1018 LINE",
"633 1007 LINE",
"617 991 LINE",
"606 991 LINE",
"483 870 LINE",
"483 618 LINE"
);
},
{
closed = 1;
nodes = (
"260 573 LINE",
"260 555 LINE",
"269 518 LINE",
"291 489 LINE",
"326 471 LINE",
"352 471 LINE",
"378 471 LINE",
"413 489 LINE",
"434 518 LINE",
"442 555 LINE",
"442 573 LINE",
"442 915 LINE",
"442 934 LINE",
"434 971 LINE",
"413 1000 LINE",
"378 1018 LINE",
"352 1018 LINE",
"326 1018 LINE",
"291 1000 LINE",
"269 971 LINE",
"260 934 LINE",
"260 915 LINE"
);
}
);
width = 702;
}
);
unicode = 00A4;
},
{
glyphname = dollar;
layers = (
{
layerId = UUID0;
paths = (
{
closed = 1;
nodes = (
"506 207 LINE",
"506 163 LINE",
"484 81 LINE",
"434 18 LINE",
"393 -1 LINE",
"357 -17 LINE",
"306 -20 LINE",
"306 -127 LINE",
"312 -136 LINE",
"312 -145 LINE",
"312 -156 LINE",
"297 -172 LINE",
"286 -172 LINE",
"275 -172 LINE",
"259 -156 LINE",
"259 -145 LINE",
"259 -136 LINE",
"265 -127 LINE",
"265 -19 LINE",
"225 -16 LINE",
"195 -3 LINE",
"156 14 LINE",
"105 71 LINE",
"81 147 LINE",
"78 188 LINE",
"75 192 LINE",
"72 202 LINE",
"72 207 LINE",
"72 218 LINE",
"88 233 LINE",
"99 233 LINE",
"110 233 LINE",
"125 218 LINE",
"125 207 LINE",
"125 202 LINE",
"122 192 LINE",
"119 188 LINE",
"120 154 LINE",
"140 93 LINE",
"181 47 LINE",
"245 20 LINE",
"291 20 LINE",
"340 20 LINE",
"407 51 LINE",
"447 104 LINE",
"465 171 LINE",
"465 207 LINE",
"465 463 LINE",
"465 515 LINE",
"424 610 LINE",
"386 645 LINE",
"146 858 LINE",
"121 880 LINE",
"91 927 LINE",
"75 973 LINE",
"70 1020 LINE",
"70 1044 LINE",
"70 1221 LINE",
"70 1264 LINE",
"92 1348 LINE",
"142 1414 LINE",
"183 1434 LINE",
"217 1450 LINE",
"265 1453 LINE",
"265 1559 LINE",
"259 1568 LINE",
"259 1577 LINE",
"259 1588 LINE",
"275 1604 LINE",
"286 1604 LINE",
"297 1604 LINE",
"312 1588 LINE",
"312 1577 LINE",
"312 1568 LINE",
"306 1559 LINE",
"306 1453 LINE",
"349 1450 LINE",
"381 1436 LINE",
"421 1418 LINE",
"471 1358 LINE",
"496 1281 LINE",
"498 1239 LINE",
"501 1236 LINE",
"504 1226 LINE",
"504 1221 LINE",
"504 1210 LINE",
"489 1194 LINE",
"478 1194 LINE",
"467 1194 LINE",
"451 1210 LINE",
"451 1221 LINE",
"451 1231 LINE",
"457 1237 LINE",
"455 1270 LINE",
"436 1333 LINE",
"395 1383 LINE",
"331 1413 LINE",
"285 1413 LINE",
"236 1413 LINE",
"169 1379 LINE",
"129 1325 LINE",
"111 1256 LINE",
"111 1221 LINE",
"111 1044 LINE",
"113 993 LINE",
"140 914 LINE",
"175 883 LINE",
"416 670 LINE",
"470 620 LINE",
"506 514 LINE",
"506 463 LINE"
);
}
);
width = 580;
}
);
unicode = 0024;
},
{
glyphname = euro;
layers = (
{
layerId = UUID0;
paths = (
{
closed = 1;
nodes = (
"500 840 LINE",
"509 846 LINE",
"518 846 LINE",
"529 846 LINE",
"545 830 LINE",
"545 819 LINE",
"545 808 LINE",
"529 793 LINE",
"518 793 LINE",
"509 793 LINE",
"500 799 LINE",
"238 799 LINE",
"238 207 LINE",
"238 171 LINE",
"255 104 LINE",
"295 51 LINE",
"361 20 LINE",
"410 20 LINE",
"456 20 LINE",
"520 47 LINE",
"561 93 LINE",
"580 154 LINE",
"582 188 LINE",
"579 192 LINE",
"576 202 LINE",
"576 207 LINE",
"576 218 LINE",
"591 233 LINE",
"602 233 LINE",
"613 233 LINE",
"629 218 LINE",
"629 207 LINE",
"629 202 LINE",
"626 192 LINE",
"623 188 LINE",
"621 147 LINE",
"596 71 LINE",
"546 14 LINE",
"467 -20 LINE",
"410 -20 LINE",
"349 -20 LINE",
"267 18 LINE",
"218 81 LINE",
"197 163 LINE",
"197 207 LINE",
"197 799 LINE",
"100 799 LINE",
"94 793 LINE",
"84 793 LINE",
"73 793 LINE",
"57 808 LINE",
"57 819 LINE",
"57 830 LINE",
"73 846 LINE",
"84 846 LINE",
"94 846 LINE",
"100 840 LINE",
"197 840 LINE",
"197 983 LINE",
"100 983 LINE",
"94 977 LINE",
"84 977 LINE",
"73 977 LINE",
"57 993 LINE",
"57 1004 LINE",
"57 1015 LINE",
"73 1030 LINE",
"84 1030 LINE",
"94 1030 LINE",
"100 1024 LINE",
"197 1024 LINE",
"197 1221 LINE",
"197 1264 LINE",
"218 1348 LINE",
"267 1414 LINE",
"349 1454 LINE",
"410 1454 LINE",
"467 1454 LINE",
"546 1418 LINE",
"596 1358 LINE",
"621 1281 LINE",
"623 1239 LINE",
"626 1236 LINE",
"629 1226 LINE",
"629 1221 LINE",
"629 1210 LINE",
"613 1194 LINE",
"602 1194 LINE",
"591 1194 LINE",
"576 1210 LINE",
"576 1221 LINE",
"576 1231 LINE",
"582 1237 LINE",
"580 1270 LINE",
"561 1333 LINE",
"520 1383 LINE",
"456 1413 LINE",
"410 1413 LINE",
"361 1413 LINE",
"295 1379 LINE",
"255 1325 LINE",
"238 1256 LINE",
"238 1221 LINE",
"238 1024 LINE",
"500 1024 LINE",
"509 1030 LINE",
"518 1030 LINE",
"529 1030 LINE",
"545 1015 LINE",
"545 1004 LINE",
"545 993 LINE",
"529 977 LINE",
"518 977 LINE",
"509 977 LINE",
"500 983 LINE",
"238 983 LINE",
"238 840 LINE"
);
}
);
width = 702;
}
);
unicode = 20AC;
},
{
glyphname = sterling;
layers = (
{
layerId = UUID0;
paths = (
{
closed = 1;
nodes = (
"584 41 LINE",
"593 47 LINE",
"602 47 LINE",
"613 47 LINE",
"629 31 LINE",
"629 20 LINE",
"629 9 LINE",
"613 -6 LINE",
"602 -6 LINE",
"593 -6 LINE",
"584 0 LINE",
"188 0 LINE",
"188 983 LINE",
"92 983 LINE",
"86 977 LINE",
"76 977 LINE",
"65 977 LINE",
"49 993 LINE",
"49 1004 LINE",
"49 1015 LINE",
"65 1030 LINE",
"76 1030 LINE",
"86 1030 LINE",
"92 1024 LINE",
"188 1024 LINE",
"188 1202 LINE",
"188 1246 LINE",
"209 1329 LINE",
"258 1394 LINE",
"341 1434 LINE",
"403 1434 LINE",
"582 1434 LINE",
"591 1440 LINE",
"600 1440 LINE",
"611 1440 LINE",
"627 1424 LINE",
"627 1413 LINE",
"627 1402 LINE",
"611 1386 LINE",
"600 1386 LINE",
"592 1386 LINE",
"582 1393 LINE",
"403 1393 LINE",
"352 1393 LINE",
"285 1360 LINE",
"245 1306 LINE",
"229 1237 LINE",
"229 1202 LINE",
"229 1024 LINE",
"522 1024 LINE",
"531 1030 LINE",
"541 1030 LINE",
"552 1030 LINE",
"567 1015 LINE",
"567 1004 LINE",
"567 993 LINE",
"552 977 LINE",
"541 977 LINE",
"531 977 LINE",
"522 983 LINE",
"229 983 LINE",
"229 41 LINE"
);
}
);
width = 702;
}
);
unicode = 00A3;
},
{
glyphname = yen;
layers = (
{
layerId = UUID0;
paths = (
{
closed = 1;
nodes = (
"328 23 LINE",
"334 15 LINE",
"334 6 LINE",
"334 -5 LINE",
"318 -20 LINE",
"307 -20 LINE",
"296 -20 LINE",
"281 -5 LINE",
"281 6 LINE",
"281 15 LINE",
"287 23 LINE",
"287 799 LINE",
"106 799 LINE",
"100 793 LINE",
"90 793 LINE",
"79 793 LINE",
"63 808 LINE",
"63 819 LINE",
"63 830 LINE",
"79 846 LINE",
"90 846 LINE",
"100 846 LINE",
"106 840 LINE",
"287 840 LINE",
"287 983 LINE",
"106 983 LINE",
"100 977 LINE",
"90 977 LINE",
"79 977 LINE",
"63 993 LINE",
"63 1004 LINE",
"63 1015 LINE",
"79 1030 LINE",
"90 1030 LINE",
"100 1030 LINE",
"106 1024 LINE",
"287 1024 LINE",
"80 1403 LINE",
"63 1410 LINE",
"63 1427 LINE",
"63 1438 LINE",
"79 1454 LINE",
"90 1454 LINE",
"101 1454 LINE",
"117 1438 LINE",
"117 1427 LINE",
"117 1421 LINE",
"115 1417 LINE",
"303 1073 LINE",
"309 1073 LINE",
"498 1417 LINE",
"498 1427 LINE",
"498 1438 LINE",
"513 1454 LINE",
"524 1454 LINE",
"535 1454 LINE",
"551 1438 LINE",
"551 1427 LINE",
"551 1418 LINE",
"541 1406 LINE",
"535 1403 LINE",
"328 1024 LINE",
"506 1024 LINE",
"515 1030 LINE",
"524 1030 LINE",
"535 1030 LINE",
"551 1015 LINE",
"551 1004 LINE",
"551 993 LINE",
"535 977 LINE",
"524 977 LINE",
"515 977 LINE",
"506 983 LINE",
"328 983 LINE",
"328 840 LINE",
"506 840 LINE",
"515 846 LINE",
"524 846 LINE",
"535 846 LINE",
"551 830 LINE",
"551 819 LINE",
"551 808 LINE",
"535 793 LINE",
"524 793 LINE",
"515 793 LINE",
"506 799 LINE",
"328 799 LINE"
);
}
);
width = 614;
}
);
unicode = 00A5;
},
{
glyphname = plus;
layers = (
{
layerId = UUID0;
paths = (
{
closed = 1;
nodes = (
"594 571 LINE",
"602 578 LINE",
"612 578 LINE",
"623 578 LINE",
"639 562 LINE",
"639 551 LINE",
"639 540 LINE",
"623 524 LINE",
"612 524 LINE",
"603 524 LINE",
"594 530 LINE",
"369 530 LINE",
"369 301 LINE",
"375 295 LINE",
"375 285 LINE",
"375 274 LINE",
"359 258 LINE",
"348 258 LINE",
"337 258 LINE",
"322 274 LINE",
"322 285 LINE",
"322 295 LINE",
"328 301 LINE",
"328 530 LINE",
"96 530 LINE",
"90 524 LINE",
"80 524 LINE",
"69 524 LINE",
"53 540 LINE",
"53 551 LINE",
"53 562 LINE",
"69 578 LINE",
"80 578 LINE",
"90 578 LINE",
"96 571 LINE",
"328 571 LINE",
"328 799 LINE",
"322 808 LINE",
"322 817 LINE",
"322 828 LINE",
"337 844 LINE",
"348 844 LINE",
"359 844 LINE",
"375 828 LINE",
"375 817 LINE",
"375 808 LINE",
"369 799 LINE",
"369 571 LINE"
);
}
);
width = 694;
}
);
unicode = 002B;
},
{
glyphname = multiply;
layers = (
{
layerId = UUID0;
paths = (
{
closed = 1;
nodes = (
"475 385 LINE",
"484 385 LINE",
"492 379 LINE",
"500 371 LINE",
"500 350 LINE",
"492 342 LINE",
"484 334 LINE",
"463 334 LINE",
"455 342 LINE",
"452 345 LINE",
"449 353 LINE",
"447 356 LINE",
"283 522 LINE",
"121 360 LINE",
"121 350 LINE",
"115 344 LINE",
"107 336 LINE",
"84 336 LINE",
"76 344 LINE",
"68 352 LINE",
"68 373 LINE",
"76 381 LINE",
"82 387 LINE",
"90 387 LINE",
"254 551 LINE",
"92 711 LINE",
"89 713 LINE",
"81 716 LINE",
"78 719 LINE",
"70 727 LINE",
"70 748 LINE",
"78 756 LINE",
"86 764 LINE",
"107 764 LINE",
"115 756 LINE",
"121 750 LINE",
"121 739 LINE",
"283 580 LINE",
"444 741 LINE",
"446 746 LINE",
"450 755 LINE",
"453 758 LINE",
"461 766 LINE",
"482 766 LINE",
"490 758 LINE",
"498 750 LINE",
"498 727 LINE",
"490 719 LINE",
"481 711 LINE",
"471 711 LINE",
"311 551 LINE"
);
}
);
width = 590;
}
);
unicode = 00D7;
},
{
glyphname = less;
layers = (
{
layerId = UUID0;
paths = (
{
closed = 1;
nodes = (
"655 457 LINE",
"657 459 LINE",
"664 459 LINE",
"675 459 LINE",
"690 443 LINE",
"690 432 LINE",
"690 421 LINE",
"675 406 LINE",
"664 406 LINE",
"654 406 LINE",
"640 416 LINE",
"637 424 LINE",
"82 725 LINE",
"76 725 LINE",
"65 725 LINE",
"49 741 LINE",
"49 752 LINE",
"49 763 LINE",
"65 778 LINE",
"76 778 LINE",
"80 778 LINE",
"82 776 LINE",
"637 1077 LINE",
"643 1098 LINE",
"664 1098 LINE",
"675 1098 LINE",
"690 1082 LINE",
"690 1071 LINE",
"690 1060 LINE",
"675 1044 LINE",
"664 1044 LINE",
"655 1044 LINE",
"113 752 LINE"
);
}
);
width = 764;
}
);
unicode = 003C;
},
{
glyphname = plusminus;
layers = (
{
layerId = UUID0;
paths = (
{
closed = 1;
nodes = (
"617 571 LINE",
"625 578 LINE",
"635 578 LINE",
"646 578 LINE",
"662 562 LINE",
"662 551 LINE",
"662 540 LINE",
"646 524 LINE",
"635 524 LINE",
"626 524 LINE",
"617 530 LINE",
"389 530 LINE",
"389 401 LINE",
"395 395 LINE",
"395 385 LINE",
"395 374 LINE",
"380 358 LINE",
"369 358 LINE",
"358 358 LINE",
"342 374 LINE",
"342 385 LINE",
"342 395 LINE",
"348 401 LINE",
"348 530 LINE",
"119 530 LINE",
"113 524 LINE",
"103 524 LINE",
"92 524 LINE",
"76 540 LINE",
"76 551 LINE",
"76 562 LINE",
"92 578 LINE",
"103 578 LINE",
"113 578 LINE",
"119 571 LINE",
"348 571 LINE",
"348 797 LINE",
"342 806 LINE",
"342 815 LINE",
"342 826 LINE",
"358 842 LINE",
"369 842 LINE",
"380 842 LINE",
"395 826 LINE",
"395 815 LINE",
"395 806 LINE",
"389 797 LINE",
"389 571 LINE"
);
},
{
closed = 1;
nodes = (
"617 305 LINE",
"625 312 LINE",
"635 312 LINE",
"646 312 LINE",
"662 296 LINE",
"662 285 LINE",
"662 274 LINE",
"646 258 LINE",
"635 258 LINE",
"626 258 LINE",
"617 264 LINE",
"119 264 LINE",
"113 258 LINE",
"103 258 LINE",
"92 258 LINE",
"76 274 LINE",
"76 285 LINE",
"76 296 LINE",
"92 312 LINE",
"103 312 LINE",
"113 312 LINE",
"119 305 LINE"
);
}
);
width = 737;
}
);
unicode = 00B1;
},
{
glyphname = logicalnot;
layers = (
{
layerId = UUID0;
paths = (
{
closed = 1;
nodes = (
"584 510 LINE",
"590 504 LINE",
"590 494 LINE",
"590 483 LINE",
"574 467 LINE",
"563 467 LINE",
"552 467 LINE",
"537 483 LINE",
"537 494 LINE",
"537 504 LINE",
"543 510 LINE",
"543 735 LINE",
"117 735 LINE",
"111 729 LINE",
"100 729 LINE",
"89 729 LINE",
"74 745 LINE",
"74 756 LINE",
"74 767 LINE",
"89 782 LINE",
"100 782 LINE",
"111 782 LINE",
"117 776 LINE",
"543 776 LINE",
"552 782 LINE",
"561 782 LINE",
"572 782 LINE",
"588 767 LINE",
"588 756 LINE",
"588 749 LINE",
"584 741 LINE"
);
}
);
width = 676;
}
);
unicode = 00AC;
},
{
glyphname = micro;
layers = (
{
layerId = UUID0;
paths = (
{
closed = 1;
nodes = (
"518 23 LINE",
"524 15 LINE",
"524 6 LINE",
"524 -5 LINE",
"509 -20 LINE",
"498 -20 LINE",
"487 -20 LINE",
"471 -5 LINE",
"471 6 LINE",
"471 15 LINE",
"477 23 LINE",
"477 66 LINE",
"449 27 LINE",
"369 -20 LINE",
"307 -20 LINE",
"244 -20 LINE",
"160 24 LINE",
"137 59 LINE",
"137 -188 LINE",
"138 -223 LINE",
"154 -291 LINE",
"191 -345 LINE",
"252 -381 LINE",
"297 -383 LINE",
"306 -377 LINE",
"315 -377 LINE",
"326 -377 LINE",
"342 -392 LINE",
"342 -403 LINE",
"342 -414 LINE",
"326 -430 LINE",
"315 -430 LINE",
"306 -430 LINE",
"297 -424 LINE",
"240 -422 LINE",
"163 -379 LINE",
"116 -313 LINE",
"96 -230 LINE",
"96 -188 LINE",
"96 999 LINE",
"90 1009 LINE",
"90 1018 LINE",
"90 1029 LINE",
"106 1044 LINE",
"117 1044 LINE",
"128 1044 LINE",
"143 1029 LINE",
"143 1018 LINE",
"143 1009 LINE",
"137 999 LINE",
"137 201 LINE",
"138 167 LINE",
"156 102 LINE",
"195 51 LINE",
"259 20 LINE",
"307 20 LINE",
"350 20 LINE",
"414 54 LINE",
"456 110 LINE",
"477 180 LINE",
"477 215 LINE",
"477 999 LINE",
"471 1009 LINE",
"471 1018 LINE",
"471 1029 LINE",
"487 1044 LINE",
"498 1044 LINE",
"509 1044 LINE",
"524 1029 LINE",
"524 1018 LINE",
"524 1009 LINE",
"518 999 LINE"
);
}
);
width = 598;
}
);
unicode = 00B5;
},
{
glyphname = at;
layers = (
{
layerId = UUID0;
paths = (
{
closed = 1;
nodes = (
"868 61 LINE",
"852 61 LINE",
"774 61 LINE",
"682 129 LINE",
"662 180 LINE",
"647 142 LINE",
"600 96 LINE",
"548 70 LINE",
"494 61 LINE",
"471 61 LINE",
"410 61 LINE",
"329 102 LINE",
"280 168 LINE",
"260 253 LINE",
"260 297 LINE",
"260 727 LINE",
"260 771 LINE",
"280 856 LINE",
"329 922 LINE",
"410 963 LINE",
"471 963 LINE",
"533 963 LINE",
"613 915 LINE",
"641 877 LINE",
"641 918 LINE",
"635 927 LINE",
"635 936 LINE",
"635 947 LINE",
"651 963 LINE",
"662 963 LINE",
"673 963 LINE",
"688 947 LINE",
"688 936 LINE",
"688 927 LINE",
"682 918 LINE",
"682 297 LINE",
"682 263 LINE",
"696 198 LINE",
"729 144 LINE",
"785 108 LINE",
"827 104 LINE",
"827 817 LINE",
"827 888 LINE",
"792 1028 LINE",
"710 1139 LINE",
"574 1208 LINE",
"473 1208 LINE",
"373 1208 LINE",
"239 1139 LINE",
"158 1028 LINE",
"123 888 LINE",
"123 817 LINE",
"123 227 LINE",
"123 156 LINE",
"158 17 LINE",
"239 -95 LINE",
"373 -164 LINE",
"473 -164 LINE",
"473 -205 LINE",
"361 -205 LINE",
"211 -131 LINE",
"120 -10 LINE",
"82 144 LINE",
"82 225 LINE",
"82 819 LINE",
"82 900 LINE",
"121 1054 LINE",
"212 1175 LINE",
"363 1249 LINE",
"475 1249 LINE",
"584 1249 LINE",
"734 1175 LINE",
"827 1054 LINE",
"868 900 LINE",
"868 819 LINE"
);
},
{
closed = 1;
nodes = (
"301 297 LINE",
"301 262 LINE",
"317 192 LINE",
"356 136 LINE",
"421 102 LINE",
"471 102 LINE",
"519 102 LINE",
"584 135 LINE",
"624 189 LINE",
"641 259 LINE",
"641 297 LINE",
"641 727 LINE",
"641 762 LINE",
"620 832 LINE",
"578 887 LINE",
"514 922 LINE",
"471 922 LINE",
"421 922 LINE",
"356 887 LINE",
"317 832 LINE",
"301 762 LINE",
"301 727 LINE"
);
}
);
width = 948;
}
);
unicode = 0040;
},
{
glyphname = ampersand;
layers = (
{
layerId = UUID0;
paths = (
{
closed = 1;
nodes = (
"512 207 LINE",
"512 163 LINE",
"490 81 LINE",
"440 18 LINE",
"358 -20 LINE",
"299 -20 LINE",
"238 -20 LINE",
"156 18 LINE",
"107 81 LINE",
"86 163 LINE",
"86 207 LINE",
"86 791 LINE",
"86 821 LINE",
"98 884 LINE",
"125 941 LINE",
"169 989 LINE",
"201 1004 LINE",
"169 1018 LINE",
"125 1066 LINE",
"98 1125 LINE",
"86 1194 LINE",
"86 1229 LINE",
"86 1271 LINE",
"107 1352 LINE",
"156 1415 LINE",
"238 1454 LINE",
"299 1454 LINE",
"357 1454 LINE",
"436 1420 LINE",
"486 1363 LINE",
"510 1287 LINE",
"512 1245 LINE",
"515 1242 LINE",
"520 1232 LINE",
"520 1227 LINE",
"520 1216 LINE",
"505 1200 LINE",
"494 1200 LINE",
"483 1200 LINE",
"467 1216 LINE",
"467 1227 LINE",
"467 1230 LINE",
"468 1237 LINE",
"471 1241 LINE",
"469 1273 LINE",
"450 1335 LINE",
"409 1383 LINE",
"345 1413 LINE",
"299 1413 LINE",
"251 1413 LINE",
"185 1381 LINE",
"144 1329 LINE",
"127 1263 LINE",
"127 1229 LINE",
"127 1191 LINE",
"144 1118 LINE",
"185 1060 LINE",
"218 1042 LINE",
"249 1025 LINE",
"295 1024 LINE",
"343 1024 LINE",
"343 983 LINE",
"294 983 LINE",
"248 982 LINE",
"217 964 LINE",
"184 946 LINE",
"144 890 LINE",
"127 822 LINE",
"127 791 LINE",
"127 207 LINE",
"127 171 LINE",
"144 104 LINE",
"184 51 LINE",
"250 20 LINE",
"299 20 LINE",
"348 20 LINE",
"414 51 LINE",
"454 104 LINE",
"471 171 LINE",
"471 207 LINE",
"471 401 LINE",
"342 401 LINE",
"336 395 LINE",
"326 395 LINE",
"315 395 LINE",
"299 411 LINE",
"299 422 LINE",
"299 433 LINE",
"315 449 LINE",
"326 449 LINE",
"335 449 LINE",
"342 442 LINE",
"569 442 LINE",
"579 449 LINE",
"588 449 LINE",
"599 449 LINE",
"614 433 LINE",
"614 422 LINE",
"614 411 LINE",
"599 395 LINE",
"588 395 LINE",
"578 395 LINE",
"569 401 LINE",
"512 401 LINE"
);
}
);
width = 631;
}
);
unicode = 0026;
},
{
glyphname = paragraph;
layers = (
{
layerId = UUID0;
paths = (
{
closed = 1;
nodes = (
"492 23 LINE",
"498 15 LINE",
"498 6 LINE",
"498 -5 LINE",
"482 -20 LINE",
"471 -20 LINE",
"460 -20 LINE",
"444 -5 LINE",
"444 6 LINE",
"444 16 LINE",
"451 23 LINE",
"451 791 LINE",
"272 791 LINE",
"212 791 LINE",
"130 829 LINE",
"80 892 LINE",
"59 974 LINE",
"59 1018 LINE",
"59 1200 LINE",
"59 1244 LINE",
"80 1328 LINE",
"130 1394 LINE",
"212 1434 LINE",
"272 1434 LINE",
"492 1434 LINE"
);
},
{
closed = 1;
nodes = (
"451 831 LINE",
"451 1393 LINE",
"272 1393 LINE",
"223 1393 LINE",
"157 1359 LINE",
"117 1304 LINE",
"100 1235 LINE",
"100 1200 LINE",
"100 1018 LINE",
"100 982 LINE",
"117 915 LINE",
"157 862 LINE",
"223 831 LINE",
"272 831 LINE"
);
},
{
closed = 1;
nodes = (
"639 23 LINE",
"645 15 LINE",
"645 6 LINE",
"645 -5 LINE",
"629 -20 LINE",
"618 -20 LINE",
"607 -20 LINE",
"592 -5 LINE",
"592 6 LINE",
"592 15 LINE",
"598 23 LINE",
"598 1409 LINE",
"592 1418 LINE",
"592 1427 LINE",
"592 1438 LINE",
"607 1454 LINE",
"618 1454 LINE",
"629 1454 LINE",
"645 1438 LINE",
"645 1427 LINE",
"645 1418 LINE",
"639 1409 LINE"
);
}
);
width = 752;
}
);
unicode = 00B6;
},
{
glyphname = section;
layers = (
{
layerId = UUID0;
paths = (
{
closed = 1;
nodes = (
"510 63 LINE",
"510 19 LINE",
"489 -62 LINE",
"439 -126 LINE",
"358 -164 LINE",
"297 -164 LINE",
"240 -164 LINE",
"161 -130 LINE",
"111 -72 LINE",
"86 3 LINE",
"84 45 LINE",
"81 48 LINE",
"78 58 LINE",
"78 63 LINE",
"78 74 LINE",
"93 90 LINE",
"104 90 LINE",
"115 90 LINE",
"131 74 LINE",
"131 63 LINE",
"131 58 LINE",
"128 48 LINE",
"125 45 LINE",
"126 11 LINE",
"146 -50 LINE",
"187 -96 LINE",
"251 -123 LINE",
"297 -123 LINE",
"346 -123 LINE",
"413 -92 LINE",
"453 -40 LINE",
"471 27 LINE",
"471 63 LINE",
"471 242 LINE",
"471 294 LINE",
"429 389 LINE",
"391 424 LINE",
"152 637 LINE",
"127 659 LINE",
"98 705 LINE",
"83 752 LINE",
"78 799 LINE",
"78 823 LINE",
"78 852 LINE",
"87 910 LINE",
"107 962 LINE",
"139 1006 LINE",
"162 1022 LINE",
"152 1032 LINE",
"127 1054 LINE",
"98 1101 LINE",
"83 1147 LINE",
"78 1195 LINE",
"78 1219 LINE",
"78 1364 LINE",
"78 1408 LINE",
"99 1492 LINE",
"148 1557 LINE",
"230 1597 LINE",
"291 1597 LINE",
"348 1597 LINE",
"427 1561 LINE",
"477 1501 LINE",
"502 1424 LINE",
"504 1382 LINE",
"507 1379 LINE",
"510 1369 LINE",
"510 1364 LINE",
"510 1353 LINE",
"494 1337 LINE",
"483 1337 LINE",
"472 1337 LINE",
"457 1353 LINE",
"457 1364 LINE",
"457 1374 LINE",
"463 1380 LINE",
"461 1413 LINE",
"442 1476 LINE",
"401 1526 LINE",
"337 1556 LINE",
"291 1556 LINE",
"242 1556 LINE",
"175 1522 LINE",
"135 1468 LINE",
"117 1399 LINE",
"117 1364 LINE",
"117 1219 LINE",
"119 1168 LINE",
"145 1088 LINE",
"180 1057 LINE",
"422 844 LINE",
"476 794 LINE",
"510 688 LINE",
"510 637 LINE",
"510 578 LINE",
"473 474 LINE",
"428 440 LINE",
"477 393 LINE",
"510 291 LINE",
"510 242 LINE"
);
},
{
closed = 1;
nodes = (
"397 469 LINE",
"436 497 LINE",
"469 587 LINE",
"469 637 LINE",
"469 690 LINE",
"429 784 LINE",
"391 819 LINE",
"195 993 LINE",
"151 965 LINE",
"119 873 LINE",
"119 823 LINE",
"121 772 LINE",
"145 692 LINE",
"180 662 LINE"
);
}
);
width = 590;
}
);
unicode = 00A7;
},
{
glyphname = copyright;
layers = (
{
layerId = UUID0;
paths = (
{
closed = 1;
nodes = (
"868 408 LINE",
"868 327 LINE",
"827 173 LINE",
"734 51 LINE",
"584 -23 LINE",
"475 -23 LINE",
"363 -23 LINE",
"212 51 LINE",
"121 173 LINE",
"82 327 LINE",
"82 408 LINE",
"82 1024 LINE",
"82 1105 LINE",
"121 1259 LINE",
"212 1380 LINE",
"363 1454 LINE",
"475 1454 LINE",
"584 1454 LINE",
"734 1380 LINE",
"827 1259 LINE",
"868 1105 LINE",
"868 1024 LINE"
);
},
{
closed = 1;
nodes = (
"827 1022 LINE",
"827 1092 LINE",
"792 1232 LINE",
"710 1344 LINE",
"574 1413 LINE",
"473 1413 LINE",
"373 1413 LINE",
"239 1344 LINE",
"158 1232 LINE",
"123 1092 LINE",
"123 1022 LINE",
"123 410 LINE",
"123 339 LINE",
"158 199 LINE",
"239 87 LINE",
"373 18 LINE",
"473 18 LINE",
"574 18 LINE",
"710 87 LINE",
"792 199 LINE",
"827 339 LINE",
"827 410 LINE"
);
},
{
closed = 1;
nodes = (
"303 420 LINE",
"303 384 LINE",
"320 314 LINE",
"359 259 LINE",
"425 225 LINE",
"473 225 LINE",
"519 225 LINE",
"583 254 LINE",
"624 302 LINE",
"643 365 LINE",
"645 399 LINE",
"642 402 LINE",
"639 411 LINE",
"639 418 LINE",
"639 427 LINE",
"653 442 LINE",
"666 442 LINE",
"678 442 LINE",
"692 427 LINE",
"692 418 LINE",
"692 410 LINE",
"689 402 LINE",
"686 399 LINE",
"684 358 LINE",
"659 280 LINE",
"609 220 LINE",
"530 184 LINE",
"473 184 LINE",
"413 184 LINE",
"332 225 LINE",
"283 291 LINE",
"262 376 LINE",
"262 420 LINE",
"262 1014 LINE",
"262 1057 LINE",
"283 1142 LINE",
"332 1208 LINE",
"413 1249 LINE",
"473 1249 LINE",
"530 1249 LINE",
"609 1213 LINE",
"659 1153 LINE",
"684 1076 LINE",
"686 1034 LINE",
"689 1031 LINE",
"692 1021 LINE",
"692 1016 LINE",
"692 1005 LINE",
"679 991 LINE",
"666 991 LINE",
"652 991 LINE",
"639 1004 LINE",
"639 1016 LINE",
"639 1026 LINE",
"645 1032 LINE",
"643 1065 LINE",
"624 1128 LINE",
"583 1178 LINE",
"519 1208 LINE",
"473 1208 LINE",
"425 1208 LINE",
"359 1174 LINE",
"320 1119 LINE",
"303 1049 LINE",
"303 1014 LINE"
);
}
);
width = 948;
}
);
unicode = 00A9;
},
{
glyphname = registered;
layers = (
{
layerId = UUID0;
paths = (
{
closed = 1;
nodes = (
"868 408 LINE",
"868 327 LINE",
"827 173 LINE",
"734 51 LINE",
"584 -23 LINE",
"475 -23 LINE",
"363 -23 LINE",
"212 51 LINE",
"121 173 LINE",
"82 327 LINE",
"82 408 LINE",
"82 1024 LINE",
"82 1105 LINE",
"121 1259 LINE",
"212 1380 LINE",
"363 1454 LINE",
"475 1454 LINE",
"584 1454 LINE",
"734 1380 LINE",
"827 1259 LINE",
"868 1105 LINE",
"868 1024 LINE"
);
},
{
closed = 1;
nodes = (
"827 1022 LINE",
"827 1092 LINE",
"792 1232 LINE",
"710 1344 LINE",
"574 1413 LINE",
"473 1413 LINE",
"373 1413 LINE",
"239 1344 LINE",
"158 1232 LINE",
"123 1092 LINE",
"123 1022 LINE",
"123 410 LINE",
"123 339 LINE",
"158 199 LINE",
"239 87 LINE",
"373 18 LINE",
"473 18 LINE",
"574 18 LINE",
"710 87 LINE",
"792 199 LINE",
"827 339 LINE",
"827 410 LINE"
);
},
{
closed = 1;
nodes = (
"664 236 LINE",
"670 232 LINE",
"680 219 LINE",
"680 211 LINE",
"680 200 LINE",
"664 184 LINE",
"653 184 LINE",
"642 184 LINE",
"627 200 LINE",
"627 211 LINE",
"627 217 LINE",
"487 500 LINE",
"334 500 LINE",
"334 227 LINE",
"340 221 LINE",
"340 211 LINE",
"340 200 LINE",
"324 184 LINE",
"313 184 LINE",
"302 184 LINE",
"287 200 LINE",
"287 211 LINE",
"287 221 LINE",
"293 227 LINE",
"293 1249 LINE",
"483 1249 LINE",
"537 1249 LINE",
"611 1213 LINE",
"656 1153 LINE",
"676 1076 LINE",
"676 1036 LINE",
"676 707 LINE",
"676 671 LINE",
"661 605 LINE",
"627 550 LINE",
"572 511 LINE",
"532 504 LINE"
);
},
{
closed = 1;
nodes = (
"483 541 LINE",
"525 541 LINE",
"583 569 LINE",
"619 615 LINE",
"635 675 LINE",
"635 707 LINE",
"635 1036 LINE",
"635 1067 LINE",
"620 1129 LINE",
"584 1178 LINE",
"526 1208 LINE",
"483 1208 LINE",
"334 1208 LINE",
"334 541 LINE"
);
}
);
width = 948;
}
);
unicode = 00AE;
},
{
glyphname = degree;
layers = (
{
layerId = UUID0;
paths = (
{
closed = 1;
nodes = (
"117 969 LINE",
"117 951 LINE",
"125 914 LINE",
"146 884 LINE",
"181 866 LINE",
"207 866 LINE",
"233 866 LINE",
"268 884 LINE",
"290 914 LINE",
"299 951 LINE",
"299 969 LINE",
"299 1311 LINE",
"299 1329 LINE",
"290 1366 LINE",
"268 1395 LINE",
"233 1413 LINE",
"207 1413 LINE",
"181 1413 LINE",
"146 1395 LINE",
"125 1366 LINE",
"117 1329 LINE",
"117 1311 LINE"
);
},
{
closed = 1;
nodes = (
"340 969 LINE",
"340 943 LINE",
"326 891 LINE",
"294 850 LINE",
"244 825 LINE",
"207 825 LINE",
"170 825 LINE",
"120 850 LINE",
"89 891 LINE",
"76 943 LINE",
"76 969 LINE",
"76 1311 LINE",
"76 1337 LINE",
"89 1388 LINE",
"120 1429 LINE",
"170 1454 LINE",
"207 1454 LINE",
"244 1454 LINE",
"294 1429 LINE",
"326 1388 LINE",
"340 1337 LINE",
"340 1311 LINE"
);
}
);
width = 416;
}
);
unicode = 00B0;
},
{
glyphname = bar;
layers = (
{
layerId = UUID0;
paths = (
{
closed = 1;
nodes = (
"143 -127 LINE",
"150 -138 LINE",
"150 -145 LINE",
"150 -156 LINE",
"134 -172 LINE",
"123 -172 LINE",
"112 -172 LINE",
"96 -156 LINE",
"96 -145 LINE",
"96 -136 LINE",
"102 -127 LINE",
"102 1559 LINE",
"96 1568 LINE",
"96 1577 LINE",
"96 1588 LINE",
"112 1604 LINE",
"123 1604 LINE",
"134 1604 LINE",
"150 1588 LINE",
"150 1577 LINE",
"150 1569 LINE",
"143 1559 LINE"
);
}
);
width = 248;
}
);
unicode = 007C;
},
{
glyphname = brokenbar;
layers = (
{
layerId = UUID0;
paths = (
{
closed = 1;
nodes = (
"150 924 LINE",
"156 918 LINE",
"156 907 LINE",
"156 896 LINE",
"140 881 LINE",
"129 881 LINE",
"118 881 LINE",
"102 896 LINE",
"102 907 LINE",
"102 918 LINE",
"109 924 LINE",
"109 1559 LINE",
"102 1567 LINE",
"102 1577 LINE",
"102 1588 LINE",
"118 1604 LINE",
"129 1604 LINE",
"140 1604 LINE",
"156 1588 LINE",
"156 1577 LINE",
"156 1568 LINE",
"150 1559 LINE"
);
},
{
closed = 1;
nodes = (
"150 -127 LINE",
"156 -136 LINE",
"156 -145 LINE",
"156 -156 LINE",
"140 -172 LINE",
"129 -172 LINE",
"118 -172 LINE",
"102 -156 LINE",
"102 -145 LINE",
"102 -135 LINE",
"109 -127 LINE",
"109 487 LINE",
"102 497 LINE",
"102 506 LINE",
"102 517 LINE",
"118 532 LINE",
"129 532 LINE",
"140 532 LINE",
"156 517 LINE",
"156 506 LINE",
"156 497 LINE",
"150 487 LINE"
);
}
);
width = 256;
}
);
unicode = 00A6;
},
{
glyphname = asciicircum;
layers = (
{
layerId = UUID0;
paths = (
{
closed = 1;
nodes = (
"489 551 LINE",
"496 545 LINE",
"496 535 LINE",
"496 524 LINE",
"483 508 LINE",
"469 508 LINE",
"455 508 LINE",
"442 524 LINE",
"442 535 LINE",
"442 539 LINE",
"446 547 LINE",
"305 1313 LINE",
"152 549 LINE",
"156 541 LINE",
"156 535 LINE",
"156 524 LINE",
"140 508 LINE",
"129 508 LINE",
"118 508 LINE",
"102 524 LINE",
"102 535 LINE",
"102 541 LINE",
"106 552 LINE",
"111 555 LINE",
"283 1413 LINE",
"281 1416 LINE",
"281 1420 LINE",
"281 1427 LINE",
"281 1438 LINE",
"296 1454 LINE",
"307 1454 LINE",
"318 1454 LINE",
"334 1438 LINE",
"334 1427 LINE",
"334 1422 LINE",
"332 1416 LINE",
"330 1413 LINE"
);
}
);
width = 598;
}
);
unicode = 005E;
},
{
glyphname = ampersand.alt;
layers = (
{
layerId = UUID0;
paths = (
{
closed = 1;
nodes = (
"610 31 LINE",
"618 28 LINE",
"627 14 LINE",
"627 6 LINE",
"627 -5 LINE",
"611 -20 LINE",
"600 -20 LINE",
"589 -20 LINE",
"573 -5 LINE",
"573 6 LINE",
"573 14 LINE",
"575 16 LINE",
"502 178 LINE",
"499 138 LINE",
"473 66 LINE",
"423 12 LINE",
"345 -20 LINE",
"291 -20 LINE",
"230 -20 LINE",
"148 18 LINE",
"99 81 LINE",
"78 163 LINE",
"78 207 LINE",
"78 811 LINE",
"78 857 LINE",
"102 947 LINE",
"133 981 LINE",
"116 1018 LINE",
"94 1075 LINE",
"81 1126 LINE",
"76 1177 LINE",
"76 1208 LINE",
"76 1250 LINE",
"97 1332 LINE",
"146 1395 LINE",
"228 1434 LINE",
"289 1434 LINE",
"442 1434 LINE",
"452 1440 LINE",
"461 1440 LINE",
"472 1440 LINE",
"487 1424 LINE",
"487 1413 LINE",
"487 1402 LINE",
"472 1386 LINE",
"461 1386 LINE",
"454 1386 LINE",
"442 1393 LINE",
"289 1393 LINE",
"241 1393 LINE",
"175 1360 LINE",
"134 1308 LINE",
"117 1242 LINE",
"117 1208 LINE",
"117 1184 LINE",
"121 1140 LINE",
"133 1090 LINE",
"156 1029 LINE",
"174 989 LINE",
"463 354 LINE",
"463 1024 LINE",
"598 1024 LINE",
"604 1030 LINE",
"614 1030 LINE",
"625 1030 LINE",
"641 1015 LINE",
"641 1006 LINE",
"641 995 LINE",
"625 979 LINE",
"614 979 LINE",
"609 979 LINE",
"599 982 LINE",
"596 985 LINE",
"504 985 LINE",
"504 264 LINE"
);
},
{
closed = 1;
nodes = (
"463 264 LINE",
"152 938 LINE",
"133 912 LINE",
"119 845 LINE",
"119 811 LINE",
"119 207 LINE",
"119 171 LINE",
"136 104 LINE",
"176 51 LINE",
"242 20 LINE",
"291 20 LINE",
"340 20 LINE",
"406 51 LINE",
"446 104 LINE",
"463 171 LINE",
"463 207 LINE"
);
}
);
width = 662;
}
);
},
{
glyphname = acute;
layers = (
{
layerId = UUID0;
paths = (
{
closed = 1;
nodes = (
"135 1194 LINE",
"135 1183 LINE",
"120 1167 LINE",
"109 1167 LINE",
"98 1167 LINE",
"82 1183 LINE",
"82 1194 LINE",
"82 1203 LINE",
"95 1219 LINE",
"106 1221 LINE",
"315 1430 LINE",
"315 1439 LINE",
"331 1454 LINE",
"342 1454 LINE",
"353 1454 LINE",
"369 1438 LINE",
"369 1427 LINE",
"369 1416 LINE",
"353 1401 LINE",
"342 1401 LINE"
);
}
);
width = 451;
}
);
unicode = 00B4;
},
{
glyphname = caron;
layers = (
{
layerId = UUID0;
paths = (
{
closed = 1;
nodes = (
"369 1192 LINE",
"367 1181 LINE",
"351 1167 LINE",
"342 1167 LINE",
"331 1167 LINE",
"315 1181 LINE",
"315 1192 LINE",
"106 1401 LINE",
"95 1401 LINE",
"82 1416 LINE",
"82 1427 LINE",
"82 1438 LINE",
"98 1454 LINE",
"109 1454 LINE",
"120 1454 LINE",
"135 1438 LINE",
"135 1427 LINE",
"342 1221 LINE",
"549 1427 LINE",
"549 1438 LINE",
"564 1454 LINE",
"575 1454 LINE",
"586 1454 LINE",
"602 1438 LINE",
"602 1427 LINE",
"602 1416 LINE",
"587 1401 LINE",
"578 1401 LINE"
);
}
);
width = 684;
}
);
unicode = 02C7;
},
{
glyphname = cedilla;
layers = (
{
layerId = UUID0;
paths = (
{
closed = 1;
nodes = (
"387 -254 LINE",
"387 -291 LINE",
"362 -341 LINE",
"321 -372 LINE",
"270 -385 LINE",
"244 -385 LINE",
"125 -385 LINE",
"119 -391 LINE",
"109 -391 LINE",
"98 -391 LINE",
"82 -376 LINE",
"82 -365 LINE",
"82 -354 LINE",
"98 -338 LINE",
"109 -338 LINE",
"119 -338 LINE",
"125 -344 LINE",
"244 -344 LINE",
"262 -344 LINE",
"299 -336 LINE",
"328 -315 LINE",
"346 -280 LINE",
"346 -254 LINE",
"346 -221 LINE",
"346 -195 LINE",
"328 -161 LINE",
"299 -140 LINE",
"262 -131 LINE",
"244 -131 LINE",
"186 -131 LINE",
"186 0 LINE",
"227 0 LINE",
"227 -90 LINE",
"244 -90 LINE",
"270 -90 LINE",
"321 -103 LINE",
"362 -134 LINE",
"387 -184 LINE",
"387 -221 LINE"
);
}
);
width = 469;
}
);
unicode = 00B8;
},
{
glyphname = circumflex;
layers = (
{
layerId = UUID0;
paths = (
{
closed = 1;
nodes = (
"557 1221 LINE",
"566 1219 LINE",
"582 1203 LINE",
"582 1194 LINE",
"582 1183 LINE",
"566 1167 LINE",
"555 1167 LINE",
"544 1167 LINE",
"528 1183 LINE",
"528 1194 LINE",
"322 1401 LINE",
"115 1194 LINE",
"115 1183 LINE",
"99 1167 LINE",
"88 1167 LINE",
"77 1167 LINE",
"61 1183 LINE",
"61 1194 LINE",
"61 1203 LINE",
"75 1219 LINE",
"86 1221 LINE",
"295 1430 LINE",
"295 1439 LINE",
"311 1454 LINE",
"322 1454 LINE",
"331 1454 LINE",
"346 1439 LINE",
"348 1430 LINE"
);
}
);
width = 643;
}
);
unicode = 02C6;
},
{
glyphname = dieresis;
layers = (
{
layerId = UUID0;
paths = (
{
closed = 1;
nodes = (
"160 1270 LINE",
"166 1264 LINE",
"166 1254 LINE",
"166 1243 LINE",
"150 1227 LINE",
"139 1227 LINE",
"128 1227 LINE",
"113 1243 LINE",
"113 1254 LINE",
"113 1264 LINE",
"119 1270 LINE",
"119 1329 LINE",
"113 1339 LINE",
"113 1348 LINE",
"113 1359 LINE",
"128 1374 LINE",
"139 1374 LINE",
"150 1374 LINE",
"166 1359 LINE",
"166 1348 LINE",
"166 1339 LINE",
"160 1329 LINE"
);
},
{
closed = 1;
nodes = (
"391 1270 LINE",
"397 1264 LINE",
"397 1254 LINE",
"397 1243 LINE",
"382 1227 LINE",
"371 1227 LINE",
"360 1227 LINE",
"344 1243 LINE",
"344 1254 LINE",
"344 1264 LINE",
"350 1270 LINE",
"350 1329 LINE",
"344 1339 LINE",
"344 1348 LINE",
"344 1359 LINE",
"360 1374 LINE",
"371 1374 LINE",
"382 1374 LINE",
"397 1359 LINE",
"397 1348 LINE",
"397 1339 LINE",
"391 1329 LINE"
);
}
);
width = 508;
}
);
unicode = 00A8;
},
{
glyphname = grave;
layers = (
{
layerId = UUID0;
paths = (
{
closed = 1;
nodes = (
"344 1221 LINE",
"353 1219 LINE",
"369 1203 LINE",
"369 1194 LINE",
"369 1183 LINE",
"353 1167 LINE",
"342 1167 LINE",
"331 1167 LINE",
"315 1183 LINE",
"315 1194 LINE",
"109 1401 LINE",
"98 1401 LINE",
"82 1416 LINE",
"82 1427 LINE",
"82 1438 LINE",
"98 1454 LINE",
"109 1454 LINE",
"118 1454 LINE",
"133 1439 LINE",
"135 1430 LINE"
);
}
);
width = 451;
}
);
unicode = 0060;
},
{
glyphname = macron;
layers = (
{
layerId = UUID0;
paths = (
{
closed = 1;
nodes = (
"459 1389 LINE",
"468 1395 LINE",
"477 1395 LINE",
"488 1395 LINE",
"504 1379 LINE",
"504 1368 LINE",
"504 1357 LINE",
"488 1341 LINE",
"477 1341 LINE",
"467 1341 LINE",
"459 1348 LINE",
"125 1348 LINE",
"119 1341 LINE",
"109 1341 LINE",
"98 1341 LINE",
"82 1357 LINE",
"82 1368 LINE",
"82 1379 LINE",
"98 1395 LINE",
"109 1395 LINE",
"119 1395 LINE",
"125 1389 LINE"
);
}
);
width = 586;
}
);
unicode = 00AF;
},
{
glyphname = ring;
layers = (
{
layerId = UUID0;
paths = (
{
closed = 1;
nodes = (
"96 1317 LINE",
"96 1341 LINE",
"109 1390 LINE",
"139 1429 LINE",
"188 1454 LINE",
"223 1454 LINE",
"260 1454 LINE",
"309 1429 LINE",
"338 1390 LINE",
"350 1341 LINE",
"350 1307 LINE",
"350 1281 LINE",
"338 1230 LINE",
"309 1191 LINE",
"260 1167 LINE",
"223 1167 LINE",
"188 1167 LINE",
"139 1191 LINE",
"109 1230 LINE",
"96 1281 LINE",
"96 1307 LINE"
);
},
{
closed = 1;
nodes = (
"264 1217 LINE",
"281 1226 LINE",
"301 1254 LINE",
"309 1289 LINE",
"309 1307 LINE",
"309 1333 LINE",
"301 1367 LINE",
"281 1395 LINE",
"248 1413 LINE",
"223 1413 LINE",
"198 1413 LINE",
"165 1395 LINE",
"145 1367 LINE",
"137 1333 LINE",
"137 1307 LINE",
"137 1289 LINE",
"145 1254 LINE",
"165 1226 LINE",
"198 1208 LINE",
"223 1208 LINE",
"248 1208 LINE"
);
}
);
width = 446;
}
);
unicode = 02DA;
},
{
glyphname = tilde;
layers = (
{
layerId = UUID0;
paths = (
{
closed = 1;
nodes = (
"512 1339 LINE",
"512 1307 LINE",
"494 1263 LINE",
"464 1236 LINE",
"423 1225 LINE",
"401 1225 LINE",
"376 1225 LINE",
"336 1245 LINE",
"304 1274 LINE",
"276 1309 LINE",
"248 1338 LINE",
"218 1358 LINE",
"199 1358 LINE",
"171 1358 LINE",
"129 1328 LINE",
"129 1284 LINE",
"129 1268 LINE",
"135 1262 LINE",
"135 1251 LINE",
"135 1240 LINE",
"120 1225 LINE",
"109 1225 LINE",
"98 1225 LINE",
"82 1240 LINE",
"82 1251 LINE",
"82 1265 LINE",
"90 1270 LINE",
"90 1284 LINE",
"90 1318 LINE",
"109 1362 LINE",
"141 1388 LINE",
"181 1399 LINE",
"201 1399 LINE",
"226 1399 LINE",
"265 1379 LINE",
"297 1350 LINE",
"325 1315 LINE",
"354 1286 LINE",
"384 1266 LINE",
"403 1266 LINE",
"431 1266 LINE",
"473 1295 LINE",
"473 1339 LINE",
"473 1354 LINE",
"467 1363 LINE",
"467 1372 LINE",
"467 1383 LINE",
"483 1399 LINE",
"494 1399 LINE",
"505 1399 LINE",
"520 1383 LINE",
"520 1372 LINE",
"520 1365 LINE",
"515 1356 LINE",
"512 1352 LINE"
);
}
);
width = 602;
}
);
unicode = 02DC;
},
{
glyphname = foundryicon;
layers = (
{
layerId = UUID0;
paths = (
{
closed = 1;
nodes = (
"1964 283 LINE",
"1964 342 LINE",
"1870 342 LINE",
"1859 350 LINE",
"1849 375 LINE",
"1849 387 LINE",
"1849 422 LINE",
"1878 449 LINE",
"1849 466 LINE",
"1849 506 LINE",
"1849 538 LINE",
"1895 582 LINE",
"1937 582 LINE",
"1956 582 LINE",
"1989 570 LINE",
"2001 561 LINE",
"2009 570 LINE",
"2029 582 LINE",
"2040 582 LINE",
"2048 582 LINE",
"2056 580 LINE",
"2062 578 LINE",
"2062 514 LINE",
"2030 514 LINE",
"2032 511 LINE",
"2032 508 LINE",
"2032 504 LINE",
"2032 476 LINE",
"1987 432 LINE",
"1939 432 LINE",
"1925 432 LINE",
"1920 432 LINE",
"1915 434 LINE",
"1915 403 LINE",
"1952 403 LINE",
"1990 403 LINE",
"2032 368 LINE",
"2032 330 LINE",
"2032 314 LINE",
"2022 291 LINE",
"2019 283 LINE"
);
},
{
closed = 1;
nodes = (
"502 358 LINE",
"489 313 LINE",
"443 283 LINE",
"414 283 LINE",
"397 283 LINE",
"367 291 LINE",
"360 297 LINE",
"360 350 LINE",
"395 350 LINE",
"411 350 LINE",
"432 359 LINE",
"438 373 LINE",
"410 373 LINE",
"360 514 LINE",
"340 514 LINE",
"340 578 LINE",
"418 578 LINE",
"446 477 LINE",
"457 428 LINE",
"479 514 LINE",
"461 514 LINE",
"461 578 LINE",
"549 578 LINE",
"549 514 LINE"
);
},
{
closed = 1;
nodes = (
"324 383 LINE",
"287 367 LINE",
"240 367 LINE",
"177 367 LINE",
"104 439 LINE",
"104 502 LINE",
"104 568 LINE",
"175 647 LINE",
"244 647 LINE",
"262 647 LINE",
"304 639 LINE",
"324 633 LINE",
"324 551 LINE",
"260 551 LINE",
"260 582 LINE",
"255 584 LINE",
"251 584 LINE",
"242 584 LINE",
"213 584 LINE",
"182 542 LINE",
"182 510 LINE",
"182 434 LINE",
"258 434 LINE",
"324 434 LINE"
);
},
{
closed = 1;
nodes = (
"1608 395 LINE",
"1581 367 LINE",
"1532 367 LINE",
"1484 367 LINE",
"1432 422 LINE",
"1432 473 LINE",
"1432 524 LINE",
"1486 582 LINE",
"1534 582 LINE",
"1582 582 LINE",
"1636 526 LINE",
"1636 475 LINE",
"1636 424 LINE"
);
},
{
closed = 1;
nodes = (
"1182 379 LINE",
"1172 373 LINE",
"1152 369 LINE",
"1141 369 LINE",
"1107 369 LINE",
"1096 383 LINE",
"1085 374 LINE",
"1058 367 LINE",
"1044 367 LINE",
"1015 367 LINE",
"975 399 LINE",
"975 430 LINE",
"975 458 LINE",
"1011 492 LINE",
"1055 492 LINE",
"1087 492 LINE",
"1087 494 LINE",
"1087 502 LINE",
"1068 514 LINE",
"1042 514 LINE",
"991 514 LINE",
"991 567 LINE",
"1010 573 LINE",
"1045 582 LINE",
"1065 582 LINE",
"1113 582 LINE",
"1159 541 LINE",
"1159 504 LINE",
"1159 434 LINE",
"1182 434 LINE"
);
},
{
closed = 1;
nodes = (
"944 381 LINE",
"927 373 LINE",
"887 367 LINE",
"868 367 LINE",
"814 367 LINE",
"760 422 LINE",
"760 471 LINE",
"760 521 LINE",
"809 582 LINE",
"860 582 LINE",
"902 582 LINE",
"950 533 LINE",
"950 496 LINE",
"950 488 LINE",
"948 470 LINE",
"946 459 LINE",
"834 459 LINE",
"839 445 LINE",
"865 434 LINE",
"885 434 LINE",
"944 434 LINE"
);
},
{
closed = 1;
nodes = (
"1792 373 LINE",
"1665 373 LINE",
"1665 434 LINE",
"1683 434 LINE",
"1683 514 LINE",
"1661 514 LINE",
"1661 578 LINE",
"1731 578 LINE",
"1751 545 LINE",
"1756 554 LINE",
"1765 565 LINE",
"1772 571 LINE",
"1785 582 LINE",
"1802 582 LINE",
"1808 582 LINE",
"1822 580 LINE",
"1827 578 LINE",
"1827 514 LINE",
"1757 514 LINE",
"1757 434 LINE",
"1792 434 LINE"
);
},
{
closed = 1;
nodes = (
"709 373 LINE",
"582 373 LINE",
"582 434 LINE",
"602 434 LINE",
"602 514 LINE",
"578 514 LINE",
"578 578 LINE",
"647 578 LINE",
"668 545 LINE",
"673 554 LINE",
"682 565 LINE",
"688 571 LINE",
"701 582 LINE",
"719 582 LINE",
"727 582 LINE",
"738 580 LINE",
"743 578 LINE",
"743 514 LINE",
"674 514 LINE",
"674 434 LINE",
"709 434 LINE"
);
},
{
closed = 1;
nodes = (
"1307 377 LINE",
"1287 369 LINE",
"1262 369 LINE",
"1206 369 LINE",
"1206 426 LINE",
"1206 584 LINE",
"1182 584 LINE",
"1182 647 LINE",
"1278 647 LINE",
"1278 434 LINE",
"1307 434 LINE"
);
},
{
closed = 1;
nodes = (
"1419 408 LINE",
"1419 392 LINE",
"1396 369 LINE",
"1374 369 LINE",
"1354 369 LINE",
"1333 392 LINE",
"1333 408 LINE",
"1333 425 LINE",
"1354 449 LINE",
"1374 449 LINE",
"1396 449 LINE",
"1419 425 LINE"
);
},
{
closed = 1;
nodes = (
"1534 422 LINE",
"1548 422 LINE",
"1563 446 LINE",
"1563 475 LINE",
"1563 501 LINE",
"1548 524 LINE",
"1534 524 LINE",
"1520 524 LINE",
"1505 501 LINE",
"1505 475 LINE",
"1505 446 LINE",
"1520 422 LINE"
);
},
{
closed = 1;
nodes = (
"1942 475 LINE",
"1962 475 LINE",
"1962 506 LINE",
"1962 537 LINE",
"1942 537 LINE",
"1917 537 LINE",
"1917 506 LINE",
"1917 475 LINE"
);
},
{
closed = 1;
nodes = (
"1087 455 LINE",
"1071 455 LINE",
"1057 455 LINE",
"1044 444 LINE",
"1044 436 LINE",
"1044 427 LINE",
"1056 418 LINE",
"1065 418 LINE",
"1071 418 LINE",
"1081 419 LINE",
"1087 424 LINE"
);
},
{
closed = 1;
nodes = (
"883 496 LINE",
"883 511 LINE",
"872 528 LINE",
"858 528 LINE",
"838 528 LINE",
"831 496 LINE"
);
}
);
width = 2163;
}
);
},
